<?xml version="1.0" encoding="UTF-8"?>
<svg version="1.1" xmlns="http://www.w3.org/2000/svg" width="512" height="512">
<path d="M0 0 C1.19544434 0.33064453 1.19544434 0.33064453 2.41503906 0.66796875 C39.11951727 11.11941339 69.08759414 34.39880792 87.74072266 67.67382812 C99.14084451 88.73244795 104.40192069 111.10809326 104.1953125 135.0546875 C104.19106766 136.95602951 104.19106766 136.95602951 104.18673706 138.89578247 C104.17754003 142.21324673 104.15967593 145.53050388 104.1373291 148.84790039 C104.11661246 152.25404368 104.10768104 155.66021769 104.09765625 159.06640625 C104.07577069 165.71101612 104.04242711 172.35549119 104 179 C105.02625488 179.09502556 105.02625488 179.09502556 106.07324219 179.19197083 C106.97204102 179.27791 107.87083984 179.36384918 108.796875 179.45239258 C109.68729492 179.53636795 110.57771484 179.62034332 111.49511719 179.7068634 C125.10366805 181.29941866 137.72574289 189.40540259 146.3203125 199.80859375 C158.86567328 216.72205869 158.78291727 233.45034405 158.80688477 253.84368896 C158.81632576 257.36405002 158.85380515 260.8841121 158.88867188 264.40429688 C158.95266517 271.26948849 158.98638118 278.13452795 159 285 C160.69612427 285.37547974 160.69612427 285.37547974 162.42651367 285.75854492 C181.89805953 290.14812013 198.70791948 297.92773762 214 311 C214.79921875 311.64195312 215.5984375 312.28390625 216.421875 312.9453125 C237.30648321 330.43783466 250.49769964 358.09354454 253 385 C254.5432789 409.94296561 250.77500877 436.15347952 236 457 C234.1953125 458.87890625 234.1953125 458.87890625 232 460 C230.29650391 459.938125 230.29650391 459.938125 228.55859375 459.875 C224.89706587 459.64881734 224.89706587 459.64881734 222.34765625 462.125 C217.21287242 468.07054923 217.21287242 468.07054923 215.5625 475.4375 C215.706875 476.613125 215.85125 477.78875 216 479 C214.70349076 483.2611937 211.31183828 485.31838537 207.8125 487.75 C207.19173584 488.18465576 206.57097168 488.61931152 205.93139648 489.06713867 C194.67974914 496.78315865 183.16450149 502.322298 170 506 C168.40478516 506.47953125 168.40478516 506.47953125 166.77734375 506.96875 C147.9055937 511.73635001 125.51263931 511.00039666 107 505 C105.9776123 504.67854004 105.9776123 504.67854004 104.93457031 504.35058594 C90.53729758 499.71348966 76.788414 492.57723215 65.88671875 481.9375 C65.20222656 481.2775 64.51773437 480.6175 63.8125 479.9375 C63.22082031 479.32777344 62.62914062 478.71804688 62.01953125 478.08984375 C59.95898483 476.69676824 59.95898483 476.69676824 57.23046875 477.5859375 C54.29481988 478.87094946 51.41051037 480.22582561 48.54736328 481.66503906 C5.06553756 503.38002668 -47.72589484 505.54452942 -93.65454102 490.65771484 C-123.14197354 480.56921881 -147.60771142 464.37023391 -170 443 C-170.98033203 442.09894531 -170.98033203 442.09894531 -171.98046875 441.1796875 C-191.89240581 422.35557598 -205.79514901 396.47723666 -215 371 C-215.25120605 370.31228516 -215.50241211 369.62457031 -215.76123047 368.91601562 C-221.97579969 351.57904944 -225.11898331 332.69424473 -225.17700195 314.29614258 C-225.18357315 313.37122009 -225.19014435 312.44629761 -225.19691467 311.49334717 C-225.21647604 308.46040744 -225.22827105 305.4275168 -225.23828125 302.39453125 C-225.24235678 301.35010046 -225.2464323 300.30566967 -225.25063133 299.22958946 C-225.27141802 293.70213398 -225.28575211 288.17470279 -225.29516602 282.6472168 C-225.30622106 276.97304007 -225.34063234 271.29925643 -225.38033772 265.62521839 C-225.40661814 261.22996853 -225.41486791 256.83481087 -225.41844749 252.43948936 C-225.42328308 250.34934519 -225.43480925 248.25920428 -225.45348549 246.16913795 C-225.61825246 226.51029732 -223.11308748 209.83678953 -208.6875 195.125 C-199.35259811 186.28609426 -188.71693973 180.67088199 -175.796875 179.45239258 C-174.89807617 179.3664534 -173.99927734 179.28051422 -173.07324219 179.19197083 C-172.38907227 179.12862045 -171.70490234 179.06527008 -171 179 C-171.00666183 178.37011673 -171.01332367 177.74023346 -171.02018738 177.09126282 C-171.08754581 170.42165332 -171.13220811 163.75214324 -171.16479492 157.08227539 C-171.17970543 154.60664941 -171.20004094 152.131049 -171.22631836 149.65551758 C-171.68160231 105.60010001 -161.81384848 68.49989249 -130.375 36.3125 C-129.59125 35.549375 -128.8075 34.78625 -128 34 C-127.57332031 33.51660156 -127.14664063 33.03320312 -126.70703125 32.53515625 C-112.26408419 16.75558684 -90.28368464 6.59743383 -70 1 C-69.27103516 0.78972168 -68.54207031 0.57944336 -67.79101562 0.36279297 C-47.18302911 -5.38034184 -20.6652369 -5.87338159 0 0 Z M-84 77 C-84.72574219 77.61359375 -85.45148438 78.2271875 -86.19921875 78.859375 C-99.3365988 90.9385378 -107.85836846 109.61705144 -109.25985718 127.27383423 C-109.34295405 130.62042316 -109.33859407 133.95351523 -109.29296875 137.30078125 C-109.28872391 138.5031694 -109.28447906 139.70555756 -109.28010559 140.94438171 C-109.26349375 144.73399548 -109.22587478 148.52305065 -109.1875 152.3125 C-109.17243055 154.90298704 -109.15874614 157.49348252 -109.14648438 160.08398438 C-109.11364779 166.38950916 -109.0636266 172.69471465 -109 179 C-108.24244919 179.01030746 -107.48489838 179.02061493 -106.70439148 179.03123474 C-99.56791831 179.12918063 -92.43153228 179.23169094 -85.29519939 179.33933926 C-81.62627332 179.39452201 -77.95733921 179.44793454 -74.28833008 179.49731445 C-70.74806108 179.54502662 -67.20788823 179.59737185 -63.66773415 179.65294075 C-61.65863701 179.68326295 -59.64946919 179.70877685 -57.64030457 179.73423767 C-55.80874565 179.7641555 -55.80874565 179.7641555 -53.94018555 179.79467773 C-52.32469063 179.81799416 -52.32469063 179.81799416 -50.67655945 179.84178162 C-48 180 -48 180 -45 181 C-43.3125 184.0625 -43.3125 184.0625 -42 187 C-39.08110852 187.16216064 -36.17120775 187.28091202 -33.25 187.375 C-32.425 187.42527344 -31.6 187.47554687 -30.75 187.52734375 C-28.36023744 187.58516059 -26.32436497 187.56810281 -24 187 C-21.47498016 184.17253257 -21.47498016 184.17253257 -20 181 C-17.33339943 179.66669971 -15.25111257 179.83840541 -12.26513672 179.79467773 C-11.06404266 179.77473251 -9.86294861 179.75478729 -8.62545776 179.73423767 C-7.32335358 179.71752518 -6.02124939 179.70081268 -4.6796875 179.68359375 C-3.33732462 179.66302375 -1.99496821 179.64202727 -0.65261841 179.62062073 C2.88188438 179.56540469 6.41644557 179.51599342 9.9510498 179.46777344 C13.55726322 179.41755496 17.16339172 179.36187071 20.76953125 179.30664062 C27.84628049 179.19906483 34.92310584 179.09761858 42 179 C42.10232824 171.15709721 42.17185119 163.31436973 42.21972656 155.47094727 C42.23742784 152.80851409 42.26689782 150.14696867 42.30175781 147.48461914 C42.81874532 126.85365282 42.81874532 126.85365282 38 107 C37.71205566 106.24420654 37.42411133 105.48841309 37.12744141 104.7097168 C29.0604857 85.42013001 13.66192445 71.28598435 -5.30078125 63.0625 C-32.4478161 52.37654706 -62.06308558 58.18753366 -84 77 Z " fill="#020201" transform="translate(242,3)"/>
<path d="M0 0 C6.6 0 13.2 0 20 0 C20.99 2.475 20.99 2.475 22 5 C25.30786172 7.20524115 26.28907581 7.24883332 30.13265991 7.24482727 C31.19500854 7.24876495 32.25735718 7.25270264 33.35189819 7.25675964 C34.51758331 7.25106461 35.68326843 7.24536957 36.88427734 7.23950195 C38.11229065 7.24151611 39.34030396 7.24353027 40.60552979 7.24560547 C43.27875093 7.24915693 45.9517256 7.24920428 48.62491989 7.24382973 C52.86301735 7.23621316 57.10094619 7.24688613 61.33901978 7.2610321 C73.39154647 7.29874293 85.44399897 7.31701539 97.49658203 7.30541992 C104.15204807 7.29917463 110.80724277 7.31093603 117.46264231 7.34186524 C121.66331699 7.36038961 125.86321542 7.357325 130.06387591 7.33769763 C133.31659841 7.32910881 136.56911697 7.35332627 139.82177734 7.37231445 C140.96722015 7.36054672 142.11266296 7.34877899 143.29281616 7.33665466 C155.2731372 7.47284496 166.44634721 11.41286912 175 20 C183.96337065 30.42459609 186.62546757 41.00612762 186.390625 54.54296875 C186.38496521 55.79257889 186.37930542 57.04218903 186.37347412 58.32966614 C186.35502214 61.6129238 186.31924271 64.89535845 186.2746582 68.17834473 C186.2333527 71.54392556 186.21538876 74.90962807 186.1953125 78.27539062 C186.15144163 84.85057556 186.08467792 91.42522066 186 98 C184.89025314 98.07418655 184.89025314 98.07418655 183.75808716 98.14987183 C180.36159014 98.38130718 176.96599939 98.62416576 173.5703125 98.8671875 C172.40669189 98.94477295 171.24307129 99.0223584 170.04418945 99.10229492 C142.78976376 101.0894968 116.83401299 115.38350873 98.6315918 135.64575195 C76.79683063 160.9993861 70.64835111 190.31512728 72 223 C73.36199992 240.0842164 80.30880887 259.53544002 90.73828125 273.29296875 C92 275 92 275 92 277 C65.68473638 290.12432135 38.48764254 297.45290248 8.9375 297.375 C7.86740692 297.37518127 7.86740692 297.37518127 6.7756958 297.37536621 C-5.82273721 297.34518696 -17.75382446 296.00089314 -30 293 C-30.69673828 292.83983398 -31.39347656 292.67966797 -32.11132812 292.51464844 C-55.80836831 287.0594647 -79.05208525 276.3172793 -98 261 C-98.87060059 260.29641357 -98.87060059 260.29641357 -99.75878906 259.57861328 C-137.23048797 228.94474191 -160.01553314 188.1111487 -166 140 C-166.08171857 139.3623918 -166.16343714 138.72478359 -166.24763203 138.06785393 C-166.89531179 132.71121473 -167.15335239 127.45150861 -167.16113281 122.05883789 C-167.16609772 121.21527237 -167.17106262 120.37170685 -167.17617798 119.50257874 C-167.19065166 116.74259596 -167.19757499 113.98267056 -167.203125 111.22265625 C-167.20595238 110.27252592 -167.20877975 109.32239559 -167.21169281 108.34347343 C-167.22662164 103.31988121 -167.23589216 98.29631726 -167.24023438 93.27270508 C-167.24572415 88.1071316 -167.26978107 82.941821 -167.29820633 77.77632999 C-167.31689579 73.7809932 -167.32204156 69.78571913 -167.32357025 65.79034233 C-167.32658069 63.88669834 -167.33455429 61.98305502 -167.34775543 60.07945442 C-167.45222964 43.86357622 -165.7789737 31.22087352 -154.375 18.75 C-147.85391566 12.53163525 -138.79766289 7.8806887 -129.73085022 7.86869812 C-128.63866684 7.86468994 -127.54648346 7.86068176 -126.42120361 7.85655212 C-124.62341461 7.8573452 -124.62341461 7.8573452 -122.78930664 7.8581543 C-120.85217673 7.85282107 -118.91504682 7.84748186 -116.97791755 7.84191763 C-114.89514487 7.83672047 -112.81237849 7.83380706 -110.72960091 7.83133507 C-106.38898365 7.82542382 -102.04844834 7.80888303 -97.70787048 7.78999329 C-96.22182183 7.78365607 -94.73577314 7.77733045 -93.24972439 7.77101612 C-92.50555826 7.76785031 -91.76139213 7.7646845 -90.99467552 7.76142275 C-80.88944979 7.71934101 -70.78426262 7.68636086 -60.67895508 7.67407227 C-53.86207747 7.66569742 -47.04540309 7.64323004 -40.22862715 7.6047166 C-36.62123417 7.58493935 -33.01414508 7.57255682 -29.40669441 7.57755089 C-25.38420857 7.58305191 -21.36248148 7.5578209 -17.34008789 7.5300293 C-16.14358612 7.53663071 -14.94708435 7.54323212 -13.71432495 7.55003357 C-12.61932175 7.53756592 -11.52431854 7.52509827 -10.39613342 7.51225281 C-9.44505235 7.50986445 -8.49397127 7.5074761 -7.51406956 7.50501537 C-4.23873902 6.8470812 -3.06257058 5.57693655 -1 3 C-0.67 2.01 -0.34 1.02 0 0 Z " fill="#FCB340" transform="translate(199,190)"/>
<path d="M0 0 C7.43875758 6.18041083 13.30896918 12.93181593 18.76464844 20.89306641 C19.33699219 21.72322266 19.90933594 22.55337891 20.49902344 23.40869141 C33.8221141 44.14876038 37.77043209 71.71680987 32.63208008 95.71948242 C30.19914699 105.22324039 26.5944634 115.17880516 21.60058594 123.63134766 C19.59425922 127.19577916 19.24177376 128.88436058 19.76464844 132.89306641 C20.75464844 135.36806641 20.75464844 135.36806641 21.76464844 137.89306641 C16.81464844 143.83306641 16.81464844 143.83306641 11.76464844 149.89306641 C10.11464844 149.23306641 8.46464844 148.57306641 6.76464844 147.89306641 C3.33982845 147.37529835 2.13444898 147.64842041 -0.78613281 149.58056641 C-1.6975 150.34369141 -2.60886719 151.10681641 -3.54785156 151.89306641 C-23.4314104 167.66710584 -49.23151703 173.8622931 -74.23535156 171.89306641 C-88.05639423 170.12644947 -100.25631472 165.9063746 -112.23535156 158.89306641 C-113.21503906 158.34908203 -114.19472656 157.80509766 -115.20410156 157.24462891 C-127.55337735 149.96991185 -137.27772594 139.70011255 -145.23535156 127.89306641 C-145.78707031 127.09642578 -146.33878906 126.29978516 -146.90722656 125.47900391 C-150.08981036 120.57388765 -152.34795947 115.46087127 -154.42285156 110.01806641 C-154.66092529 109.39448242 -154.89899902 108.77089844 -155.14428711 108.12841797 C-159.21072809 96.94819959 -160.7669369 86.54887338 -160.67285156 74.64306641 C-160.66679398 73.6162677 -160.66679398 73.6162677 -160.66061401 72.56872559 C-160.43083629 44.80574137 -149.3120589 22.35952637 -129.73828125 2.90722656 C-123.79983423 -2.76359444 -117.43293477 -7.18706753 -110.23535156 -11.10693359 C-109.64141602 -11.43274414 -109.04748047 -11.75855469 -108.43554688 -12.09423828 C-73.3248872 -30.90419405 -30.48061463 -24.5670793 0 0 Z " fill="#00CEF9" transform="translate(445.2353515625,325.10693359375)"/>
<path d="M0 0 C0.92167969 0.75796875 1.84335937 1.5159375 2.79296875 2.296875 C20.43597488 17.52609891 33.50248379 38.74360337 39.8125 61.125 C40.00739014 61.8161792 40.20228027 62.5073584 40.40307617 63.21948242 C43.32813994 74.3125515 44.29543323 85.29604511 44.1953125 96.73828125 C44.1924826 97.98506149 44.18965271 99.23184174 44.18673706 100.5164032 C44.17565658 104.44853847 44.15057519 108.38043507 44.125 112.3125 C44.11380888 114.99934307 44.10560482 117.68619246 44.09765625 120.37304688 C44.07746964 126.91552764 44.03829756 133.45750072 44 140 C33.77 140 23.54 140 13 140 C12.96261719 136.05933594 12.92523438 132.11867187 12.88671875 128.05859375 C12.84848542 124.87270748 12.80741417 121.68688524 12.7644577 118.50106049 C12.72020199 115.16223249 12.68222999 111.82363873 12.65356445 108.48461914 C12.38204997 77.68794491 8.27426265 52.96778365 -14 30 C-14.53882813 29.38769531 -15.07765625 28.77539062 -15.6328125 28.14453125 C-26.82321628 15.85758036 -43.39772845 9.36606776 -59 5 C-59.90069214 4.73413086 -59.90069214 4.73413086 -60.81958008 4.46289062 C-83.57243989 -0.36741082 -108.16406725 5.56026109 -127.75 17.25 C-134.0979725 21.5042888 -139.57263936 26.65061868 -145 32 C-145.6703125 32.65742187 -146.340625 33.31484375 -147.03125 33.9921875 C-167.37582221 55.53893898 -169.59401269 84.62709246 -169.75 112.625 C-169.77822035 115.1927279 -169.808156 117.76043755 -169.83984375 120.328125 C-169.91613956 126.55225654 -169.95733509 132.77518891 -170 139 C-179.9 139 -189.8 139 -200 139 C-200.08458227 131.52856579 -200.16462887 124.05893031 -200.20700073 116.58743286 C-200.22786426 113.10592536 -200.25559041 109.62482638 -200.30175781 106.14355469 C-200.55688881 86.35756609 -200.26214177 67.14808495 -192.3125 48.6875 C-191.9714624 47.86902588 -191.6304248 47.05055176 -191.27905273 46.20727539 C-178.14557972 15.63998864 -152.98518521 -8.08966508 -122.265625 -20.56640625 C-80.93747121 -35.94966349 -33.92849624 -28.21775925 0 0 Z " fill="#D8D5EA" transform="translate(287,43)"/>
<path d="M0 0 C10.40358894 7.51180188 17.49912183 18.37651969 20 31 C20.91553017 39.60252872 20.70637833 48.06204803 17 56 C16.67128906 56.79535156 16.34257812 57.59070313 16.00390625 58.41015625 C13.67836317 63.61647587 11.33737639 66.60793232 7 70.3125 C4.67949554 72.79463163 3.11690661 74.61054694 2.82568359 78.07177734 C3.11204517 83.43794429 4.25700072 88.66707632 5.37109375 93.91259766 C6.5036188 99.472346 7.32544017 105.08071086 8.1875 110.6875 C8.36563232 111.76128906 8.54376465 112.83507812 8.72729492 113.94140625 C9.50177926 118.76342618 10.17056511 123.57726254 10.42578125 128.45703125 C10.46743408 129.21604736 10.50908691 129.97506348 10.55200195 130.75708008 C9.69203196 134.25135001 7.720065 135.72430241 5 138 C1.96472168 138.63491821 1.96472168 138.63491821 -1.45507812 138.64697266 C-2.73991089 138.66273346 -4.02474365 138.67849426 -5.34851074 138.69473267 C-6.74276592 138.68578259 -8.13701324 138.67552752 -9.53125 138.6640625 C-10.9694459 138.66743331 -12.40763901 138.67228814 -13.8458252 138.67855835 C-16.85533862 138.68591743 -19.86410841 138.6752569 -22.87353516 138.65185547 C-26.7241459 138.62336634 -30.57301423 138.63977577 -34.4235611 138.66971779 C-37.39199872 138.68781802 -40.36002571 138.68202068 -43.32847595 138.66907883 C-44.74779977 138.66575225 -46.16716131 138.66980564 -47.58644104 138.68147659 C-49.5725937 138.69422622 -51.55887772 138.67133509 -53.54492188 138.64697266 C-54.67345581 138.64299469 -55.80198975 138.63901672 -56.96472168 138.63491821 C-60.97388904 137.79628231 -62.48930166 136.17345427 -65 133 C-65.77986963 126.38193963 -64.33684747 119.81759671 -63.25 113.28125 C-63.07243164 112.18276733 -62.89486328 111.08428467 -62.71191406 109.95251465 C-62.14716225 106.46735581 -61.57371679 102.98369308 -61 99.5 C-60.61400708 97.12769786 -60.2285843 94.75530287 -59.84375 92.3828125 C-58.90243022 86.5874507 -57.95398148 80.79329025 -57 75 C-57.6194751 74.71495605 -58.2389502 74.42991211 -58.87719727 74.13623047 C-66.84056763 69.87383534 -71.36547585 58.17493975 -74 50 C-76.76815616 36.19470838 -74.05578768 24.11027175 -66.5625 12.21875 C-51.13595221 -9.68694786 -22.48791979 -14.16591 0 0 Z " fill="#030201" transform="translate(236,262)"/>
<path d="M0 0 C8.2181484 4.71291665 12.99182357 12.09853247 16 21 C17.25025412 31.14741137 15.00405148 40.1316102 9.0625 48.4375 C6.66522887 51.39312289 4.18577923 53.87614718 1 56 C0.34 56 -0.32 56 -1 56 C-1.40649212 66.518997 -0.15570808 76.44627363 1.4375 86.8125 C1.78565636 89.13911485 2.13118494 91.46611011 2.47657776 93.7931366 C2.69025964 95.22601997 2.90602506 96.65859498 3.12437439 98.09077454 C3.82836825 102.72288761 4.41835638 107.34685104 5 112 C-8.86 112 -22.72 112 -37 112 C-37 105.37994311 -36.85730691 99.75760044 -35.6875 93.39453125 C-35.55432373 92.62622482 -35.42114746 91.8579184 -35.28393555 91.06632996 C-34.86387159 88.64691722 -34.43300509 86.2296274 -34 83.8125 C-33.56790988 81.38453054 -33.13844247 78.95621383 -32.71606445 76.52653503 C-32.45483486 75.0251069 -32.18810183 73.52462156 -31.91479492 72.02534485 C-31.14796608 67.63379039 -30.70102794 63.4551682 -31 59 C-33.06026719 56.35418376 -33.06026719 56.35418376 -36 54 C-42.80089274 48.00467998 -47.67647658 42.016734 -48.48046875 32.70703125 C-49.02884329 21.26796226 -47.1689354 13.36346513 -39.375 4.6875 C-28.23818762 -5.55587407 -13.28060553 -7.4038219 0 0 Z " fill="#015E7F" transform="translate(225,273)"/>
<path d="M0 0 C24.03146111 -1.26481374 46.21135581 11.17626432 63.62890625 26.75 C68.83611899 31.61418742 72.98379648 37.13931782 77 43 C77.57234375 43.83015625 78.1446875 44.6603125 78.734375 45.515625 C92.05746567 66.25569398 96.00578365 93.82374347 90.86743164 117.82641602 C88.43449855 127.33017398 84.82981497 137.28573876 79.8359375 145.73828125 C77.82961079 149.30271275 77.47712533 150.99129417 78 155 C78.99 157.475 78.99 157.475 80 160 C76.7 163.96 73.4 167.92 70 172 C68.35 171.34 66.7 170.68 65 170 C61.57518001 169.48223194 60.36980054 169.755354 57.44921875 171.6875 C56.53785156 172.450625 55.62648438 173.21375 54.6875 174 C41.94816735 184.10637669 26.08096634 190.64970492 10 193 C12.38880424 190.3754585 14.96717102 188.69998721 18 186.875 C42.12276338 171.75041026 57.88363971 149.13226238 64.58447266 121.59838867 C70.94579642 93.50110545 65.41507458 65.04638319 50.16894531 40.7734375 C42.32442491 28.87231047 32.00363751 18.63356323 20 11 C19.175 10.46503906 18.35 9.93007813 17.5 9.37890625 C11.89914249 5.86961896 6.21120595 3.24660641 0 1 C0 0.67 0 0.34 0 0 Z " fill="#00BEF8" transform="translate(387,303)"/>
<path d="M0 0 C4.31916321 -0.12547851 8.63730567 -0.21520018 12.95776367 -0.2746582 C14.42116823 -0.29949426 15.88445296 -0.33337629 17.34741211 -0.37719727 C30.35862535 -0.75659799 41.71855661 1.2582646 52.00390625 9.99609375 C61.21839905 19.2466511 65.456625 29.95661847 65.45318604 42.93681335 C65.43254089 44.12684464 65.41189575 45.31687592 65.390625 46.54296875 C65.38496521 47.79257889 65.37930542 49.04218903 65.37347412 50.32966614 C65.35502214 53.6129238 65.31924271 56.89535845 65.2746582 60.17834473 C65.2333527 63.54392556 65.21538876 66.90962807 65.1953125 70.27539062 C65.15144163 76.85057556 65.08467792 83.42522066 65 90 C64.30664551 90.03440186 63.61329102 90.06880371 62.89892578 90.10424805 C48.3277682 90.88110345 34.85448833 92.3102378 21 97 C20.99857498 96.18726624 20.99714996 95.37453247 20.99568176 94.53717041 C20.9777564 86.8293299 20.93586368 79.12214916 20.86790943 71.41460037 C20.833806 67.45324577 20.80855569 63.49226999 20.80444336 59.53076172 C20.80012421 55.69837519 20.77136763 51.86684077 20.72656822 48.03472137 C20.7137074 46.58216083 20.70924445 45.1294977 20.71384621 43.67688751 C20.74572903 30.54097432 17.53551096 19.24261316 9 9 C6.65702495 6.74152569 4.25954876 4.61190194 1.7578125 2.53125 C1.17773438 2.0259375 0.59765625 1.520625 0 1 C0 0.67 0 0.34 0 0 Z " fill="#FC9801" transform="translate(320,198)"/>
<path d="M0 0 C2.94824473 2.10731924 5.49117131 4.38991814 8 7 C8.55429687 7.556875 9.10859375 8.11375 9.6796875 8.6875 C17.40243337 16.98657018 19.3804206 26.2874488 19.27734375 37.328125 C18.46602167 48.06957232 12.95637401 57.57999577 5.125 64.8125 C-0.57747701 69.50289616 -5.73195145 71.84942132 -13 73 C-12.97905273 73.85231201 -12.95810547 74.70462402 -12.93652344 75.58276367 C-12.86814756 78.76029433 -12.81810262 81.93744871 -12.78027344 85.11547852 C-12.7602201 86.48800023 -12.73296972 87.86043717 -12.69824219 89.23266602 C-12.64945448 91.21072044 -12.62911124 93.18941119 -12.609375 95.16796875 C-12.58842773 96.35672607 -12.56748047 97.5454834 -12.54589844 98.77026367 C-13.09191975 102.6537669 -14.23893291 104.26422084 -17 107 C-19.9375 108.0625 -19.9375 108.0625 -23 108 C-25.65209961 106.57226562 -25.65209961 106.57226562 -28 104 C-28.73900592 100.92946528 -28.67719866 97.92698814 -28.62890625 94.78125 C-28.63131821 93.88635864 -28.63373016 92.99146729 -28.63621521 92.06945801 C-28.63523694 90.1798865 -28.62184793 88.29028628 -28.59692383 86.40087891 C-28.56261571 83.50975112 -28.57626434 80.62168015 -28.59570312 77.73046875 C-28.58880452 75.89321616 -28.579132 74.05597146 -28.56640625 72.21875 C-28.57136612 71.35511841 -28.57632599 70.49148682 -28.58143616 69.60168457 C-28.4642673 63.62618452 -28.4642673 63.62618452 -26.12182617 60.46679688 C-23.5873427 58.7147342 -21.79972222 58.34853968 -18.75 58 C-11.43203202 56.85017281 -6.31616295 55.04829972 -1.625 49.125 C2.67909233 42.76242873 4.07551303 36.61821728 3 29 C0.78584073 22.27844508 -2.84222487 16.66740732 -9 13 C-15.78547744 10.27830089 -23.30639037 9.72960647 -30.41015625 11.65234375 C-36.71450979 14.48262193 -40.5787987 19.30986898 -43.75 25.3125 C-45.04424301 29.13051689 -45.73888698 32.77980704 -46.27734375 36.765625 C-47.20861106 39.64500286 -48.43111435 40.47983546 -51 42 C-53.4375 42.5 -53.4375 42.5 -56 42 C-58.97422077 40.01718615 -60.66074878 38.46013724 -61.48828125 34.8984375 C-62.04695392 25.09772274 -58.04720568 15.89637351 -51.75 8.5625 C-37.90191816 -5.5607093 -17.67893631 -10.61806009 0 0 Z " fill="#000405" transform="translate(403,333)"/>
<path d="M0 0 C8.7841047 2.25233454 15.16101858 7.06300885 19.78125 14.7890625 C20.1834375 15.51867187 20.585625 16.24828125 21 17 C21.928125 18.6396875 21.928125 18.6396875 22.875 20.3125 C25.70944007 29.60316468 24.29068112 38.40543567 20 47 C17.05237462 51.80503316 13.73143194 55.84571204 9 59 C8.34 59 7.68 59 7 59 C6.59350788 69.518997 7.84429192 79.44627363 9.4375 89.8125 C9.78565636 92.13911485 10.13118494 94.46611011 10.47657776 96.7931366 C10.69025964 98.22601997 10.90602506 99.65859498 11.12437439 101.09077454 C11.82836825 105.72288761 12.41835638 110.34685104 13 115 C-0.86 115 -14.72 115 -29 115 C-29 114.67 -29 114.34 -29 114 C-19.76 114 -10.52 114 -1 114 C-1.42152344 110.98875 -1.84304687 107.9775 -2.27734375 104.875 C-2.68788332 101.9393098 -3.09822357 99.0035918 -3.50854492 96.06787109 C-3.79251639 94.03691749 -4.07669313 92.00599258 -4.36108398 89.97509766 C-4.77121865 87.04597479 -5.18060052 84.11674753 -5.58984375 81.1875 C-5.71592514 80.28821777 -5.84200653 79.38893555 -5.97190857 78.46240234 C-6.69049423 73.31291523 -7.36800585 68.16084852 -8 63 C-7.49210937 62.67128906 -6.98421875 62.34257812 -6.4609375 62.00390625 C2.83126519 55.58288978 7.59608774 46.97966669 10 36 C11.33840741 24.56890818 8.59101893 15.12892187 2.05078125 5.75390625 C0.91175828 3.85271177 0.43265681 2.16328403 0 0 Z " fill="#014B65" transform="translate(217,270)"/>
<path d="M0 0 C2.375 1 2.375 1 4 3 C4.45314453 6.17201171 4.70191508 7.99265696 4 11 C1.5816209 13.76386182 0.03342666 14.79835577 -3.5625 15.5 C-6.9249123 14.8102744 -8.0486167 13.81866476 -10 11 C-10.56783945 7.02512383 -10.62340519 4.93510779 -8.375 1.5625 C-5.30182885 -0.45932313 -3.61752119 -0.52755517 0 0 Z " fill="#000405" transform="translate(385,457)"/>
</svg>
