<?xml version="1.0" encoding="UTF-8"?>
<svg version="1.1" viewBox="0 0 2048 2048" width="512" height="512" xmlns="http://www.w3.org/2000/svg">
<path transform="translate(542)" d="m0 0h955l25 7 19 7 16 8 15 9 14 11 10 9 12 12 13 17 10 17 8 16 7 20 5 21 2 27v641l25 1 30 3 27 5 30 8 28 10 19 8 19 10 18 10 18 12 14 10 12 10 11 9 8 7 4 4v2l4 2v2l4 2 7 8 10 11 11 14 13 18 12 19 14 26 10 22 7 18 8 26 7 30 4 26 2 32v22l-2 34-5 31-7 29-10 30-11 26-12 24-14 23-12 17-10 13-13 15-9 10-15 15-8 7-13 11-19 14-15 10-26 15-27 13-24 9-25 8-27 6-25 4-29 3h-18v291l-2 27-6 24-7 19-12 23-12 17-11 13-13 13-12 9-18 12-23 11-27 9-15 4h-951l-30-8-19-7-16-8-15-9-14-11-16-15-7-8-11-14-12-20-8-17-6-18-5-23-1-8-1-832-263-1-18-3-17-6-15-8-14-11-10-10-11-15-8-16-5-16-2-10-1-11v-217l2-18 5-18 8-16 12-17 13-13 13-9 15-8 15-5 18-3h264v-455l4-22 6-19 6-15 10-19 11-16 11-13 4-5h2l2-4 22-18 18-11 21-10 21-7z" fill="#56A3FC"/>
<path transform="translate(384,616)" d="m0 0 3 1 40 1h647l23 5 20 8 8 4 8 6 4 2 4 4 8 7 5 6v3l3 1 1 5h2v3h2l7 14 5 17v3h2l2 21v183l-1 4-1 36-2 14-4 14-8 16-7 11-8 10-7 7-11 8-16 9-15 6-18 4-2 1-10 1h-161l-1 140h-5l-4-2-5-5-7-5-4-2-5-5-6-3-4-4-4-2-5-5-8-6-5-2-1-3-4-2-8-5v-2l-4-1-13-10-11-8-38-28-14-10-19-14-13-9-10-6-3-1h-288l-34 1-1-2-263-1-18-3-17-6-15-8-14-11-10-10-11-15-8-16-5-16-2-10-1-11v-217l2-18 5-18 8-16 12-17 13-13 13-9 15-8 15-5 18-3h264z" fill="#FCB85C"/>
<path transform="translate(1641,822)" d="m0 0h20l39 3 30 5 32 8 29 10 21 9 19 10 18 10 18 12 14 10 12 10 11 9 8 7 4 4v2l4 2v2l4 2 7 8 10 11 11 14 13 18 12 19 14 26 10 22 7 18 8 26 7 30 4 26 2 32v22l-2 34-5 31-7 29-10 30-11 26-12 24-14 23-12 17-10 13-13 15-9 10-15 15-8 7-13 11-19 14-15 10-26 15-27 13-24 9-25 8-27 6-25 4-29 3h-47l-32-4-28-6-17-5v-2l-7-1-21-7-26-11-20-10-17-10-11-7-12-8-13-10-13-11-8-7-8-8-6-5-7-8-13-14-11-14-9-12-13-20-7-11-14-28-8-18-9-25-7-25-6-31-4-39v-43l4-36 5-26 7-26 10-29 12-27 13-23 11-18 10-14 13-17 11-12 7-8 5-6 8-7 11-10 8-7 15-12 13-9 15-10 17-10 16-8 20-9 19-7 21-7 34-9 25-4z" fill="#FBE5E9"/>
<path transform="translate(542)" d="m0 0h955l25 7 19 7 16 8 15 9 14 11 10 9 12 12 13 17 10 17 8 16 7 20 5 21 2 27v91l-1 2h-659l-608-1-1 2v-111l4-22 6-19 6-15 10-19 11-16 11-13 4-5h2l2-4 22-18 18-11 21-10 21-7z" fill="#3B6683"/>
<path transform="translate(384,1771)" d="m0 0 1 4 1151-1h116l1 1v92l-2 27-6 24-7 19-12 23-12 17-11 13-13 13-12 9-18 12-23 11-27 9-15 4h-951l-30-8-19-7-16-8-15-9-14-11-16-15-7-8-11-14-12-20-8-17-6-18-5-23-1-8z" fill="#3B6683"/>
<path transform="translate(1641,822)" d="m0 0h20l39 3 30 5 32 8 29 10 21 9 19 10 18 10 18 12 14 10 12 10 11 9 8 7 4 4v2l4 2v2l4 2 7 8 10 11 11 14 13 18 12 19 14 26 10 22 7 18 8 26 7 30 4 26 2 32v22l-2 34-5 31-7 29-10 30-11 26-12 24-14 23-12 17-10 13-13 15-9 10-15 15-8 7-13 11-19 14-15 10-26 15-27 13-24 9-25 8-27 6-25 4-29 3h-47l-32-4-28-6-17-5v-2l-7-1-21-7-26-11-20-10-17-10-11-7-12-8-13-10-13-11-8-7-8-8-6-5-7-8-13-14-11-14-9-12-13-20-7-11-14-28-8-18-9-25-7-25-6-31-4-39v-43l4-36 5-26 7-26 10-29 12-27 13-23 11-18 10-14 13-17 11-12 7-8 5-6 8-7 11-10 8-7 15-12 13-9 15-10 17-10 16-8 20-9 19-7 21-7 34-9 25-4zm1 98-27 3-26 5-21 6-22 8-24 11-22 13-17 12-11 9-12 11-18 18-11 14-11 15-9 15-9 16-7 16-8 21-8 30-4 25-1 9v42l4 29 5 23 11 33 9 20 13 23 8 12 9 12 11 13 15 16 13 12 14 11 13 9 15 9 19 10 19 8 24 8 26 6 29 4h42l25-3 27-6 20-6 21-8 19-9 23-14 16-12 11-9 13-12 12-12 11-14 10-13 10-15 14-26 8-19 7-21 6-25 2-9 4-36v-20l-4-34-6-26-6-20-8-21-9-19-12-20-8-12-11-14-12-13-18-18-11-9-16-12-18-11-18-10-16-7-24-9-23-6-22-4-27-3z" fill="#FD5B78"/>
<path transform="translate(1641,822)" d="m0 0h20l39 3 30 5 32 8 29 10 21 9 19 10 18 10 18 12 14 10 12 10 11 9 8 7 4 4v2l4 2v2l4 2 7 8 10 11 11 14 13 18 12 19 14 26 10 22 7 18 8 26 7 30 4 26 2 32v22l-2 34-5 31-7 29-10 30-11 26-12 24-14 23-12 17-10 13-13 15-9 10-15 15-8 7-13 11-19 14-15 10-26 15-27 13-24 9-25 8-27 6-25 4-29 3h-47l-32-4-23-5-2-2 9-2h6l3-2 3 1v-2l7-3 5-3 4-1 14-5 8-4 10-4 17-9 5-3h3v-2l8-4h2v-2l6-3 8-6 11-7 7-6h3v-2l8-5 4-4 4-1v-2h3l1-3 4-3h2l2-4h2v-2h2l2-6 1-2h2v-2l25-10 17-8 23-14 16-12 11-9 13-12 11-11 11-14 10-13 10-15 14-26 8-19 7-21 6-25 2-9 4-36v-20l-4-34-6-26-6-20-8-21-9-19-12-20-8-12-11-14-12-13v-2l4 2v2l3 1-1-4-3-2v-3l-4-2-1-2-3-1-5-5v-2l-4-2-1-3h-3v-2l-4-2-3-3-4-2-1-3-3-1-1-2-4-1v-2l-6-1-2-5-7 1-1-5h-4l-2-3h-5l-1-5-7 1-4-4-3-1v-2l-9-1v-3h-8l-4-2v-2l-6-1-7-6h-2l-5-5-3-1-4-4v-2l-4-2v-2l-5-2-12-8-2-3-5-3-3-3-3-1v-2l-5-2-3-2v-2l-4-1-20-12-23-12-15-7-13-6-5-2-12-5-4-2-6-1v-2l-4 1-8-2 3-3 25-5 28-3z" fill="#E64865"/>
<path transform="translate(1652,272)" d="m0 0h1v550l-46 4-30 5-39 11-3-1v-469l-1-96h-1148l-1 32h-1v-33l1-2h1143l124 1z" fill="#3382E6"/>
<path transform="translate(1015,619)" d="m0 0h62l20 4 20 8 8 4 8 6 4 2 4 4 8 7 5 6v3l3 1 1 5h2v3h2l7 14 5 17v3h2l2 21v183l-1 4-1 36-2 14-4 14-8 16-7 11-8 10-7 7-11 8-16 9-15 6-18 4h-65l5-4 6-2 18-10 13-10 5-5h2l2-4h2l2-4 9-13 8-15 4-11 3-14 1-6 1-28v-188l-1-21-4-18-6-15-6-11-7-10-9-10-13-10-14-9-18-9z" fill="#EE9B3B"/>
<path transform="translate(593,708)" d="m0 0h11l9 4 8 7 4 7 2 8v49l5-1 22-13 18-10 5-2h13l10 5 9 10 2 6v15l-4 8-8 8-25 15-16 9h-2v3l6 2 25 14 12 8 9 9 4 10-1 11-5 10-9 8-7 3h-13l-17-8-23-13-10-5v50l-4 11-6 8-9 5-3 1h-13l-8-3-9-8-4-8-2-12v-18l1-27-20 11-17 10-10 5-9 2-9-1-10-6-8-10-2-6v-13l5-9 7-7 25-15 17-10 1-2-19-10-23-14-7-6-6-12v-11l4-10 8-8 10-5h12l17 8 14 8 17 10 3 1-1-11v-35l2-11 5-8 9-8z" fill="#3B6683"/>
<path transform="translate(903,708)" d="m0 0h11l9 4 8 7 5 10 1 6v49l10-5 24-14 14-7 3-1h12l11 6 6 7 4 8 1 10-3 9-4 6-9 8-20 12-19 11-1 2 6 2 23 13 14 9 7 6 5 10v14l-4 8-6 7-8 5-4 1h-11l-12-5-27-15-12-6v50l-3 10-6 8-7 5-6 2h-13l-9-4-7-6-5-9-1-4v-52l-6 2-24 14-14 8-6 2h-14l-9-5-5-5-4-5-3-9v-8l4-11 7-7 16-10 24-14 4-4-17-9-23-14-10-9-4-7-1-4v-10l4-9 7-8 8-5 11-2 11 4 28 15 13 8 3 1v-52l3-9 9-10 7-4z" fill="#3B6683"/>
<path transform="translate(284,708)" d="m0 0h10l12 6 7 8 3 8 1 10v36l-1 8 7-3 26-15 18-9h13l8 4 8 7 5 10 1 9-2 8-6 9-7 6-16 10-17 10-7 4-1 2 5 2 17 9 17 10 11 9 5 9v15l-5 10-7 7-9 4h-13l-17-8-21-12-9-5h-3v48l-3 11-7 9-9 5-3 1h-13l-9-4-8-7-4-7-2-13 1-44-5 1-10 6-17 10-16 8-3 1h-13l-9-5-5-5-5-7-2-8 1-10 3-8 7-7 16-10 24-14 3-2 1-3-6-2-23-13-11-7-10-9-4-7-1-4v-8l3-10 9-10 10-5h12l16 8 12 7 11 6 12 6v-52l3-9 5-7 11-7z" fill="#3B6582"/>
<path transform="translate(1536,1559)" d="m0 0 11 1 25 7 20 4 32 4 29 1v199h-924v-1l806-1v-212z" fill="#3382E6"/>
<path transform="translate(1777,955)" d="m0 0 5 2 6 3 3 1v-2l6 2 18 12 17 13 15 14 17 17 11 14 6 8 10 15 10 18 10 22 9 26 6 25 2 9 4 34v20l-4 36-6 27-7 22-5 13-9 20-10 18-8 12-8 11-13 16-9 10-13 13-11 9-14 11-15 10-21 12-4 2-3-1 4-2-9 1-2-1 1-5 3-1 2-4 3-5 5-4 5-5 2-3h2v-2h2v-2l8-7 10-13 5-10 8-13 3-5h2l2-5 7-11 4-8 4-10 3-9 3-10 4-17 4-22 1-9-1-4 2-6v-11l-2-41-1-19v-20l1-14-1-11h2l-2-7v-14l-2-6v-26h2l-3-6v-6l3-6-1-6 1-1h5l1 3 6 1-2-8 2-2-4-1-3-4-2-6-4-9-4-4-5-8-3-4-5-5v-2l-4-2-8-7-5-4-4-3-3-6-4-3v-2l-4-2-9-9-3-2v-2l-5-2-6-5-1-2h-2l-2-4 1-1-2-1z" fill="#D9CBCF"/>
<path transform="translate(1645,977)" d="m0 0h15l10 5 7 8 3 7 1 185 9 6 16 9 24 14 28 16 12 8 7 8 3 7v13l-6 12-7 6-9 4h-11l-10-4-18-10-24-14-28-16-19-11-11-7-8-7-4-8-1-6v-200l2-9 6-8 8-6z" fill="#3B6683"/>
<path transform="translate(925,1882)" d="m0 0h183l9 2 7 4 6 7 4 8v14l-4 9-5 7-12 6-9 1h-38l-143-1-10-5-7-8-4-10v-11l4-9 7-8 8-5z" fill="#EFFBFE"/>
<path transform="translate(928,108)" d="m0 0 184 1 10 4 6 5 6 12v13l-3 8-7 9-10 5-4 1-26 1-159-1-10-4-8-8-4-8-1-4v-10l3-8 4-6 6-5 7-4z" fill="#EFFBFE"/>
<path transform="translate(874,1049)" d="m0 0h28l4 1v141h-5l-4-2-5-5-7-5-4-2-5-5-6-3-4-4-4-2-5-5-8-6-5-2-1-3-4-2-8-5v-2l-4-1-2-9v-76l1-2z" fill="#EE9B3C"/>
<path transform="translate(1754,942)" d="m0 0 11 3 18 8 8 5v3l-5-1-9-5v2l4 2-2 1 1 3 5 2 5 5 4 2 9 9v2l4 2 9 8 3 6 6 4 7 7 6 4v2l4 2 4 6 4 5 3 6 4 4 6 14 2 3h3v3h-2l3 9-7-2-1-2h-5l1 7-3 5v6l2 6-1 5v21l2 9v11l1 7h-2l1 2 1 15-1 13v16l1 18 2 47v6l-2 6 1 6-4 23-3 15-2 7-5 18-4 7-4 11-7 10-4 7h-2l-1 4-6 9-6 10-4 8-12 14-3 3h-2v2h-2v2h-2l-2 4-8 8h-2l-2 5-5 5-2 5h7l6-1-4 3h-2v2l-18 8h-2v-8l6-6h2l1-3 5-5h2l2-4 14-18 9-14 4-6 6-11 10-19 12-26 10-30 2-7 7-31 4-27 3-36-1-21-1-17-2-22-2-8-2-14-4-21-7-24-5-16-5-11-5-14-10-19-6-12-7-11v-2h-2l-6-10v-2h-2l-7-11-7-8-4-6v-2l-4-2-4-6-4-4z" fill="#ECD7DB"/>
<path transform="translate(1113,1884)" d="m0 0 7 1 8 7 5 8 1 3v14l-4 9-5 7-12 6h-11l-3-3v-3l14-5 5-5 6-9 1-9-3-8-9-9-1-3z" fill="#FAF9F9"/>
<path transform="translate(912,1889)" d="m0 0 5 1-1 6-4 13 1 8 7 9 7 8-1 4h-6l-9-6-6-8-3-8v-11l4-9z" fill="#FAF9F9"/>
<path transform="translate(1116,111)" d="m0 0 6 2 6 5 6 12v13l-3 8-7 9-7 3-3-1-1-3 9-13 3-6v-10l-3-6-5-4-3-4v-4z" fill="#F9F7F8"/>
<path transform="translate(909,120)" d="m0 0h6l-1 6-3 6v9l5 9 7 8-1 4-5 1-8-7-5-8-2-6v-10l3-8z" fill="#F9F8F8"/>
<path transform="translate(1840,873)" d="m0 0 5 2 15 9 17 12 16 13 11 9 8 7-4 2-1-2-4-2-2-4-7-7-6-1-1-2-4-1-2-5-3-2 1 3-3-1 1-4h-2l-2 1-4-3-5-2-5-4v-3l-4-1v-2h-2v-2l-4 1-2-4-7-1 1-4z" fill="#FB5D79"/>
<path transform="translate(1832,989)" d="m0 0 7 3 25 25 3 4v4l-5-2-4-5v-2h-3l-1-4h-2l-6-7-4-4v-2l-4-2-7-6z" fill="#E7D4D8"/>
<path transform="translate(1871,1030)" d="m0 0 2 1v2l5 2 7 10 8 13 2 9-3-1-1-4-4-2-4-8v-2h-2l-3-7-1-3-6-5-1-3z" fill="#E8D5D9"/>
<path transform="translate(1876,896)" d="m0 0 6 4 16 13 12 11 2 2-4 1-1-2-4-2-2-4-7-7-6-1-1-2-4-1-2-5-3-2 1 3-3-1 1-4z" fill="#FC5F7B"/>
<path transform="translate(1905,1311)" d="m0 0 1 4-12 24h-2l1-5 3-5 8-17z" fill="#E6D3D7"/>
<path transform="translate(1925,1237)" d="m0 0h1v16l-2 6-2-1 1-10 1-9z" fill="#EAD6DA"/>
<path transform="translate(1780,952)" d="m0 0 11 6v3l-5-1-7-4z" fill="#E8D4D8"/>
<path transform="translate(1809,857)" d="m0 0 4 1 16 8 2 2-3 3v-3l-2-1-7-3v-2l-8-2v-2z" fill="#F96A81"/>
</svg>
