<svg width="144" height="130" viewBox="0 0 144 130" fill="none" xmlns="http://www.w3.org/2000/svg">
<g filter="url(#filter0_d_1_767)">
<path fill-rule="evenodd" clip-rule="evenodd" d="M51.3416 110.952C31.3292 94.6985 4 67.8376 4 42.4272C4 2.36962 41.4 -15.8427 72 16.9422C102.6 -15.8427 140 2.36285 140 42.4272C140 67.8308 112.664 94.6917 92.6584 110.952C83.6008 118.326 79.072 122 72 122C64.928 122 60.3992 118.32 51.3416 110.952ZM59.0324 52.4992C59.6353 51.6406 60.1567 50.9063 60.5964 50.2963C60.9772 50.9606 61.4056 51.7265 61.9156 52.655L73.5436 73.7344C74.6724 75.7813 75.7876 77.7876 76.896 79.2449C78.086 80.8038 80.1736 82.9388 83.526 83.0066C86.8784 83.0676 89.0544 81.0071 90.2988 79.4956C91.4684 78.079 92.6448 76.1202 93.8552 74.114L94.2292 73.4836C95.732 70.9961 96.6772 69.4304 97.5136 68.3053C98.282 67.2683 98.7308 66.9294 99.064 66.7464C99.3972 66.5566 99.914 66.3465 101.206 66.2245C102.607 66.0889 104.429 66.0889 107.353 66.0889H112.8C114.153 66.0889 115.45 65.5533 116.406 64.6C117.363 63.6467 117.9 62.3537 117.9 61.0055C117.9 59.6572 117.363 58.3642 116.406 57.4109C115.45 56.4576 114.153 55.922 112.8 55.922H107.129C104.497 55.922 102.165 55.922 100.22 56.105C98.0514 56.2464 95.9398 56.857 94.032 57.8944C92.1598 58.9908 90.5494 60.4802 89.3128 62.2594C88.15 63.8251 86.9532 65.8178 85.6 68.0681L85.2736 68.6103C84.682 69.5863 84.1924 70.3997 83.7504 71.1046L82.3224 68.5493L70.7012 47.4835C69.654 45.5857 68.6136 43.6879 67.5528 42.2984C66.3968 40.7869 64.4112 38.7739 61.2288 38.6112C58.0532 38.435 55.8636 40.2176 54.5512 41.6002C53.3476 42.8677 52.1032 44.6368 50.8588 46.4126L48.7508 49.4084C47.2072 51.6112 46.2348 52.9804 45.3984 53.97C44.63 54.8782 44.2016 55.1764 43.882 55.3391C43.5692 55.5086 43.0796 55.6848 41.8896 55.7932C40.5976 55.9085 38.9112 55.9152 36.2184 55.9152H31.2C29.8474 55.9152 28.5502 56.4508 27.5938 57.4041C26.6373 58.3575 26.1 59.6505 26.1 60.9987C26.1 62.3469 26.6373 63.6399 27.5938 64.5932C28.5502 65.5465 29.8474 66.0821 31.2 66.0821H36.4224C38.85 66.0821 41.0056 66.0821 42.8144 65.9194C44.7864 65.7364 46.6972 65.3433 48.5944 64.3605C50.4984 63.3709 51.9196 62.0357 53.1912 60.531C54.3676 59.1483 55.5984 57.3928 56.9924 55.4069L59.0324 52.4992Z" fill="#FD4452"/>
</g>
<defs>
<filter id="filter0_d_1_767" x="0" y="0" width="144" height="130" filterUnits="userSpaceOnUse" color-interpolation-filters="sRGB">
<feFlood flood-opacity="0" result="BackgroundImageFix"/>
<feColorMatrix in="SourceAlpha" type="matrix" values="0 0 0 0 0 0 0 0 0 0 0 0 0 0 0 0 0 0 127 0" result="hardAlpha"/>
<feOffset dy="4"/>
<feGaussianBlur stdDeviation="2"/>
<feComposite in2="hardAlpha" operator="out"/>
<feColorMatrix type="matrix" values="0 0 0 0 0 0 0 0 0 0 0 0 0 0 0 0 0 0 0.25 0"/>
<feBlend mode="normal" in2="BackgroundImageFix" result="effect1_dropShadow_1_767"/>
<feBlend mode="normal" in="SourceGraphic" in2="effect1_dropShadow_1_767" result="shape"/>
</filter>
</defs>
</svg>
