<?xml version="1.0" encoding="UTF-8"?>
<svg version="1.1" xmlns="http://www.w3.org/2000/svg" width="512" height="512">
<path d="M0 0 C6.93110238 2.92505238 12.09732799 10.25987925 17.0390625 15.75 C19.54669434 18.52728703 22.14331373 21.18886298 24.8125 23.8125 C28.03541866 26.99513218 31.04997632 30.27656749 33.99609375 33.71484375 C36.05680781 36.06478084 38.17474187 38.35033126 40.30786133 40.63427734 C45.35507403 46.03925322 50.15657508 51.55060795 54.7890625 57.3203125 C57.1093495 60.13253315 59.53071134 62.81797263 62 65.5 C66.41377112 70.3064072 70.5636031 75.27110083 74.65869141 80.34960938 C76.20187037 82.248388 77.76190797 84.13255739 79.32421875 86.015625 C85.8838032 93.92407669 92.3333941 101.87977746 98.53466797 110.07373047 C100.2743719 112.36067883 102.02973469 114.63525112 103.78515625 116.91015625 C111.40180082 126.8041848 118.82381128 136.76720568 125.76171875 147.14990234 C126.97788287 148.96695513 128.20621983 150.77519688 129.4375 152.58203125 C150.03571848 182.94621888 170.75809988 216.07795269 180.046875 251.9296875 C183.70081772 265.44927555 190.92706118 277.0034816 198 289 C198.85829717 290.46601456 199.71639876 291.93214367 200.57421875 293.3984375 C201.72645707 295.36201236 202.88162975 297.32367567 204.04321289 299.28173828 C207.97671507 305.9169209 211.80272064 312.61280628 215.625 319.3125 C215.96512115 319.90856049 216.30524231 320.50462097 216.65567017 321.1187439 C218.40414786 324.18340401 220.15179983 327.24853393 221.89892578 330.31396484 C225.28374059 336.25271397 228.67230894 342.18931857 232.0625 348.125 C232.3935675 348.70472565 232.72463501 349.28445129 233.06573486 349.88174438 C237.85534429 358.26713086 242.66911864 366.63832205 247.5 375 C252.66823143 383.94559059 257.81416306 392.90363381 262.9375 401.875 C263.26860779 402.45471558 263.59971558 403.03443115 263.94085693 403.63171387 C267.31520501 409.54015653 270.68688966 415.45011327 274.05581665 421.36164856 C275.74474981 424.32488587 277.43459656 427.2876012 279.125 430.25 C279.45713501 430.83210236 279.78927002 431.41420471 280.13146973 432.01394653 C284.19881097 439.13897632 288.29551112 446.24593248 292.44042969 453.32617188 C294.16090344 456.26703757 295.87153558 459.21347914 297.58203125 462.16015625 C299.92983548 466.19691088 302.33134209 470.19607094 304.76171875 474.18359375 C305.96662907 476.20544127 307.17107242 478.22756715 308.375 480.25 C308.94114014 481.15403564 309.50728027 482.05807129 310.09057617 482.98950195 C313.99482866 489.63364516 315.07276156 495.32162789 314 503 C311.8298641 507.58139801 309.58674788 509.92406678 305 512 C301.3972836 512.44653874 297.81525303 512.40880111 294.18885803 512.38768005 C293.08626017 512.39306559 291.9836623 512.39845113 290.84765238 512.40399987 C287.14579925 512.4183297 283.44430116 512.41116312 279.74243164 512.40405273 C277.09135298 512.40975366 274.4403 512.41661597 271.78923035 512.42485046 C265.33151336 512.44204915 258.87389364 512.44287628 252.4161597 512.43763756 C247.16746411 512.43359663 241.91879728 512.43503849 236.67010307 512.44038582 C235.54969645 512.44150845 235.54969645 512.44150845 234.40665535 512.44265376 C232.8892674 512.44418524 231.37187946 512.44572358 229.85449152 512.44726873 C215.62378165 512.46099763 201.39312674 512.45555334 187.16241812 512.44408352 C174.14315043 512.43415057 161.12402484 512.44709214 148.10477907 512.47101771 C134.7365303 512.49539956 121.36834775 512.50501885 108.00007719 512.49836498 C100.49482716 512.49487074 92.98968643 512.49711831 85.4844532 512.51461601 C79.09543836 512.52932658 72.70660979 512.52998856 66.31759865 512.5125451 C63.05803098 512.50402308 59.79886532 512.50407621 56.53930283 512.51719666 C53.00526071 512.53033756 49.47212812 512.51891901 45.93812561 512.50120544 C44.39362302 512.51561295 44.39362302 512.51561295 42.81791836 512.53031152 C36.89445475 512.46907723 33.51600527 511.9385005 29 508 C25.68140273 503.61065874 25.21604588 499.95393783 25.296875 494.55859375 C26.72984855 487.3061554 31.06167625 481.15753792 35 475 C33.7315625 475.30744141 33.7315625 475.30744141 32.4375 475.62109375 C31.303125 475.89050781 30.16875 476.15992188 29 476.4375 C27.88625 476.70433594 26.7725 476.97117187 25.625 477.24609375 C18.83970777 478.65725905 12.22074223 479.16921674 5.3125 479.23828125 C4.50055679 479.24802979 3.68861359 479.25777832 2.85206604 479.26782227 C-15.08410952 479.43882111 -32.47375245 479.32120498 -50 475 C-50.78262207 474.80744629 -51.56524414 474.61489258 -52.37158203 474.41650391 C-57.3225204 473.15209741 -62.16758187 471.65713719 -67 470 C-67.99604248 469.66379639 -67.99604248 469.66379639 -69.01220703 469.32080078 C-79.46240335 465.74659654 -89.25627895 461.17846361 -99 456 C-100.16144531 455.39542969 -101.32289062 454.79085938 -102.51953125 454.16796875 C-117.64013769 445.95963954 -130.67614413 434.90902762 -143 423 C-143.72316406 422.32839844 -144.44632813 421.65679687 -145.19140625 420.96484375 C-176.28217759 391.38150374 -196.86217234 344.68148466 -198.2895813 301.97227478 C-198.36855059 298.43942585 -198.38567487 294.90863006 -198.375 291.375 C-198.3737915 290.62954926 -198.37258301 289.88409851 -198.37133789 289.11605835 C-198.31832497 277.02345629 -197.50492391 265.62707035 -194 254 C-193.73687012 253.11940918 -193.47374023 252.23881836 -193.20263672 251.33154297 C-183.81380966 220.81652668 -168.42559033 192.60773294 -151 166 C-150.51031738 165.2476709 -150.02063477 164.4953418 -149.51611328 163.72021484 C-142.02157153 152.22759575 -134.13369889 141.04799991 -126 130 C-125.23171875 128.95585937 -124.4634375 127.91171875 -123.671875 126.8359375 C-110.15622981 108.66490341 -95.98893422 91.01746112 -81.18261719 73.88354492 C-78.25969115 70.49578566 -75.41999336 67.05752853 -72.625 63.5625 C-67.77695638 57.58206663 -62.49643508 52.03163804 -57.21875 46.43359375 C-54.885702 43.9560619 -52.59816145 41.45234158 -50.375 38.875 C-43.25760249 30.62528925 -35.79250442 22.69151335 -28.01953125 15.05859375 C-26.02993005 13.03050897 -24.20159949 10.92490893 -22.375 8.75 C-15.72917296 1.18072092 -10.44648157 -1.87896447 0 0 Z " fill="#FEB555" transform="translate(198,0)"/>
<path d="M0 0 C0 66.33 0 132.66 0 201 C1.98 201.33 3.96 201.66 6 202 C7.93810144 202.70680718 9.85225422 203.4815715 11.7421875 204.30859375 C12.87188965 204.79972656 14.0015918 205.29085937 15.16552734 205.796875 C16.40219046 206.34336043 17.63867605 206.89024772 18.875 207.4375 C20.17255992 208.00680426 21.47025226 208.57580678 22.76806641 209.14453125 C26.38142398 210.73169487 29.98946664 212.33062923 33.59619141 213.93280029 C36.1270172 215.05639081 38.65915097 216.17699844 41.19140625 217.29736328 C45.69975104 219.29351951 50.20421381 221.29822561 54.70611572 223.30886841 C56.47370468 224.09774902 58.24204748 224.8849429 60.01116943 225.67037964 C62.51799671 226.78466007 65.02111646 227.90689286 67.5234375 229.03125 C68.26194946 229.35795181 69.00046143 229.68465363 69.76135254 230.02125549 C84.12105206 236.51327753 84.12105206 236.51327753 87 243 C87.43599135 246.11658217 87.43043131 249.20183677 87.41992188 252.3449707 C87.42839142 253.27894684 87.43686096 254.21292297 87.44558716 255.17520142 C87.46896132 258.25886707 87.46997905 261.34203374 87.46875 264.42578125 C87.4758523 266.57423603 87.4835514 268.72268892 87.49182129 270.87113953 C87.5052678 275.37435171 87.50683449 279.87738859 87.50097656 284.38061523 C87.49508633 290.14085316 87.52564384 295.90024655 87.56609344 301.66032124 C87.59199374 306.09826663 87.5948456 310.53600946 87.59120178 314.97402 C87.59289144 317.09702867 87.60251906 319.22004685 87.62034607 321.34298134 C87.64257689 324.31817043 87.63281184 327.2916605 87.61523438 330.2668457 C87.62849762 331.13724991 87.64176086 332.00765411 87.65542603 332.9044342 C87.57211371 338.99888327 86.04821343 343.36117197 82 348 C79.38696795 349.87099016 76.70418268 351.12038635 73.75 352.375 C72.88028564 352.76727783 72.01057129 353.15955566 71.11450195 353.5637207 C68.42287587 354.76906917 65.72120604 355.94883109 63.01544189 357.12200928 C59.90522036 358.4769209 56.80400892 359.85208574 53.70169067 361.22497559 C44.9064575 365.11681727 36.10271626 368.98897374 27.28152466 372.82165527 C23.28279007 374.55989634 19.29239399 376.31274512 15.31884766 378.10791016 C14.5862825 378.43632401 13.85371735 378.76473785 13.09895325 379.10310364 C11.73413157 379.71589944 10.37185513 380.33440992 9.01274109 380.95976257 C5.68400766 382.44765659 3.73245695 383 0 383 C0 414.68 0 446.36 0 479 C-23.2318662 479 -23.2318662 479 -32.1875 477.3125 C-33.19232422 477.13315918 -34.19714844 476.95381836 -35.23242188 476.76904297 C-44.03248904 475.1306131 -52.53701143 472.90213568 -61 470 C-61.99604248 469.66379639 -61.99604248 469.66379639 -63.01220703 469.32080078 C-73.46240335 465.74659654 -83.25627895 461.17846361 -93 456 C-94.16144531 455.39542969 -95.32289062 454.79085938 -96.51953125 454.16796875 C-111.64013769 445.95963954 -124.67614413 434.90902762 -137 423 C-137.72316406 422.32839844 -138.44632813 421.65679687 -139.19140625 420.96484375 C-170.28217759 391.38150374 -190.86217234 344.68148466 -192.2895813 301.97227478 C-192.36855059 298.43942585 -192.38567487 294.90863006 -192.375 291.375 C-192.3737915 290.62954926 -192.37258301 289.88409851 -192.37133789 289.11605835 C-192.31832497 277.02345629 -191.50492391 265.62707035 -188 254 C-187.73687012 253.11940918 -187.47374023 252.23881836 -187.20263672 251.33154297 C-177.81380966 220.81652668 -162.42559033 192.60773294 -145 166 C-144.51031738 165.2476709 -144.02063477 164.4953418 -143.51611328 163.72021484 C-136.02157153 152.22759575 -128.13369889 141.04799991 -120 130 C-119.23171875 128.95585937 -118.4634375 127.91171875 -117.671875 126.8359375 C-104.15622981 108.66490341 -89.98893422 91.01746112 -75.18261719 73.88354492 C-72.25969115 70.49578566 -69.41999336 67.05752853 -66.625 63.5625 C-61.77695638 57.58206663 -56.49643508 52.03163804 -51.21875 46.43359375 C-48.885702 43.9560619 -46.59816145 41.45234158 -44.375 38.875 C-37.25760249 30.62528925 -29.79250442 22.69151335 -22.01953125 15.05859375 C-20.02993005 13.03050897 -18.20159949 10.92490893 -16.375 8.75 C-11.38982513 2.99344704 -8.00529361 0 0 0 Z " fill="#FD7762" transform="translate(192,0)"/>
<path d="M0 0 C7.23735929 0 8.92549494 1.2909953 14 6 C17.10184995 9.16854464 20.07149774 12.45625186 23.0390625 15.75 C25.54669434 18.52728703 28.14331373 21.18886298 30.8125 23.8125 C34.03541866 26.99513218 37.04997632 30.27656749 39.99609375 33.71484375 C42.05680781 36.06478084 44.17474187 38.35033126 46.30786133 40.63427734 C51.35507403 46.03925322 56.15657508 51.55060795 60.7890625 57.3203125 C63.1093495 60.13253315 65.53071134 62.81797263 68 65.5 C72.41377112 70.3064072 76.5636031 75.27110083 80.65869141 80.34960938 C82.20187037 82.248388 83.76190797 84.13255739 85.32421875 86.015625 C91.8838032 93.92407669 98.3333941 101.87977746 104.53466797 110.07373047 C106.2743719 112.36067883 108.02973469 114.63525112 109.78515625 116.91015625 C117.40180082 126.8041848 124.82381128 136.76720568 131.76171875 147.14990234 C132.97788287 148.96695513 134.20621983 150.77519688 135.4375 152.58203125 C155.58987903 182.28899929 174.07156399 213.65655002 185 248 C185.29406738 248.87865723 185.58813477 249.75731445 185.89111328 250.66259766 C186.3181958 251.98396729 186.3181958 251.98396729 186.75390625 253.33203125 C187.01631104 254.12971924 187.27871582 254.92740723 187.54907227 255.74926758 C188.0409655 258.20447264 187.79464042 259.65099323 187 262 C186.030625 261.34 185.06125 260.68 184.0625 260 C179.84759919 257.6109874 175.74986213 256.90696912 171 258 C166.42390613 260.63599525 163.98069487 262.99131366 161.44140625 267.6015625 C160.81621094 268.71789062 160.19101562 269.83421875 159.546875 270.984375 C158.88532929 272.19786903 158.22387335 273.41141201 157.5625 274.625 C156.85964295 275.88889521 156.15518859 277.15190335 155.44921875 278.4140625 C153.99874492 281.00912876 152.55432757 283.60742551 151.11376953 286.20800781 C147.98124245 291.8468065 144.73800368 297.42133302 141.5 303 C136.32980037 311.94444536 131.18568121 320.90355785 126.0625 329.875 C125.73105988 330.45538025 125.39961975 331.0357605 125.05813599 331.63372803 C122.70463724 335.75536978 120.35219747 339.87761551 118 344 C115.31322789 348.7087491 112.62598595 353.41722918 109.9375 358.125 C109.44021896 358.99581207 109.44021896 358.99581207 108.93289185 359.88421631 C103.52970671 369.34377713 98.09181055 378.78300545 92.64208984 388.21582031 C88.09511895 396.09056906 83.57216037 403.9788441 79.0625 411.875 C78.73205688 412.45338623 78.40161377 413.03177246 78.06115723 413.62768555 C73.97338214 420.78291112 69.89394183 427.94281621 65.82217407 435.10716248 C62.84689521 440.33840408 59.84415397 445.55357469 56.84130859 450.76904297 C55.07831131 453.8625866 53.35743516 456.97617145 51.64453125 460.09765625 C50.61790741 461.91967666 49.59060879 463.74131709 48.5625 465.5625 C48.12711914 466.38363281 47.69173828 467.20476562 47.24316406 468.05078125 C44.88160828 472.16091585 43.0980558 474.36539274 38.546875 475.953125 C37.03994056 476.33788421 35.52406484 476.68997192 34 477 C32.93136719 477.24105469 31.86273438 477.48210937 30.76171875 477.73046875 C20.19865115 479.30083585 11.06875841 479 0 479 C0 447.32 0 415.64 0 383 C5.28 381.02 10.56 379.04 16 377 C19.37681308 375.56055875 22.71642323 374.10901343 26.046875 372.57421875 C27.34011688 371.98638359 27.34011688 371.98638359 28.65948486 371.38667297 C31.35860747 370.15855236 34.05439191 368.92331236 36.75 367.6875 C38.53102256 366.87515221 40.31227198 366.0633016 42.09375 365.25195312 C44.74884962 364.04265805 47.40357262 362.83258964 50.0567627 361.61911011 C54.56510173 359.55804015 59.07973745 357.51288879 63.60742188 355.49462891 C64.96882294 354.88685356 64.96882294 354.88685356 66.35772705 354.26679993 C68.08075317 353.49875412 69.80492996 352.73328252 71.53045654 351.97087097 C80.70302239 348.11222418 80.70302239 348.11222418 86 340 C86.42609112 336.83347157 86.42045325 333.70131654 86.40405273 330.50976562 C86.41434761 329.1037635 86.41434761 329.1037635 86.42485046 327.6693573 C86.44310098 324.58149931 86.4392838 321.49415017 86.43359375 318.40625 C86.43815598 316.25443354 86.44346168 314.10261855 86.44947815 311.95080566 C86.45840553 307.44517083 86.45598981 302.93971328 86.44604492 298.43408203 C86.4345487 292.66369208 86.45477902 286.89391347 86.48396206 281.12360382 C86.50231677 276.68145876 86.50203314 272.23946045 86.49632454 267.79728699 C86.49617127 265.66984702 86.50221987 263.54239714 86.51461601 261.41499329 C86.52951218 258.43968431 86.51885906 255.46550817 86.50170898 252.49023438 C86.51137695 251.61421066 86.52104492 250.73818695 86.53100586 249.83561707 C86.46391741 244.2705734 85.58844805 241.30050616 82 237 C80.33382303 235.63630372 80.33382303 235.63630372 78.45703125 234.859375 C77.73346436 234.52010986 77.00989746 234.18084473 76.2644043 233.83129883 C75.45527588 233.47447021 74.64614746 233.1176416 73.8125 232.75 C72.93827393 232.34869873 72.06404785 231.94739746 71.16333008 231.53393555 C67.786461 229.99758095 64.39424756 228.49738985 61 227 C59.41888434 226.29977959 57.83783379 225.59941215 56.25683594 224.89892578 C46.61087635 220.62942814 36.95324676 216.3869022 27.2815094 212.17611694 C23.28885117 210.43779496 19.29953573 208.69283062 15.31884766 206.92724609 C14.5862825 206.60334396 13.85371735 206.27944183 13.09895325 205.94572449 C11.73572263 205.34247338 10.37356923 204.73677935 9.01274109 204.12812805 C5.99280588 202.7943617 3.22161056 201.80540264 0 201 C0 134.67 0 68.34 0 0 Z " fill="#FC445F" transform="translate(192,0)"/>
<path d="M0 0 C0.86398911 0.38681442 1.72797821 0.77362885 2.6181488 1.17216492 C5.41431891 2.42844835 8.19918914 3.70785478 10.984375 4.98828125 C12.91314019 5.86103806 14.84258923 6.73228507 16.77270508 7.60205078 C20.62577862 9.34075924 24.47477013 11.088056 28.32080078 12.84228516 C33.10922781 15.0228511 37.91428136 17.16282753 42.73046875 19.28125 C44.68799096 20.14511364 46.64533236 21.00938592 48.60266113 21.87368774 C50.36791485 22.65199016 52.13461929 23.42699964 53.90136719 24.2019043 C70.55957666 31.62534205 70.55957666 31.62534205 73.734375 38.30078125 C74.18162707 41.4152836 74.16480393 44.50333065 74.15429688 47.64575195 C74.16276642 48.57972809 74.17123596 49.51370422 74.17996216 50.47598267 C74.20333632 53.55964832 74.20435405 56.64281499 74.203125 59.7265625 C74.2102273 61.87501728 74.2179264 64.02347017 74.22619629 66.17192078 C74.2396428 70.67513296 74.24120949 75.17816984 74.23535156 79.68139648 C74.22946133 85.44163441 74.26001884 91.2010278 74.30046844 96.96110249 C74.32636874 101.39904788 74.3292206 105.83679071 74.32557678 110.27480125 C74.32726644 112.39780992 74.33689406 114.5208281 74.35472107 116.64376259 C74.37695189 119.61895168 74.36718684 122.59244175 74.34960938 125.56762695 C74.36287262 126.43803116 74.37613586 127.30843536 74.38980103 128.20521545 C74.30648871 134.29966452 72.78258843 138.66195322 68.734375 143.30078125 C66.12134295 145.17177141 63.43855768 146.4211676 60.484375 147.67578125 C59.61466064 148.06805908 58.74494629 148.46033691 57.84887695 148.86450195 C55.15725087 150.06985042 52.45558104 151.24961234 49.74981689 152.42279053 C46.63959536 153.77770215 43.53838392 155.15286699 40.43606567 156.52575684 C31.63785828 160.41891459 22.83521351 164.30250775 14.00491333 168.12243652 C10.0539121 169.83401035 6.12421095 171.57328556 2.22900391 173.40869141 C-12.53721721 180.31118828 -12.53721721 180.31118828 -20.72265625 177.43847656 C-23.63137478 176.2066364 -26.44005655 174.83788582 -29.265625 173.42578125 C-31.54471138 172.3288267 -33.82613874 171.23672799 -36.109375 170.1484375 C-37.03973572 169.7027668 -37.03973572 169.7027668 -37.9888916 169.24809265 C-48.02999194 164.46691597 -58.27215048 160.11952732 -68.47070312 155.68780518 C-73.40514344 153.54226314 -78.33182851 151.38102315 -83.24658203 149.19073486 C-84.99786222 148.41880571 -86.76161303 147.67528805 -88.52734375 146.93701172 C-89.40003906 146.5504541 -90.27273437 146.16389648 -91.171875 145.765625 C-91.86603516 145.47163818 -92.56019531 145.17765137 -93.27539062 144.87475586 C-97.0295433 141.90578845 -99.75891629 137.75081664 -100.73333359 133.03931904 C-100.91171591 130.54726823 -100.94175308 128.09763712 -100.91259766 125.59936523 C-100.92135925 124.66334473 -100.93012085 123.72732422 -100.93914795 122.76293945 C-100.96102952 119.69043669 -100.94663011 116.61939059 -100.9296875 113.546875 C-100.93305857 111.40031154 -100.93791361 109.25374994 -100.94418335 107.10719299 C-100.95153923 102.6175817 -100.94088919 98.12846915 -100.91748047 93.63891602 C-100.88897672 87.8931715 -100.90541567 82.14859398 -100.93534279 76.40289211 C-100.95343554 71.97352856 -100.94764885 67.54444041 -100.93470383 63.11506844 C-100.9313762 60.99683556 -100.93543416 58.87857742 -100.94710159 56.76037407 C-100.95984447 53.79717915 -100.94038529 50.83585853 -100.91259766 47.87280273 C-100.92271881 47.00351639 -100.93283997 46.13423004 -100.94326782 45.23860168 C-100.83606687 39.04766996 -99.33371339 35.98696 -95.265625 31.30078125 C-92.84667969 29.61010742 -92.84667969 29.61010742 -90.1875 28.40625 C-89.13240234 27.91946777 -88.07730469 27.43268555 -86.99023438 26.93115234 C-85.74926802 26.38639476 -84.5076856 25.84303929 -83.265625 25.30078125 C-81.78944074 24.6420498 -80.31354622 23.98266879 -78.83789062 23.32275391 C-73.74302345 21.05725589 -68.63017724 18.83389654 -63.515625 16.61328125 C-48.9646678 10.31123332 -48.9646678 10.31123332 -34.5625 3.6796875 C-32.93006348 2.90467896 -32.93006348 2.90467896 -31.26464844 2.11401367 C-29.33874385 1.19041355 -27.41941519 0.25290116 -25.50878906 -0.7019043 C-24.24373535 -1.30772339 -24.24373535 -1.30772339 -22.953125 -1.92578125 C-22.25574219 -2.27205566 -21.55835938 -2.61833008 -20.83984375 -2.97509766 C-13.14491606 -5.13966097 -7.03295079 -3.28229093 0 0 Z " fill="#EBE3EF" transform="translate(205.265625,204.69921875)"/>
<path d="M0 0 C0.86398911 0.38681442 1.72797821 0.77362885 2.6181488 1.17216492 C5.41431891 2.42844835 8.19918914 3.70785478 10.984375 4.98828125 C12.91314019 5.86103806 14.84258923 6.73228507 16.77270508 7.60205078 C20.62577862 9.34075924 24.47477013 11.088056 28.32080078 12.84228516 C33.10922781 15.0228511 37.91428136 17.16282753 42.73046875 19.28125 C44.68799096 20.14511364 46.64533236 21.00938592 48.60266113 21.87368774 C50.36791485 22.65199016 52.13461929 23.42699964 53.90136719 24.2019043 C68.48626943 30.70140919 68.48626943 30.70140919 72.734375 35.61328125 C74.71388625 40.93321774 74.3819348 45.43525491 72.171875 50.55078125 C69.1769154 56.99327211 59.9604806 59.67244741 53.8125 62.42578125 C52.53715897 63.00188644 52.53715897 63.00188644 51.23605347 63.58963013 C48.48708111 64.83023768 45.73584303 66.06571979 42.984375 67.30078125 C41.09089744 68.15329291 39.19750596 69.00599576 37.30419922 69.85888672 C32.63879396 71.95918152 27.97124397 74.05465909 23.30285645 76.14831543 C20.93140897 77.21237301 18.560728 78.27811207 16.19042969 79.34472656 C12.41552832 81.04316798 8.63796271 82.73555601 4.859375 84.42578125 C3.76915039 84.915625 2.67892578 85.40546875 1.55566406 85.91015625 C0.5653418 86.35101563 -0.42498047 86.791875 -1.4453125 87.24609375 C-2.28819824 87.62266113 -3.13108398 87.99922852 -3.99951172 88.38720703 C-9.83381169 90.73928099 -15.33095899 91.25164678 -21.28442383 88.88647461 C-22.7696979 88.23438641 -24.24885253 87.56823896 -25.72265625 86.890625 C-26.93585793 86.3519001 -26.93585793 86.3519001 -28.17356873 85.80229187 C-30.81406002 84.62646491 -33.44600465 83.4327143 -36.078125 82.23828125 C-37.90604099 81.41921619 -39.73449779 80.60135707 -41.56347656 79.78466797 C-45.30003713 78.11503887 -49.033758 76.43925964 -52.76611328 74.76025391 C-57.94573177 72.43621347 -63.14624529 70.16300157 -68.35546875 67.90625 C-69.92022317 67.22612432 -71.48492185 66.54587038 -73.04956055 65.86547852 C-75.26393488 64.9026407 -77.47896079 63.94156014 -79.69692993 62.98703003 C-81.72818535 62.11167706 -83.75507473 61.2268793 -85.78125 60.33984375 C-86.91852539 59.84693848 -88.05580078 59.3540332 -89.22753906 58.84619141 C-93.72052544 56.56070412 -96.60978359 54.47677274 -99.078125 50.05078125 C-100.6089921 45.21646409 -101.40192269 41.29303184 -99.5625 36.44921875 C-93.35444829 25.93259383 -74.2542312 21.2757252 -63.515625 16.61328125 C-48.9646678 10.31123332 -48.9646678 10.31123332 -34.5625 3.6796875 C-32.93006348 2.90467896 -32.93006348 2.90467896 -31.26464844 2.11401367 C-29.33874385 1.19041355 -27.41941519 0.25290116 -25.50878906 -0.7019043 C-24.24373535 -1.30772339 -24.24373535 -1.30772339 -22.953125 -1.92578125 C-22.25574219 -2.27205566 -21.55835938 -2.61833008 -20.83984375 -2.97509766 C-13.14491606 -5.13966097 -7.03295079 -3.28229093 0 0 Z " fill="#FCF2F2" transform="translate(205.265625,204.69921875)"/>
<path d="M0 0 C0.33 0 0.66 0 1 0 C1.11602483 11.46588398 1.20478204 22.93162751 1.25906086 34.39797974 C1.2851166 39.72272529 1.32044145 45.04706819 1.37719727 50.37158203 C1.43166008 55.51335591 1.46145079 60.65474331 1.47438622 65.79678345 C1.48360047 67.75515829 1.50159397 69.7135128 1.52865028 71.67172241 C1.56513054 74.42223245 1.56993747 77.17116064 1.56762695 79.921875 C1.58560333 80.72532852 1.60357971 81.52878204 1.62210083 82.35658264 C1.56863173 88.26767928 -0.11874399 92.49516322 -4 97 C-6.6114558 98.87328149 -9.29588162 100.12041366 -12.25 101.375 C-13.11971436 101.76727783 -13.98942871 102.15955566 -14.88549805 102.5637207 C-17.57712413 103.76906917 -20.27879396 104.94883109 -22.98455811 106.12200928 C-26.09477964 107.4769209 -29.19599108 108.85208574 -32.29830933 110.22497559 C-41.0935425 114.11681727 -49.89728374 117.98897374 -58.71847534 121.82165527 C-62.71720993 123.55989634 -66.70760601 125.31274512 -70.68115234 127.10791016 C-71.4137175 127.43632401 -72.14628265 127.76473785 -72.90104675 128.10310364 C-74.26586843 128.71589944 -75.62814487 129.33440992 -76.98725891 129.95976257 C-80.31599234 131.44765659 -82.26754305 132 -86 132 C-86 102.96 -86 73.92 -86 44 C-82.37 42.68 -78.74 41.36 -75 40 C-71.61091103 38.55955469 -68.24667027 37.09824586 -64.890625 35.5859375 C-63.96844177 35.17433884 -63.04625854 34.76274017 -62.09613037 34.33866882 C-59.14577443 33.02109003 -56.19776851 31.6983562 -53.25 30.375 C-49.21431893 28.56727011 -45.17772156 26.76159762 -41.140625 24.95703125 C-40.16323364 24.51981247 -39.18584229 24.08259369 -38.17883301 23.63212585 C-32.84239439 21.25015979 -27.49325068 18.90944411 -22.109375 16.63671875 C-21.04299805 16.18570801 -19.97662109 15.73469727 -18.87792969 15.27001953 C-17.0339335 14.49631703 -15.18592396 13.73207038 -13.33300781 12.97998047 C-7.64769456 10.58927496 -3.39978391 7.99953695 -0.6875 2.1875 C-0.460625 1.465625 -0.23375 0.74375 0 0 Z " fill="#CDCCE3" transform="translate(278,251)"/>
<path d="M0 0 C4.65667911 0.77611319 7.57333899 1.48433332 11.7421875 3.30859375 C12.87188965 3.79972656 14.0015918 4.29085937 15.16552734 4.796875 C16.40219046 5.34336043 17.63867605 5.89024772 18.875 6.4375 C20.17255992 7.00680426 21.47025226 7.57580678 22.76806641 8.14453125 C26.38142398 9.73169487 29.98946664 11.33062923 33.59619141 12.93280029 C36.1270172 14.05639081 38.65915097 15.17699844 41.19140625 16.29736328 C45.69975104 18.29351951 50.20421381 20.29822561 54.70611572 22.30886841 C56.47370468 23.09774902 58.24204748 23.8849429 60.01116943 24.67037964 C62.51799671 25.78466007 65.02111646 26.90689286 67.5234375 28.03125 C68.26194946 28.35795181 69.00046143 28.68465363 69.76135254 29.02125549 C81.81090619 34.46886028 81.81090619 34.46886028 86 39.3125 C87.97951125 44.63243649 87.6475598 49.13447366 85.4375 54.25 C82.44252394 60.69252627 73.22610803 63.37161288 67.078125 66.125 C65.8029879 66.70110519 65.8029879 66.70110519 64.50209045 67.28884888 C61.75305773 68.52963176 59.00171931 69.76518789 56.25 71 C54.35435515 71.85257809 52.45876626 72.7052806 50.56323242 73.55810547 C47.72165533 74.83604628 44.87977471 76.11329293 42.03703308 77.38864136 C37.16532063 79.57430789 32.29820562 81.76925067 27.44039917 83.98565674 C25.54400052 84.85028441 23.64593423 85.71111443 21.74707031 86.5703125 C19.5234272 87.57686349 17.30252346 88.58949753 15.08496094 89.609375 C14.10430664 90.05023438 13.12365234 90.49109375 12.11328125 90.9453125 C11.28610596 91.32187988 10.45893066 91.69844727 9.60668945 92.08642578 C7 93 7 93 0 94 C0 62.98 0 31.96 0 0 Z " fill="#EAE3EF" transform="translate(192,201)"/>
<path d="M0 0 C6.03002224 2.67884263 10.18903751 8.26060603 14.42578125 13.140625 C17.97307529 17.08086664 21.75273311 20.76905057 25.57104492 24.44555664 C29.3989775 28.19099317 32.61207508 31.40334942 33.43359375 36.90234375 C33.44150672 43.05071801 33.4465054 47.31314296 29 52 C25.15623962 54.78639377 22.53263897 55.36727053 17.8125 55.25 C16.76707031 55.23453125 15.72164062 55.2190625 14.64453125 55.203125 C12 55 12 55 10 54 C9.9906543 55.18029785 9.98130859 56.3605957 9.97167969 57.57666016 C9.93169352 61.97156998 9.86591085 66.36578613 9.79248047 70.76025391 C9.7643208 72.65925154 9.74308142 74.5583653 9.72900391 76.45751953 C9.70750482 79.19363638 9.66081992 81.92836452 9.609375 84.6640625 C9.60753204 85.93003769 9.60753204 85.93003769 9.60565186 87.22158813 C9.47298975 92.60632806 8.56587237 95.72219059 5 100 C-0.22259857 104.05630398 -5.65340142 103.77397544 -12 103 C-16.58975551 100.82590529 -18.86435427 98.56115878 -21 94 C-21.46171192 90.84987132 -21.48838928 87.72303855 -21.51171875 84.54296875 C-21.53864555 83.18852409 -21.53864555 83.18852409 -21.56611633 81.80671692 C-21.62013021 78.93369156 -21.65408637 76.06083149 -21.6875 73.1875 C-21.72068096 71.23500309 -21.75517134 69.28252796 -21.79101562 67.33007812 C-21.8758516 62.55350484 -21.94270536 57.77697982 -22 53 C-22.99 53.66 -23.98 54.32 -25 55 C-30.55398223 55.68923878 -35.47110145 55.7242151 -40.5625 53.3125 C-43.79685428 50.24401004 -45.71371157 47.60898537 -46.50390625 43.16796875 C-46.52324219 42.18441406 -46.54257812 41.20085938 -46.5625 40.1875 C-46.60503906 39.21167969 -46.64757813 38.23585937 -46.69140625 37.23046875 C-44.80728005 28.42723501 -36.18590781 21.87431925 -29.99536133 15.73461914 C-28.43005292 14.18010427 -26.87581498 12.61508545 -25.32226562 11.04882812 C-24.31834952 10.04623256 -23.31381376 9.04425699 -22.30859375 8.04296875 C-21.40939209 7.14602295 -20.51019043 6.24907715 -19.58374023 5.32495117 C-13.39545691 -0.24350976 -8.17177785 -1.26950596 0 0 Z " fill="#457797" transform="translate(46,0)"/>
<path d="M0 0 C3.70652588 3.04928624 5.61517222 6.5613353 6.2721405 11.25828552 C6.4229706 14.50924707 6.44885881 17.73777785 6.42578125 20.9921875 C6.42960815 22.18409195 6.43343506 23.3759964 6.43737793 24.60401917 C6.44009293 27.11793871 6.43276077 29.63188671 6.41601562 32.14575195 C6.39462119 35.97997484 6.41582383 39.81231984 6.44140625 43.64648438 C6.43876253 46.0950562 6.43363665 48.54362685 6.42578125 50.9921875 C6.43387817 52.1319957 6.4419751 53.27180389 6.45031738 54.44615173 C6.37494305 60.89008557 5.88173156 66.28509111 1.89453125 71.55859375 C-2.03538786 74.91473797 -5.94749346 76.25443718 -11.12109375 75.93359375 C-15.34308693 75.13573677 -18.65299597 73.47964572 -21.2791748 70.00624084 C-24.68541035 63.78848363 -24.68626357 57.96663701 -24.63671875 50.9921875 C-24.64054565 49.79932632 -24.64437256 48.60646515 -24.64831543 47.37745667 C-24.65102778 44.8653173 -24.64371433 42.35314937 -24.62695312 39.84106445 C-24.605517 36.00472902 -24.62678986 32.17026234 -24.65234375 28.33398438 C-24.64970073 25.88671463 -24.64457628 23.43944605 -24.63671875 20.9921875 C-24.64481567 19.85035507 -24.6529126 18.70852264 -24.66125488 17.53208923 C-24.58447233 10.98695905 -24.01401688 6.87993117 -20.10546875 1.55859375 C-14.02480529 -4.09684848 -7.08748902 -3.24783102 0 0 Z " fill="#EBE3EF" transform="translate(377.10546875,347.44140625)"/>
<path d="M0 0 C4.36492736 2.40706674 5.93942071 4.83284673 7.8125 9.4375 C8.54520346 14.47483626 7.62027557 18.24512573 5.20703125 22.63671875 C1.9113554 26.89247944 -2.54684459 28.17382324 -7.6875 29 C-12.37661747 28.24639184 -15.64727219 26.60297396 -19.1875 23.4375 C-21.97287223 18.73718437 -22.86540686 14.86075487 -22.1875 9.4375 C-20.44294414 4.504976 -17.73316107 1.40475576 -13.0390625 -0.90234375 C-8.34602817 -2.57559861 -4.45447532 -1.90552555 0 0 Z " fill="#EBE3ED" transform="translate(375.1875,450.5625)"/>
</svg>
