<?xml version="1.0" encoding="UTF-8"?>
<svg version="1.1" xmlns="http://www.w3.org/2000/svg" width="512" height="512">
<path d="M0 0 C3.12384973 1.41317012 3.23529968 2.00943838 4.5078125 5.06640625 C4.85150879 5.88165771 5.19520508 6.69690918 5.54931641 7.53686523 C6.08177979 8.84892944 6.08177979 8.84892944 6.625 10.1875 C6.9761084 11.05125244 7.3272168 11.91500488 7.68896484 12.80493164 C8.434717 14.65030985 9.178784 16.49636974 9.92138672 18.34301758 C18.20425642 38.77801641 28.41038928 57.84286482 40.625 76.1875 C41.07697754 76.86828613 41.52895508 77.54907227 41.99462891 78.25048828 C53.19870212 95.03409996 65.48953622 111.07356 77.625 127.1875 C77.8111084 126.62482422 77.9972168 126.06214844 78.18896484 125.48242188 C85.96989934 102.03626631 95.48233999 82.33507456 112.625 64.1875 C113.65367187 63.06214844 113.65367187 63.06214844 114.703125 61.9140625 C129.16639058 46.64728217 149.36492209 35.49466186 169.625 30.1875 C170.66769043 29.89770264 170.66769043 29.89770264 171.73144531 29.60205078 C193.67906423 23.67222432 217.76999705 24.11328847 239.625 30.1875 C240.27887695 30.35878418 240.93275391 30.53006836 241.60644531 30.70654297 C262.4887389 36.28909757 280.08047856 48.54181143 295.625 63.1875 C296.63820313 64.10402344 296.63820313 64.10402344 297.671875 65.0390625 C313.65175265 80.06014749 323.89614794 101.29952612 329.625 122.1875 C329.96402344 123.36183594 330.30304688 124.53617187 330.65234375 125.74609375 C338.22654231 157.61357434 331.80125447 193.68100189 314.984375 221.4921875 C296.45315291 250.96812642 267.55137795 271.87916019 233.734375 280.1875 C210.79087103 285.01771136 188.06388306 283.56323781 165.625 277.1875 C165.74093506 277.74622803 165.85687012 278.30495605 165.97631836 278.88061523 C166.50927307 281.46122403 167.03591316 284.04308459 167.5625 286.625 C167.74490234 287.50349609 167.92730469 288.38199219 168.11523438 289.28710938 C172.6957365 311.85649255 173.22281391 338.75169944 167.625 361.1875 C167.41568848 362.0326416 167.20637695 362.8777832 166.99072266 363.74853516 C159.83168672 391.85269108 147.60953632 416.17418075 128.625 438.1875 C128.19960938 438.68137207 127.77421875 439.17524414 127.3359375 439.68408203 C120.99509184 446.98671531 114.3228276 453.28762654 106.625 459.1875 C105.71363281 459.91453125 104.80226563 460.6415625 103.86328125 461.390625 C68.60867709 488.90172128 22.63366504 500.72446738 -21.64282227 495.36474609 C-66.89012311 489.03461523 -107.73749479 466.21149943 -135.61279297 429.80175781 C-164.63112298 390.80422737 -176.56797551 342.56431905 -169.78515625 294.45898438 C-168.29311222 284.86061185 -166.1254198 275.50009343 -163.375 266.1875 C-163.14893066 265.41470703 -162.92286133 264.64191406 -162.68994141 263.84570312 C-153.21960969 232.39655702 -135.66506373 203.49158124 -116.375 177.1875 C-115.25242591 175.64205655 -114.13003601 174.09647929 -113.0078125 172.55078125 C-105.57689477 162.35721991 -97.91832682 152.35535275 -90.13378906 142.43017578 C-56.761083 99.87580628 -22.50539526 56.06405776 -5.1640625 4.12109375 C-3.99525159 1.25692841 -3.12988671 0.24709632 0 0 Z " fill="#F8415B" transform="translate(179.375,7.8125)"/>
<path d="M0 0 C19.77019055 15.50294365 33.59239755 36.00531316 40.3125 60.1875 C40.6321875 61.30898437 40.951875 62.43046875 41.28125 63.5859375 C48.42751656 93.03120247 41.40804809 123.39566565 25.95483398 148.88989258 C21.56107601 155.72721792 16.00914597 161.43453125 10.3125 167.1875 C9.70921875 167.85136719 9.1059375 168.51523438 8.484375 169.19921875 C-8.76470279 187.88571969 -36.81301182 198.46636993 -61.80859375 199.55859375 C-93.97016111 200.18184082 -122.09400129 189.98388536 -145.55810547 167.65161133 C-166.1270823 147.57237204 -178.43257801 119.65739299 -179.04101562 90.91088867 C-179.11034951 80.30674363 -178.60811862 70.43321854 -175.6875 60.1875 C-175.3471875 58.96289062 -175.006875 57.73828125 -174.65625 56.4765625 C-166.21935719 28.82863675 -147.08674393 4.7609432 -121.6328125 -9.06640625 C-82.05871599 -29.76605488 -36.00041423 -27.11299425 0 0 Z " fill="#F0F7FA" transform="translate(451.6875,73.8125)"/>
<path d="M0 0 C0.98081543 0.25692627 0.98081543 0.25692627 1.98144531 0.51904297 C22.8637389 6.10159757 40.45547856 18.35431143 56 33 C57.01320313 33.91652344 57.01320313 33.91652344 58.046875 34.8515625 C74.02675265 49.87264749 84.27114794 71.11202612 90 92 C90.50853516 93.76150391 90.50853516 93.76150391 91.02734375 95.55859375 C98.60154231 127.42607434 92.17625447 163.49350189 75.359375 191.3046875 C56.82815291 220.78062642 27.92637795 241.69166019 -5.890625 250 C-41.47196336 257.49080808 -75.54623444 250.38633211 -106 231 C-136.11532138 210.17907914 -154.78499017 180.6640012 -161.86865234 144.88134766 C-167.66075733 111.31799567 -159.48812197 76.64397026 -139.9375 48.9375 C-135.90678629 43.7008097 -131.53576625 38.801656 -127 34 C-126.31421875 33.24976563 -125.6284375 32.49953125 -124.921875 31.7265625 C-110.45860942 16.45978217 -90.26007791 5.30716186 -70 0 C-69.30487305 -0.19319824 -68.60974609 -0.38639648 -67.89355469 -0.58544922 C-45.94593577 -6.51527568 -21.85500295 -6.07421153 0 0 Z M-115 47 C-115.80953125 47.79921875 -116.6190625 48.5984375 -117.453125 49.421875 C-132.1311472 64.71575827 -140.76688502 84.47166821 -145 105 C-145.19207031 105.90234375 -145.38414062 106.8046875 -145.58203125 107.734375 C-149.28743896 136.68503711 -142.40445087 166.3914597 -125 190 C-121.67578774 194.09524013 -118.06332648 197.89364381 -114.34570312 201.63085938 C-113.19426457 202.80235201 -112.08464387 204.01469711 -110.984375 205.234375 C-95.48801427 222.07824536 -68.92649511 233.86537082 -46.17016602 235.16113281 C-26.87509862 235.50703221 -26.87509862 235.50703221 -8 232 C-6.95005859 231.70198486 -6.95005859 231.70198486 -5.87890625 231.39794922 C22.18156036 223.28254131 46.56042977 205.82330366 61.07373047 180.09667969 C75.01832954 154.50527876 81.38786688 124.56920072 73 96 C67.08772279 76.30174938 57.34351906 59.81379837 43 45 C42.21367187 44.18789062 41.42734375 43.37578125 40.6171875 42.5390625 C24.32108377 26.74131056 3.21562638 17.6650145 -19 14 C-20.08667969 13.81953125 -21.17335938 13.6390625 -22.29296875 13.453125 C-57.18751845 9.18782704 -90.59486676 22.25448833 -115 47 Z " fill="#323951" transform="translate(419,38)"/>
<path d="M0 0 C0.66 -0.0103125 1.32 -0.020625 2 -0.03125 C4.97695375 0.75950334 6.0429805 2.11836518 8 4.5 C8.97150726 7.19736855 9.74670616 9.73335805 10.43237305 12.50048828 C10.7441589 13.68918864 10.7441589 13.68918864 11.06224346 14.90190315 C11.72182166 17.43129928 12.36165079 19.96517224 13 22.5 C13.41458893 24.10910057 13.83007475 25.71797034 14.24649048 27.32659912 C15.54709412 32.37630001 16.81633905 37.43364169 18.08203125 42.4921875 C18.54564528 44.34019574 19.00932562 46.18818735 19.47306824 48.03616333 C20.43348411 51.86598291 21.3920176 55.69626783 22.34936523 59.52685547 C23.57633163 64.43492658 24.80983223 69.34133096 26.04488087 74.24737358 C26.99945194 78.0434723 27.94976813 81.84062653 28.89887047 85.63809586 C29.35228116 87.44938153 29.80721483 89.26028669 30.26371193 91.07079697 C30.89747514 93.58630845 31.52528899 96.10323263 32.15161133 98.62060547 C32.34012161 99.36340759 32.5286319 100.10620972 32.72285461 100.871521 C33.5507 104.22388158 34 107.01885617 34 110.5 C36.14574374 109.70694654 36.14574374 109.70694654 36.68261719 107.74438477 C36.88532227 106.98440186 37.08802734 106.22441895 37.296875 105.44140625 C37.53019531 104.58998047 37.76351562 103.73855469 38.00390625 102.86132812 C38.25011719 101.93771484 38.49632812 101.01410156 38.75 100.0625 C40.65585747 93.13851043 42.66325015 86.29096285 45 79.5 C47.18693736 73.11331845 49.1231645 66.68956932 50.9375 60.1875 C53.04282738 52.70947748 55.24660842 45.27110075 57.625 37.875 C57.90206787 36.97998779 58.17913574 36.08497559 58.46459961 35.1628418 C60.47427944 29.03382415 60.47427944 29.03382415 63.02734375 26.44140625 C65.9130456 25.06426933 67.84179641 25.04882806 71 25.5 C75.37629855 28.34668533 77.06825781 31.09028833 79.0078125 35.8828125 C79.25997528 36.49712128 79.51213806 37.11143005 79.77194214 37.74435425 C80.30113906 39.0410376 80.82350367 40.34052819 81.33935547 41.64257812 C82.11663481 43.60389206 82.91358381 45.55618983 83.71484375 47.5078125 C86.51905545 54.41816407 88.92779124 61.33746605 91 68.5 C91.60277267 68.48889694 92.20554535 68.47779388 92.82658386 68.46635437 C99.10437186 68.35567444 105.38188243 68.28029696 111.66040039 68.2253418 C114.00296284 68.20020875 116.34544695 68.16609692 118.68774414 68.12280273 C122.05634899 68.06210072 125.42391649 68.03377749 128.79296875 68.01171875 C130.36198189 67.97300911 130.36198189 67.97300911 131.96269226 67.93351746 C139.23093297 67.93071838 139.23093297 67.93071838 143.1652832 70.84301758 C145 73.5 145 73.5 145.5625 76.5 C144.87642343 80.15907504 143.57265686 81.85167676 141 84.5 C138.4369788 85.7815106 136.58152715 85.64803535 133.71166992 85.67700195 C132.60679733 85.68983719 131.50192474 85.70267242 130.36357117 85.71589661 C129.16464737 85.72328354 127.96572357 85.73067047 126.73046875 85.73828125 C124.88803337 85.75038887 124.88803337 85.75038887 123.00837708 85.76274109 C120.4049318 85.77659134 117.8014683 85.78730927 115.19799805 85.79516602 C111.21440279 85.80839491 107.2314172 85.85626517 103.24804688 85.90039062 C100.72136028 85.91051672 98.19466662 85.91903308 95.66796875 85.92578125 C94.47511765 85.94328934 93.28226654 85.96079742 92.05326843 85.97883606 C83.82709198 85.957239 83.82709198 85.957239 79.84814453 83.75756836 C78.01146358 81.51400313 76.83297428 79.64034226 75.76171875 76.953125 C75.24448242 75.68662109 75.24448242 75.68662109 74.71679688 74.39453125 C74.37712891 73.52183594 74.03746094 72.64914062 73.6875 71.75 C73.14899414 70.41775391 73.14899414 70.41775391 72.59960938 69.05859375 C71.72002666 66.87722861 70.85410104 64.69143928 70 62.5 C67.32204101 68.16399446 65.22529819 73.68238322 63.6875 79.75 C61.87372943 86.59496218 59.78836595 93.29928033 57.5 100 C55.30012998 106.45671554 53.26454269 112.91090349 51.5 119.5 C49.64544797 126.33866062 47.65003554 133.12305255 45.5 139.875 C45.22736328 140.77347656 44.95472656 141.67195312 44.67382812 142.59765625 C43.04793065 147.59394355 41.75320531 150.73983172 37 153.5 C34 154.0625 34 154.0625 31 153.5 C25.45236322 149.32270229 24.48444544 144.47441188 22.96972656 138.03417969 C22.70725632 136.98167023 22.44478607 135.92916077 22.17436218 134.84475708 C21.31317601 131.3743242 20.47699211 127.89836462 19.640625 124.421875 C19.04646356 122.00962473 18.45063553 119.59778439 17.85321045 117.18634033 C16.28634683 110.84468178 14.74013981 104.4981702 13.1987915 98.15026855 C11.02022948 89.18563201 8.80936931 80.22886747 6.60394287 71.27081299 C5.42932922 66.4993813 4.26246175 61.72615588 3.10162354 56.95135498 C2.57199987 54.78364606 2.04235813 52.61594155 1.51269531 50.44824219 C1.27167587 49.44981293 1.03065643 48.45138367 0.78233337 47.42269897 C0.56100235 46.51982147 0.33967133 45.61694397 0.1116333 44.68670654 C-0.0800581 43.89769329 -0.2717495 43.10868004 -0.46924973 42.29575729 C-0.84612479 40.49464574 -0.84612479 40.49464574 -2 39.5 C-2.43344727 40.68553467 -2.86689453 41.87106934 -3.31347656 43.0925293 C-4.92908414 47.5036339 -6.55715355 51.91005229 -8.18896484 56.31518555 C-8.89255308 58.21986011 -9.59278718 60.12577727 -10.28955078 62.03295898 C-11.29353805 64.7792437 -12.30963213 67.52078576 -13.328125 70.26171875 C-13.63558655 71.11086349 -13.9430481 71.96000824 -14.25982666 72.83488464 C-18.08578222 83.04289111 -18.08578222 83.04289111 -23 85.5 C-24.51515122 85.60989264 -26.03492989 85.6590546 -27.55395508 85.67700195 C-28.49866165 85.68983719 -29.44336823 85.70267242 -30.41670227 85.71589661 C-31.44063583 85.72328354 -32.4645694 85.73067047 -33.51953125 85.73828125 C-34.57025314 85.746353 -35.62097504 85.75442474 -36.70353699 85.76274109 C-38.93035224 85.77658815 -41.15718877 85.78730751 -43.3840332 85.79516602 C-46.78833276 85.81237781 -50.1916611 85.85625913 -53.59570312 85.90039062 C-55.75780535 85.91051745 -57.91991584 85.91903358 -60.08203125 85.92578125 C-61.60882256 85.95204338 -61.60882256 85.95204338 -63.16645813 85.97883606 C-67.57146244 85.96532984 -70.25037337 85.93735571 -74.11206055 83.68432617 C-76.7996036 80.57486702 -77.14098103 78.58844999 -77 74.5 C-73.64856081 68.92237875 -73.64856081 68.92237875 -69.96200562 67.97784424 C-67.46780568 67.80491942 -65.04160439 67.82522739 -62.54296875 67.9140625 C-61.18852409 67.92679703 -61.18852409 67.92679703 -59.80671692 67.93978882 C-56.93241308 67.97328455 -54.06095067 68.04855414 -51.1875 68.125 C-49.23506666 68.15510467 -47.28258919 68.1824796 -45.33007812 68.20703125 C-40.55229636 68.27306313 -35.77662931 68.37655653 -31 68.5 C-30.87768509 67.63255157 -30.75537018 66.76510315 -30.62934875 65.87136841 C-30.01335145 62.57152257 -29.10671223 59.69758009 -27.93041992 56.55810547 C-27.28921455 54.83634598 -27.28921455 54.83634598 -26.63505554 53.07980347 C-26.1715419 51.8546402 -25.70802826 50.62947693 -25.23046875 49.3671875 C-24.74806436 48.08503532 -24.26583348 46.80281785 -23.7837677 45.52053833 C-22.77474358 42.84112359 -21.76119586 40.16347065 -20.74487305 37.48681641 C-19.4458798 34.0635584 -18.16206454 30.63482507 -16.88204479 27.20443535 C-15.89174878 24.55756634 -14.89156047 21.91451756 -13.8885746 19.27243423 C-13.17970224 17.39821029 -12.48065706 15.52027896 -11.78178406 13.64230347 C-11.34485733 12.50076813 -10.9079306 11.35923279 -10.45776367 10.18310547 C-9.88937019 8.67802933 -9.88937019 8.67802933 -9.30949402 7.14254761 C-7.2320218 2.95022664 -4.90238157 -0.07659971 0 0 Z " fill="#FEFCFC" transform="translate(145,247.5)"/>
<path d="M0 0 C2.8125 1.5625 2.8125 1.5625 5 4 C6.46511628 10.06976744 6.46511628 10.06976744 5 13 C5.56460938 13.24363281 6.12921875 13.48726562 6.7109375 13.73828125 C22.38345365 22.37688657 32.464799 43.85318578 37.31640625 60.2734375 C43.77359931 84.37169276 39.99974663 110.19722982 28 132 C23.37437926 139.87990096 17.39130412 149.80434794 9 154 C4.9869676 154.53507099 3.46071967 154.33051628 0.125 151.9375 C-2.55158684 148.2375123 -2.47284449 146.49202267 -2 142 C-0.3125 139.3671875 -0.3125 139.3671875 2 136.875 C18.58784303 117.75725009 22.21154836 98.03559886 21.26074219 73.328125 C19.85876937 55.4332809 9.16744185 40.48385287 -3 28 C-6.55940253 29.18646751 -6.96985627 30.03701927 -8.97094727 33.10498047 C-9.5448671 33.97613495 -10.11878693 34.84728943 -10.71009827 35.74484253 C-11.62897072 37.16665329 -11.62897072 37.16665329 -12.56640625 38.6171875 C-13.20110336 39.58528351 -13.83580048 40.55337952 -14.48973083 41.55081177 C-16.52168381 44.65392126 -18.5421976 47.7642957 -20.5625 50.875 C-21.9282863 52.96533408 -23.29481366 55.05518417 -24.66210938 57.14453125 C-27.67455507 61.75040003 -30.67975769 66.36090102 -33.6787262 70.97555542 C-34.77601354 72.65680983 -35.88635651 74.32953477 -37 76 C-37.01416771 78.22999766 -36.94006619 80.46110894 -36.8125 82.6875 C-36.74964677 88.22429806 -36.98995493 91.99387359 -40.390625 96.4453125 C-44.47024213 100.38630186 -48.85640746 102.18301705 -54.5 102.5625 C-59.59208786 102.29866125 -63.22483995 100.35759156 -67 97 C-70.92133313 92.64787253 -71.64415665 88.10894624 -71.3828125 82.359375 C-70.5070671 76.96192378 -66.88709994 73.39269517 -62.75604248 70.05493164 C-60.75255531 68.85134914 -58.98885252 68.45299464 -56.71582031 67.93359375 C-50.71801674 65.99462111 -48.43041868 61.93370211 -45.234375 56.75 C-44.33419647 55.359021 -44.33419647 55.359021 -43.41583252 53.93994141 C-41.5035266 50.97438706 -39.62616441 47.98852058 -37.75 45 C-36.50625538 43.05318473 -35.26017982 41.10785655 -34.01171875 39.1640625 C-32.15768161 36.27597999 -30.30472402 33.38730075 -28.45861816 30.49414062 C-24.32672538 24.02572635 -20.12951911 17.60707552 -15.828125 11.25 C-15.29854187 10.45770996 -14.76895874 9.66541992 -14.22332764 8.84912109 C-13.72585022 8.12031738 -13.2283728 7.39151367 -12.71582031 6.640625 C-12.07111786 5.68978027 -12.07111786 5.68978027 -11.41339111 4.71972656 C-8.05075278 0.62827699 -5.31603427 -0.75943347 0 0 Z " fill="#F8D43C" transform="translate(438,77)"/>
<path d="M0 0 C1.505625 0.020625 3.01125 0.04125 4.5625 0.0625 C4.5625 6.0025 4.5625 11.9425 4.5625 18.0625 C2.726875 18.145 0.89125 18.2275 -1 18.3125 C-22.07160592 20.02471067 -40.71042051 29.37849926 -54.48828125 45.50390625 C-65.5301471 59.99773818 -71.00539437 74.38984168 -70.75 92.625 C-70.75322266 93.77935547 -70.75644531 94.93371094 -70.75976562 96.12304688 C-70.63517525 116.09148551 -63.54075791 133.39945967 -49.875 147.9375 C-47.4375 151.0625 -47.4375 151.0625 -46.8125 154.75 C-47.52846912 158.54463631 -48.40990196 159.74727797 -51.4375 162.0625 C-54.29265909 163.49007954 -56.27136233 163.38183984 -59.4375 163.0625 C-71.86319645 154.48896699 -79.23884343 138.6963961 -84.4375 125.0625 C-84.75460937 124.25167969 -85.07171875 123.44085938 -85.3984375 122.60546875 C-93.13361175 101.35288604 -91.08476462 75.93980852 -81.68237305 55.56835938 C-70.25568033 32.52990358 -51.85708014 14.01342406 -27.27587891 5.29589844 C-18.32351576 2.35504424 -9.51064676 -0.13028283 0 0 Z " fill="#60CEC5" transform="translate(379.4375,67.9375)"/>
<path d="M0 0 C3.5250187 1.95834372 4.74114054 3.2064857 5.99633789 7.05419922 C6.0016554 12.78364096 3.43817543 15.95870323 0.24609375 20.5703125 C-0.36580307 21.4872287 -0.97769989 22.4041449 -1.60813904 23.34884644 C-3.57485849 26.28686085 -5.56788351 29.20587237 -7.5625 32.125 C-8.84749976 34.03394808 -10.13072048 35.94409499 -11.41210938 37.85546875 C-16.58210111 45.55078823 -21.76229565 53.23613403 -27.06958008 60.83764648 C-28.35631508 62.705544 -29.64301879 64.57346307 -30.9296875 66.44140625 C-31.53297379 67.28909576 -32.13626007 68.13678528 -32.75782776 69.01016235 C-37.09508744 75.34996998 -38.05861611 79.41012227 -37.19140625 87.10546875 C-36.92702382 91.10357858 -37.99581992 93.31053956 -40.390625 96.4453125 C-44.47024213 100.38630186 -48.85640746 102.18301705 -54.5 102.5625 C-59.59208786 102.29866125 -63.22483995 100.35759156 -67 97 C-70.92133313 92.64787253 -71.64415665 88.10894624 -71.3828125 82.359375 C-70.5070671 76.96192378 -66.88709994 73.39269517 -62.75604248 70.05493164 C-60.75255531 68.85134914 -58.98885252 68.45299464 -56.71582031 67.93359375 C-50.71801674 65.99462111 -48.43041868 61.93370211 -45.234375 56.75 C-44.33419647 55.359021 -44.33419647 55.359021 -43.41583252 53.93994141 C-41.5035266 50.97438706 -39.62616441 47.98852058 -37.75 45 C-36.50625538 43.05318473 -35.26017982 41.10785655 -34.01171875 39.1640625 C-32.15768161 36.27597999 -30.30472402 33.38730075 -28.45861816 30.49414062 C-24.32672538 24.02572635 -20.12951911 17.60707552 -15.828125 11.25 C-15.29854187 10.45770996 -14.76895874 9.66541992 -14.22332764 8.84912109 C-13.72585022 8.12031738 -13.2283728 7.39151367 -12.71582031 6.640625 C-12.07111786 5.68978027 -12.07111786 5.68978027 -11.41339111 4.71972656 C-8.05075278 0.62827699 -5.31603427 -0.75943347 0 0 Z " fill="#343B53" transform="translate(438,77)"/>
<path d="M0 0 C5.61 0 11.22 0 17 0 C17.2087768 7.07310496 16.63548231 13.26587511 14.9375 20.125 C14.71416992 21.03443359 14.49083984 21.94386719 14.26074219 22.88085938 C9.81541248 40.11785211 1.75581543 56.25642616 -12 68 C-14.88861709 69.44430855 -16.79647701 69.37688506 -20 69 C-22.875 66.9375 -22.875 66.9375 -25 64 C-25.45583172 59.99519276 -25.51248447 57.79957068 -23.3125 54.3671875 C-22.549375 53.54476562 -21.78625 52.72234375 -21 51.875 C-7.42235599 36.2265518 -2.62566907 20.023395 0 0 Z " fill="#F8445D" transform="translate(461,162)"/>
<path d="M0 0 C5.28 0 10.56 0 16 0 C16.22042969 1.77890625 16.22042969 1.77890625 16.4453125 3.59375 C19.13539668 23.6319622 25.41051708 39.20310039 39.27734375 54.296875 C41.48566403 57.76208505 41.45118148 59.96311308 41 64 C39.13291495 66.36497439 37.67938569 67.66030715 35 69 C31.35829681 69.41302858 29.59927066 69.41348723 26.54296875 67.3046875 C11.16490684 51.44207638 -0.32452103 30.09388324 -0.0625 7.625 C-0.041875 5.10875 -0.02125 2.5925 0 0 Z " fill="#4CB0A4" transform="translate(291,162)"/>
<path d="M0 0 C3.47181398 3.47181398 3.67649352 6.45530503 3.875 11.25 C3.7935767 16.77049969 2.30798653 20.48867439 -1.5 24.5 C-5.95059825 27.92502561 -10.67330069 29.23486784 -16.26171875 28.9453125 C-21.64557715 27.87417837 -25.9383735 24.84585573 -29 20.3125 C-31.17232112 15.87087913 -31.28278128 11.32448872 -30.5 6.5 C-27.9106361 1.22168129 -23.99230822 -2.80922076 -18.65234375 -5.39453125 C-11.46612318 -7.83756051 -5.68902962 -4.3688481 0 0 Z " fill="#404B6A" transform="translate(397.5,150.5)"/>
<path d="M0 0 C16.00366118 0 30.6080329 4.16744996 45 11 C43.92333797 12.7541123 42.83836661 14.50312587 41.75 16.25 C41.14671875 17.22453125 40.5434375 18.1990625 39.921875 19.203125 C38.13945558 21.79705245 36.29898372 23.86377619 34 26 C33.17757812 25.66226563 32.35515625 25.32453125 31.5078125 24.9765625 C20.89408131 20.73597244 11.35470583 18.87343891 0 18 C0 12.06 0 6.12 0 0 Z " fill="#F8D43D" transform="translate(384,68)"/>
</svg>
