<?xml version="1.0" encoding="UTF-8"?>
<svg version="1.1" xmlns="http://www.w3.org/2000/svg" width="512" height="512">
<path d="M0 0 C17.15805963 13.43703465 27.36883197 32.23574466 30.53930664 53.64111328 C31.09098979 58.20665173 31.12686235 62.71885136 31.09765625 67.3125 C31.09553383 68.59398926 31.09553383 68.59398926 31.09336853 69.90136719 C31.08781962 72.60094873 31.07527697 75.30044399 31.0625 78 C31.05747839 79.84244671 31.05291664 81.68489473 31.04882812 83.52734375 C31.03786699 88.01826186 31.02063825 92.50911636 31 97 C31.62122742 97.20201523 32.24245483 97.40403046 32.88250732 97.61216736 C33.6956842 97.87929031 34.50886108 98.14641327 35.34667969 98.42163086 C36.1535321 98.68552109 36.96038452 98.94941132 37.79168701 99.22129822 C44.08776249 101.44143876 47.91640752 105.24728713 50.9375 111.125 C53.10863519 115.84997895 54.12940566 119.77747227 54.09765625 124.984375 C54.09443359 125.91894531 54.09121094 126.85351562 54.08789062 127.81640625 C54.07951172 128.78449219 54.07113281 129.75257813 54.0625 130.75 C54.05798828 131.73355469 54.05347656 132.71710938 54.04882812 133.73046875 C54.03706483 136.15370791 54.02062684 138.57682273 54 141 C55.19753906 141.11988281 56.39507812 141.23976562 57.62890625 141.36328125 C70.50184341 142.986206 82.92866547 151.00616256 91 161 C100.87493533 175.72359962 103.92277767 189.8996304 101.53125 207.4375 C98.46565403 221.45165303 89.86037049 233.45304734 78.16796875 241.69140625 C70.86462474 246.09973101 62.63207657 250 54 250 C54.02094727 250.57854736 54.04189453 251.15709473 54.06347656 251.75317383 C54.88437551 277.8634754 54.88437551 277.8634754 46.76171875 286.65234375 C42.63798643 289.80686182 36.30661566 294 31 294 C31.33 305.55 31.66 317.1 32 329 C53.58526478 337.99386032 73.76377669 340.35546196 95.7578125 331.5625 C108.92498144 325.54322277 119.03104083 316.36760917 125 303 C127.19651697 296.84843281 127.30548629 291.14426733 127.31884766 284.64868164 C127.32889328 283.52599884 127.3389389 282.40331604 127.34928894 281.24661255 C127.38007711 277.55113212 127.39714421 273.85572401 127.4140625 270.16015625 C127.43277762 267.59182617 127.4523513 265.02350221 127.4727478 262.45518494 C127.51880146 256.39577229 127.5562227 250.33636317 127.58942068 244.27686828 C127.62772005 237.37472438 127.67710957 230.47267355 127.72740483 223.57060826 C127.83056103 209.38047579 127.91987416 195.19028027 128 181 C126.83090088 180.78742554 126.83090088 180.78742554 125.63818359 180.57055664 C117.84881473 178.88595965 111.43901166 172.32319646 107 166 C96.98997608 149.3715838 95.02741474 129.54431297 99.625 110.75 C103.46042981 98.69579204 109.70447425 87.53098544 121.3125 81.5 C129.37947324 78.21851936 137.93893571 77.55199064 146.25 80.5625 C158.66286656 86.19019834 165.19615271 97.44088933 170.05078125 109.640625 C174.96199594 125.56133993 173.50709016 145.37240617 166.421875 160.33203125 C160.9700403 170.29022481 154.74664887 176.92303706 144 181 C143.01 181 142.02 181 141 181 C141.00460896 181.58915978 141.00921793 182.17831957 141.01396656 182.78533268 C141.12486102 197.18596839 141.20735685 211.58656572 141.25906086 225.98753452 C141.28473552 232.95205172 141.31967734 239.9162822 141.37719727 246.88061523 C141.43275771 253.61096538 141.46148447 260.34095729 141.47438622 267.07154655 C141.48357178 269.62978722 141.50150806 272.18801301 141.52865028 274.74612617 C141.75540868 297.01857932 139.23729526 312.72415005 123.8125 329.75 C105.86553639 346.45064669 82.33816045 351.84358506 58.51660156 351.140625 C48.82239806 350.59892329 39.82957769 347.93935005 31 344 C31 347.96 31 351.92 31 356 C54.7394533 356.03291757 78.47860515 356.02595374 102.21802616 355.97153378 C113.240733 355.94719492 124.26316491 355.93589845 135.28588867 355.95532227 C144.89352078 355.97221936 154.50076834 355.96462841 164.10834974 355.92765242 C169.19546277 355.90892866 174.28192544 355.90245378 179.36903572 355.92530632 C184.1587162 355.94643576 188.94720583 355.93478761 193.73678207 355.89815521 C195.4931309 355.89047078 197.24957909 355.89469316 199.00586128 355.91181374 C208.14024356 356.27987019 208.14024356 356.27987019 216.56861687 353.45826912 C218.32966322 351.72578055 219.66669243 350.07009228 221 348 C221.63808594 347.28972656 222.27617187 346.57945312 222.93359375 345.84765625 C223.67802734 344.96400391 223.67802734 344.96400391 224.4375 344.0625 C232.46037539 334.78605033 241.55802389 326.87779186 251.125 319.25 C251.71104004 318.77780029 252.29708008 318.30560059 252.90087891 317.8190918 C253.47241699 317.36832275 254.04395508 316.91755371 254.6328125 316.453125 C255.13699707 316.05254883 255.64118164 315.65197266 256.16064453 315.23925781 C262.09885494 311.23841416 266.68739158 310.52256447 273.67578125 310.49609375 C274.60037643 310.48610855 275.52497162 310.47612335 276.47758484 310.46583557 C278.42828925 310.45069311 280.37907086 310.44360858 282.32983398 310.4440918 C285.29347744 310.43754204 288.25374714 310.38305416 291.21679688 310.32617188 C293.11978031 310.31736599 295.02277953 310.31141433 296.92578125 310.30859375 C297.80107986 310.2870372 298.67637848 310.26548065 299.57820129 310.24327087 C307.15417806 310.32643163 312.15517897 313.35836941 317.59321594 318.50901794 C321.97472109 323.36866462 323.10004287 327.83157801 323.04296875 334.203125 C323.03676514 335.10192383 323.03056152 336.00072266 323.02416992 336.92675781 C323.01619385 337.61092773 323.00821777 338.29509766 323 339 C324.02770508 338.9685791 324.02770508 338.9685791 325.07617188 338.93652344 C328.21729522 338.85274601 331.35818264 338.80114586 334.5 338.75 C336.11648438 338.69972656 336.11648438 338.69972656 337.765625 338.6484375 C345.76372303 338.55089972 351.16958813 339.64338472 357.2421875 344.96484375 C357.78101563 345.61582031 358.31984375 346.26679688 358.875 346.9375 C359.42929687 347.58589844 359.98359375 348.23429687 360.5546875 348.90234375 C364.67939604 354.88874507 364.63915725 360.95019088 364 368 C362.67075969 371.50436082 361.6165916 373.3834084 359 376 C359.27158374 378.62530949 360.13614767 380.22691278 361.5 382.5 C364.38721931 387.31203219 364.67661797 392.49918376 364 398 C363.11116552 400.42973966 362.07625376 402.66714126 360.875 404.95703125 C359.73752856 407.24241327 359.73752856 407.24241327 360 411 C360.66 411.94875 361.32 412.8975 362 413.875 C365.30919786 419.36660792 364.87607989 425.83895038 364 432 C362.85730854 434.35610324 361.56560109 436.24872871 359.98828125 438.328125 C358.66506469 440.15427798 358.66506469 440.15427798 359.5625 443.25 C360.36116558 444.77788198 361.17948283 446.29739125 362.0703125 447.7734375 C364.4029242 453.3599445 363.68500748 460.68809976 362 466.375 C357.97252445 471.66106166 353.37230907 475.90255673 347 478 C344.31217677 478.3001697 341.71478653 478.49994212 339.01933289 478.60643005 C338.1978412 478.64378342 337.37634952 478.68113679 336.52996415 478.71962208 C324.62439581 479.20571704 312.70551348 479.2205245 300.79187953 479.2851516 C297.16743481 479.30579484 293.54302579 479.33158377 289.91860962 479.35667419 C282.82439718 479.4049832 275.73016356 479.44862751 268.6359112 479.49061734 C260.28003512 479.5402392 251.92419051 479.59445215 243.56834372 479.64874845 C228.55461746 479.74613798 213.54086751 479.83921117 198.52709961 479.92993164 C184.17421167 480.01666084 169.82134984 480.1067162 155.46850586 480.20043945 C118.16434746 480.4436744 80.86019633 480.67329057 43.55571175 480.86092567 C40.48589174 480.87641448 37.41607199 480.89195356 34.34625244 480.90753174 C33.60184215 480.91130073 32.85743186 480.91506972 32.09046368 480.91895293 C20.77495604 480.97658157 9.45960666 481.04892367 -1.85576242 481.12967998 C-10.41906342 481.1899739 -18.98235059 481.2369918 -27.54579931 481.27039403 C-32.14487151 481.28866595 -36.74366464 481.31293335 -41.3425808 481.35560799 C-45.4275382 481.39344281 -49.51213219 481.41264954 -53.59725928 481.41655278 C-55.02246544 481.42108991 -56.44767313 481.43222972 -57.8727572 481.45142817 C-76.94992953 481.69926861 -94.00608372 476.42781934 -108 463 C-120.65636931 448.72574529 -125.33623823 434.26294049 -125.22705078 415.58569336 C-125.22734283 414.26764709 -125.22763489 412.94960083 -125.22793579 411.59161377 C-125.22850604 408.00336255 -125.21680524 404.41524698 -125.20278788 400.82702708 C-125.19022549 397.06743619 -125.1891057 393.30784167 -125.18673706 389.54823303 C-125.1805384 382.44051836 -125.16414958 375.33286574 -125.14403808 368.2251783 C-125.12162866 360.1283972 -125.110673 352.03161304 -125.10064721 343.93480861 C-125.0797818 327.28983618 -125.04463744 310.64492603 -125 294 C-126.25683594 293.70351563 -127.51367188 293.40703125 -128.80859375 293.1015625 C-136.43482813 291.30255336 -141.51073404 286.21323665 -146 280 C-147.92895752 276.02828551 -148.25469934 272.8113568 -148.26742554 268.41630554 C-148.27195665 267.76839312 -148.27648776 267.1204807 -148.28115618 266.45293456 C-148.29377965 264.28975747 -148.29218118 262.12683281 -148.29052734 259.96362305 C-148.29651392 258.40937986 -148.30331977 256.85513964 -148.31088257 255.30090332 C-148.32853751 251.08383866 -148.33323776 246.86685519 -148.33451414 242.64975715 C-148.33593669 240.01322383 -148.34020827 237.37671108 -148.34550858 234.74018288 C-148.36400781 225.53681759 -148.3721794 216.33351021 -148.37060547 207.13012695 C-148.36940438 198.56009885 -148.39050045 189.99032272 -148.4220928 181.42035836 C-148.44827243 174.05542561 -148.45897204 166.69057506 -148.45769465 159.32559615 C-148.45718547 154.93002926 -148.46284395 150.5346863 -148.48405075 146.13916588 C-148.50346144 142.00304488 -148.50353849 137.86736076 -148.48901749 133.73122406 C-148.48693172 132.21715721 -148.49161648 130.70306281 -148.5037384 129.18904305 C-148.5730589 119.92771174 -147.98794954 113.51567151 -142.4296875 105.828125 C-137.91071222 101.24102446 -133.17207482 98.81664359 -127 97 C-126.34 97 -125.68 97 -125 97 C-125.02094727 95.6903125 -125.04189453 94.380625 -125.06347656 93.03125 C-125.13677136 88.09614323 -125.18211991 83.16108282 -125.21972656 78.22558594 C-125.23964078 76.10375841 -125.26678222 73.98198427 -125.30175781 71.86035156 C-125.67548742 48.57919545 -122.22708445 28.87929669 -106 11 C-105.24976563 10.15695313 -104.49953125 9.31390625 -103.7265625 8.4453125 C-76.16038088 -20.905088 -32.20095985 -21.87959259 0 0 Z " fill="#020203" transform="translate(148,23)"/>
<path d="M0 0 C34.65 0 69.3 0 105 0 C106.32 4.62 107.64 9.24 109 14 C115.0036035 26.69184886 115.0036035 26.69184886 125.01147461 36.11230469 C127.5101058 37.55374788 129.17671385 38.74855778 131 41 C132.07393928 45.8772207 131.93686327 50.65046901 131.8125 55.625 C131.77788871 58.24275678 131.77086165 60.8583414 131.76953125 63.4765625 C131.74479736 64.63236816 131.72006348 65.78817383 131.69458008 66.97900391 C132.05053082 70.49981483 132.42760937 71.5936766 135 74 C137.75208323 74.41115816 140.1121378 74.56417813 142.86791992 74.54589844 C143.68108075 74.55629276 144.49424158 74.56668709 145.33204365 74.57739639 C147.96506318 74.60654735 150.59730369 74.60846489 153.23046875 74.609375 C154.85568865 74.6233676 156.48089421 74.63914367 158.1060791 74.65673828 C164.13306902 74.7094562 170.16032106 74.72762511 176.1875 74.75 C189.655625 74.8325 203.12375 74.915 217 75 C217 107.67 217 140.34 217 174 C172.88608999 174.20151517 172.88608999 174.20151517 154.36132812 174.24414062 C141.58428888 174.27377715 128.80741484 174.30856572 116.03051758 174.37719727 C106.72401588 174.42716347 97.41764857 174.45932209 88.11101645 174.47044247 C83.18696332 174.47693889 78.2632945 174.4921175 73.33936501 174.52865028 C68.69605378 174.56281894 64.05328181 174.57301121 59.4098568 174.56553841 C57.71403946 174.56690369 56.01820238 174.57671115 54.32249451 174.59602737 C38.99908721 174.7618835 26.7758728 171.47152495 15 161 C2.90621688 148.55477361 -0.32848134 134.77565085 -0.22705078 117.95288086 C-0.22734283 116.67384888 -0.22763489 115.39481689 -0.22793579 114.07702637 C-0.22850585 110.59620798 -0.21680828 107.11552953 -0.20278788 103.63474345 C-0.19022218 99.98726166 -0.18910544 96.3397761 -0.18673706 92.692276 C-0.18053936 85.79705621 -0.16415187 78.9019004 -0.14403808 72.00670868 C-0.11742877 62.68087593 -0.10669261 53.35502549 -0.09503365 44.02916431 C-0.0762699 29.35272835 -0.03641291 14.67642737 0 0 Z " fill="#FEBEAA" transform="translate(35,317)"/>
<path d="M0 0 C1.63628303 -0.02153217 3.27245237 -0.05557893 4.90820312 -0.10253906 C20.24265966 -0.53853848 20.24265966 -0.53853848 24.83081055 3.13549805 C27.03875605 5.64744951 28.1859524 7.74474189 28.2800293 11.1550293 C28.3212793 11.91299805 28.3625293 12.6709668 28.4050293 13.4519043 C28.2800293 15.4050293 28.2800293 15.4050293 27.2800293 17.4050293 C25.70535889 17.42690308 25.70535889 17.42690308 24.09887695 17.44921875 C20.21099456 17.50710922 16.32369703 17.58434136 12.4362793 17.66748047 C10.75245645 17.70077365 9.06852082 17.72879186 7.38452148 17.75146484 C4.96638843 17.78493135 2.54929305 17.83723966 0.1315918 17.89331055 C-1.00129776 17.90289543 -1.00129776 17.90289543 -2.15707397 17.91267395 C-4.50642971 17.94483247 -4.50642971 17.94483247 -7.7199707 18.4050293 C-10.03540278 21.17491006 -10.03540278 21.17491006 -9.4074707 24.0300293 C-8.9458193 26.34004895 -8.9458193 26.34004895 -7.7199707 27.4050293 C-5.60451232 27.5079281 -3.48562643 27.54076171 -1.36767578 27.546875 C-0.70417114 27.55034943 -0.0406665 27.55382385 0.64294434 27.55740356 C2.08891646 27.56477337 3.53489999 27.5701122 4.98088646 27.57369423 C7.27204477 27.58084659 9.56298725 27.59650555 11.8540802 27.61503601 C18.3701371 27.66754993 24.88608002 27.7154475 31.40234375 27.73095703 C35.38486066 27.74105867 39.3668412 27.77044352 43.34914589 27.81227684 C44.86528776 27.82456704 46.3815055 27.8297117 47.89769554 27.82747841 C50.02596214 27.82511604 52.15270202 27.84736079 54.28076172 27.875 C55.49019943 27.88086624 56.69963715 27.88673248 57.94572449 27.89277649 C61.94284981 28.50685912 64.12591329 29.92309212 67.2800293 32.4050293 C69.62226058 35.59898105 69.8351706 38.51904019 69.2800293 42.4050293 C67.1073943 44.97788653 65.30009091 46.89499849 62.2800293 48.4050293 C60.11081119 48.51046502 57.93834935 48.55110751 55.76660156 48.56274414 C55.09813202 48.56782486 54.42966248 48.57290558 53.74093628 48.57814026 C52.28788632 48.58884794 50.83481983 48.59746656 49.38174629 48.60425949 C47.08293623 48.61603595 44.78431511 48.63548459 42.48558044 48.65737915 C35.94927231 48.71904311 29.41298378 48.77307974 22.87646484 48.80639648 C18.87991025 48.82731719 14.88370037 48.86259773 10.88734245 48.90715408 C9.36313872 48.92133402 7.83887402 48.93004102 6.31460762 48.93320847 C4.18365413 48.93810589 2.05361907 48.96123085 -0.07714844 48.98852539 C-1.89677345 49.00065567 -1.89677345 49.00065567 -3.75315857 49.01303101 C-6.70136335 49.16446453 -6.70136335 49.16446453 -8.61561584 50.77090454 C-10.17758925 53.08217197 -10.0694064 54.67943087 -9.7199707 57.4050293 C-7.85086672 59.70367853 -7.85086672 59.70367853 -4.8556366 59.64985657 C-3.63161636 59.64809921 -2.40759613 59.64634186 -1.14648438 59.64453125 C-0.47147385 59.64654541 0.20353668 59.64855957 0.89900208 59.65063477 C2.36678978 59.65418372 3.83459276 59.65340893 5.3023777 59.64885902 C7.62703225 59.64327458 9.95118616 59.65241033 12.27580261 59.6660614 C18.88571321 59.7032228 25.49545669 59.72173874 32.10546875 59.71044922 C36.14752041 59.70459167 40.18887093 59.72289234 44.23077965 59.75633812 C45.77009814 59.76428599 47.30949318 59.76302331 48.84879494 59.75231361 C51.00608827 59.73795441 53.16118663 59.75428656 55.31835938 59.77734375 C56.54476639 59.77797318 57.7711734 59.7786026 59.03474426 59.7792511 C63.82371247 60.70269291 65.9192467 63.48756291 68.6550293 67.3425293 C69.58714924 70.41852512 69.23465177 72.35023739 68.2800293 75.4050293 C63.68078174 79.88324402 60.07308278 80.52796395 53.82080078 80.59448242 C53.17008606 80.60277573 52.51937134 80.61106903 51.84893799 80.61961365 C50.43793078 80.63699194 49.02689507 80.65216481 47.61584282 80.66539001 C45.38444914 80.68643657 43.15319897 80.71345622 40.92189026 80.74206543 C35.38171532 80.81186082 29.84143814 80.87133622 24.30114746 80.93109131 C19.61709025 80.98199208 14.93311108 81.03680178 10.24916267 81.09690857 C8.04775931 81.12351777 5.84634876 81.14430885 3.6448822 81.16491699 C2.29987232 81.18151642 0.95486576 81.19838794 -0.39013672 81.21557617 C-1.56689468 81.22810425 -2.74365265 81.24063232 -3.95606995 81.25354004 C-6.67945376 81.21910694 -6.67945376 81.21910694 -8.7199707 82.4050293 C-8.97012943 85.82145688 -8.97012943 85.82145688 -8.7199707 89.4050293 C-5.09571483 91.82119988 -3.43697683 91.65082517 0.87524414 91.64453125 C1.87334862 91.64755249 1.87334862 91.64755249 2.89161682 91.65063477 C4.3353776 91.65417795 5.7791539 91.65341602 7.22291183 91.64885902 C9.50984317 91.64326437 11.79626757 91.65242665 14.0831604 91.6660614 C20.5846785 91.70318299 27.08602539 91.72173256 33.58764648 91.71044922 C37.56601691 91.70459159 41.54367499 91.72289018 45.52190018 91.75633812 C47.03609857 91.76428381 48.55037477 91.76302626 50.06455612 91.75231361 C52.18583066 91.73795319 54.30487346 91.75428654 56.42602539 91.77734375 C57.63165131 91.77797318 58.83727722 91.7786026 60.07943726 91.7792511 C64.18366849 92.58170839 65.65683645 94.22669005 68.2800293 97.4050293 C69.70665148 100.25827367 69.59036797 102.23957479 69.2800293 105.4050293 C67.12912478 108.74263975 66.07590131 110.13973863 62.2800293 111.4050293 C60.07292494 111.5129657 57.86274995 111.56124389 55.65307617 111.57861328 C54.9844606 111.58530029 54.31584503 111.5919873 53.62696838 111.59887695 C52.17666942 111.61291314 50.72634855 111.62481175 49.27601624 111.63482475 C46.98133347 111.65124791 44.68681364 111.67448472 42.39221191 111.69972229 C35.86873495 111.77047253 29.34519281 111.83068512 22.8215332 111.88183594 C18.83037563 111.91360716 14.83940792 111.95487335 10.84840393 112.00203133 C9.32698474 112.01805739 7.80552186 112.03037618 6.28404236 112.03893852 C4.15815918 112.05107774 2.03272362 112.07521947 -0.09301758 112.10205078 C-1.30308472 112.11235825 -2.51315186 112.12266571 -3.7598877 112.13328552 C-6.90616381 112.18515436 -6.90616381 112.18515436 -9.7199707 114.4050293 C-9.97012943 117.98860171 -9.97012943 117.98860171 -9.7199707 121.4050293 C-6.86494649 122.8325414 -4.42985936 122.53766884 -1.23828125 122.546875 C-0.57302429 122.55034943 0.09223267 122.55382385 0.77764893 122.55740356 C2.22415136 122.56476133 3.67066508 122.5701066 5.11718178 122.57369423 C7.40814504 122.58085693 9.69889377 122.5965223 11.98979187 122.61503601 C18.50406939 122.66751149 25.01823056 122.71547324 31.53271484 122.73095703 C35.51638066 122.74104685 39.49950851 122.77039726 43.48296165 122.81227684 C44.99992997 122.82457914 46.5169743 122.82970949 48.03399086 122.82747841 C50.15996157 122.82512142 52.28439375 122.84731847 54.41015625 122.875 C56.22311943 122.88379936 56.22311943 122.88379936 58.07270813 122.89277649 C61.88965029 123.50239406 63.53175748 124.74434249 66.2800293 127.4050293 C68.55899187 130.66069012 68.83906195 133.49180073 68.2800293 137.4050293 C65.72978564 140.50667698 64.10303683 142.13069345 60.2800293 143.4050293 C57.76296828 143.52489815 55.27153006 143.59033907 52.75341797 143.61035156 C51.98334947 143.62024833 51.21328096 143.63014509 50.41987705 143.64034176 C47.84594896 143.67211993 45.27200426 143.69685908 42.69799805 143.72143555 C40.87403989 143.74213179 39.05008564 143.76317571 37.22613525 143.7845459 C32.32186607 143.84049454 27.4175511 143.88980999 22.51319504 143.93745804 C19.47794682 143.96742644 16.44272383 143.99925618 13.40750122 144.03170776 C-7.20234116 144.25128368 -27.81201133 144.43631178 -48.4230957 144.4675293 C-49.10727318 144.46856659 -49.79145065 144.46960388 -50.49636078 144.47067261 C-63.90429933 144.48723085 -77.31205561 144.43797258 -90.7199707 144.4050293 C-90.7199707 112.0650293 -90.7199707 79.7250293 -90.7199707 46.4050293 C-82.1399707 46.0750293 -73.5599707 45.7450293 -64.7199707 45.4050293 C-59.8046425 41.10411711 -55.97637002 37.64546367 -51.89575195 32.8425293 C-37.2611984 16.4476255 -22.75169598 0.22494936 0 0 Z " fill="#FDBDAA" transform="translate(430.719970703125,345.594970703125)"/>
<path d="M0 0 C1.34325743 -0.00015522 2.6865153 -0.00164803 4.0297699 -0.00440979 C6.83474712 -0.00578888 9.63920995 0.00668231 12.4440918 0.02954102 C16.02740853 0.05795256 19.60987347 0.05517472 23.19325352 0.0424509 C25.96350803 0.03547495 28.73356789 0.04330421 31.50379753 0.05570793 C33.46350375 0.06237582 35.42323741 0.05809385 37.38294983 0.05360413 C39.18027809 0.07263039 39.18027809 0.07263039 41.01391602 0.09204102 C42.58774803 0.10014549 42.58774803 0.10014549 44.19337463 0.1084137 C48.984432 0.72957131 53.00478274 2.65441004 55.99609375 6.49609375 C59.0316317 10.65911723 59.31019203 13.40436736 59.32403564 18.42840576 C59.32974579 19.66770844 59.33545593 20.90701111 59.34133911 22.18386841 C59.34258446 23.55975332 59.34370956 24.93563834 59.34472656 26.31152344 C59.34935529 27.75871914 59.35438003 29.20591363 59.35977173 30.65310669 C59.37289382 34.58715742 59.3793405 38.52119108 59.38378239 42.45526028 C59.38671387 44.91387346 59.39081885 47.37248199 59.39528656 49.83109283 C59.40896197 57.52564814 59.418628 65.22019278 59.42248845 72.9147594 C59.42696724 81.79278596 59.44450657 90.6706584 59.47348905 99.54863811 C59.49511979 106.41329791 59.5051935 113.27791441 59.50652957 120.14260793 C59.50757675 124.24135973 59.51346574 128.33996668 59.53134918 132.43868256 C59.54785366 136.2964674 59.54997394 140.15399887 59.54121017 144.01180649 C59.54044102 145.42470097 59.54476644 146.83760921 59.55466843 148.25046921 C59.65500628 163.46419274 59.65500628 163.46419274 54.68359375 169.23828125 C50.058682 172.73105314 47.07202842 173.61978998 41.35449219 173.6730957 C40.15604675 173.68593094 38.95760132 173.69876617 37.72283936 173.71199036 C35.77755341 173.72307076 35.77755341 173.72307076 33.79296875 173.734375 C33.13147072 173.73845053 32.46997269 173.74252605 31.78842926 173.74672508 C28.2855511 173.76756781 24.78271187 173.78187596 21.27978516 173.79125977 C17.67401522 173.80230704 14.06886532 173.83669148 10.46331406 173.87643147 C7.68020536 173.90266539 4.89724275 173.91095763 2.1140213 173.91454124 C0.142636 173.92173929 -1.82864917 173.94815041 -3.79986572 173.97492981 C-15.50005755 173.94666542 -15.50005755 173.94666542 -20.81640625 169.49609375 C-25.98176504 162.90213972 -25.38376403 156.02524181 -25.33398438 147.95117188 C-25.33941011 146.47382417 -25.3465353 144.99648189 -25.35522461 143.51914978 C-25.37340753 139.52115208 -25.36641147 135.52356883 -25.35370827 131.52556419 C-25.34355439 127.33412973 -25.35298056 123.14272986 -25.35925293 118.95129395 C-25.3665224 111.91359105 -25.35696008 104.87605626 -25.33789062 97.83837891 C-25.31612315 89.7113264 -25.32317502 81.58467533 -25.34519625 73.45763254 C-25.36337027 66.4697192 -25.36589881 59.48192645 -25.35544157 52.4939971 C-25.34921761 48.32487505 -25.34834065 44.15594147 -25.36158752 39.98683167 C-25.37317468 36.06650133 -25.36506861 32.14668667 -25.3420105 28.22641182 C-25.33673861 26.79095375 -25.33821113 25.35545199 -25.34706116 23.92001152 C-25.42284875 10.37483387 -25.42284875 10.37483387 -20.81640625 4.49609375 C-14.56281361 -0.71761366 -7.8529282 -0.06895664 0 0 Z " fill="#6187CA" transform="translate(36.81640625,131.50390625)"/>
<path d="M0 0 C13.72615755 10.67497906 21.16936119 25.13594084 25.33154297 41.78466797 C25.33154297 56.63466797 25.33154297 71.48466797 25.33154297 86.78466797 C-17.89845703 86.78466797 -61.12845703 86.78466797 -105.66845703 86.78466797 C-105.66845703 25.43898571 -105.66845703 25.43898571 -86.21875 5.27148438 C-62.41272679 -17.55980403 -26.2853316 -19.14667555 0 0 Z " fill="#FEBEAA" transform="translate(140.66845703125,33.21533203125)"/>
<path d="M0 0 C9.64051811 -0.11611466 19.2807936 -0.20482664 28.92185974 -0.25906086 C33.3991678 -0.28509753 37.87599563 -0.32038604 42.35302734 -0.37719727 C46.67784307 -0.43173028 51.00219839 -0.4614651 55.32733154 -0.47438622 C56.97311648 -0.4835881 58.61887768 -0.50155741 60.26446533 -0.52865028 C76.0993067 -0.77886385 76.0993067 -0.77886385 81.62492371 3.59341431 C84.43957601 6.4725634 85.83014273 8.66391124 86.34057617 12.67895508 C86.32486572 13.61634521 86.30915527 14.55373535 86.29296875 15.51953125 C86.28330078 16.54111328 86.27363281 17.56269531 86.26367188 18.61523438 C86.23853516 19.67033203 86.21339844 20.72542969 86.1875 21.8125 C86.16719727 23.42415039 86.16719727 23.42415039 86.14648438 25.06835938 C86.11122577 27.71275455 86.06194366 30.35611748 86 33 C85.32960693 33.12479736 84.65921387 33.24959473 83.96850586 33.37817383 C83.08042236 33.54857178 82.19233887 33.71896973 81.27734375 33.89453125 C80.40070068 34.06057861 79.52405762 34.22662598 78.62084961 34.39770508 C66.63657664 37.15179929 54.99021412 44.95709743 48 55 C42.50541548 64.56665802 38.60394301 73.5314475 38.6875 84.6875 C38.69595947 85.87496826 38.69595947 85.87496826 38.70458984 87.08642578 C38.99531452 101.24558096 43.8018791 114.53944835 53.67578125 124.90234375 C63.11330584 133.41990796 73.43263889 138.4078251 86 140 C86.11674705 143.70806596 86.18743274 147.4156554 86.25 151.125 C86.28351563 152.17171875 86.31703125 153.2184375 86.3515625 154.296875 C86.42798488 160.33424319 86.40609131 164.43756352 82 169 C76.86720378 172.44466659 73.63519104 173.49669606 67.32055664 173.45410156 C66.22174667 173.45497772 66.22174667 173.45497772 65.10073853 173.45587158 C62.7033788 173.45310691 60.30729604 173.42209449 57.91015625 173.390625 C56.23864928 173.38315679 54.56713351 173.3774666 52.89561462 173.37347412 C48.51422595 173.35826332 44.1333748 173.31902152 39.75219727 173.2746582 C35.27432525 173.23360664 30.79636567 173.21544208 26.31835938 173.1953125 C17.54532732 173.15252219 8.77273069 173.08432698 0 173 C0.48699371 171.82881119 0.97398743 170.65762238 1.47573853 169.45094299 C3.71285338 162.68250563 3.41992409 155.83795677 3.38818359 148.78491211 C3.39225495 147.25963466 3.39759998 145.73436016 3.40411377 144.20909119 C3.41772508 140.08930931 3.41251477 135.96975423 3.40297651 131.84996867 C3.39534909 127.5268907 3.40243393 123.20383135 3.40713501 118.88075256 C3.41258303 111.6238356 3.40542543 104.36701043 3.39111328 97.11010742 C3.37478243 88.73315898 3.38008224 80.35642956 3.3965925 71.97948641 C3.41022725 64.77157725 3.4121175 57.56373384 3.40427649 50.35581595 C3.39961169 46.05761315 3.39894231 41.75951316 3.40888596 37.46131706 C3.41758259 33.42038964 3.41148478 29.37974341 3.39420319 25.33884621 C3.39025296 23.86026348 3.39134719 22.38165688 3.39799118 20.9030838 C3.42908001 13.27880103 3.3464823 6.93258234 0 0 Z " fill="#3B579E" transform="translate(103,132)"/>
<path d="M0 0 C21.12 0 42.24 0 64 0 C64 32.34 64 64.68 64 98 C42.88 98 21.76 98 0 98 C0 65.66 0 33.32 0 0 Z " fill="#FE6578" transform="translate(264,392)"/>
<path d="M0 0 C0.309375 1.134375 0.61875 2.26875 0.9375 3.4375 C1.62924531 6.78775099 1.62924531 6.78775099 3 8 C5.95817107 8.25005386 5.95817107 8.25005386 9 8 C11.5654594 5.4345406 11.54046087 3.52313332 12 0 C19.41216681 0.35865323 24.56479472 2.35920537 31 6 C31 9 31 9 29.4375 10.875 C27.70833963 12.94685065 27.70833963 12.94685065 28.25 15.6875 C28.78620958 17.93769969 28.78620958 17.93769969 30 19 C32.91608998 19.33361919 32.91608998 19.33361919 36 19 C37.7511573 17.5833253 37.7511573 17.5833253 39 16 C39.66 16 40.32 16 41 16 C42.18203738 18.20124308 43.34540108 20.40941829 44.5 22.625 C44.83386719 23.24246094 45.16773438 23.85992187 45.51171875 24.49609375 C47.58469428 28.51512794 48.38860447 31.48941245 48 36 C46.865625 36.144375 45.73125 36.28875 44.5625 36.4375 C41.19222799 36.61171478 41.19222799 36.61171478 40 38 C39.83333333 41.5 39.83333333 41.5 40 45 C41.96822886 46.96822886 45.34808709 46.66248381 48 47 C47.70544888 54.65832917 44.62827658 60.34261178 41 67 C40.34 67 39.68 67 39 67 C38.5875 66.505 38.175 66.01 37.75 65.5 C35.99086803 63.712034 35.99086803 63.712034 32.9375 63.625 C31.968125 63.74875 30.99875 63.8725 30 64 C27.72789846 66.73986384 27.72789846 66.73986384 28.1875 69.4375 C29.05070129 72.15990408 30.24828281 73.77612184 32 76 C19.1537262 83.33273145 19.1537262 83.33273145 12 83 C11.690625 81.865625 11.38125 80.73125 11.0625 79.5625 C10.37075469 76.21224901 10.37075469 76.21224901 9 75 C6.04195427 74.66659529 6.04195427 74.66659529 3 75 C1.0549 77.91765 0.54723683 79.62537285 0 83 C-4.99783437 83.36020428 -7.98018872 82.34389935 -12.375 80 C-13.43460938 79.443125 -14.49421875 78.88625 -15.5859375 78.3125 C-16.38257813 77.879375 -17.17921875 77.44625 -18 77 C-18 74 -18 74 -16 71 C-15.92094936 68.66800612 -15.91201231 66.33167378 -16 64 C-21.53069113 63.56066743 -21.53069113 63.56066743 -26.5 65.5 C-26.995 65.995 -27.49 66.49 -28 67 C-32.20923848 60.74437285 -36 54.75288137 -36 47 C-34.88625 46.87625 -33.7725 46.7525 -32.625 46.625 C-28.96896323 46.3534187 -28.96896323 46.3534187 -27 44 C-26.66666667 41.5 -26.66666667 41.5 -27 39 C-29.76223278 36.23776722 -32.20706617 36.42143709 -36 36 C-35.67422369 28.83292123 -32.34556372 23.23072876 -29 17 C-28.01 17 -27.02 17 -26 17 C-25.34 17.66 -24.68 18.32 -24 19 C-21.31160615 19.26991906 -18.70858064 19.08737357 -16 19 C-15.7045561 13.97745369 -16.01485372 11.10457614 -19 7 C-7.68315109 -0.35735586 -7.68315109 -0.35735586 0 0 Z " fill="#FBFBFB" transform="translate(189,177)"/>
<path d="M0 0 C7.92489919 6.71893627 11.80539347 13.45066955 14.875 23.4375 C14.875 24.0975 14.875 24.7575 14.875 25.4375 C13.89917969 25.47488281 12.92335938 25.51226562 11.91796875 25.55078125 C10.00951172 25.64939453 10.00951172 25.64939453 8.0625 25.75 C6.16564453 25.83701172 6.16564453 25.83701172 4.23046875 25.92578125 C0.94197999 26.17177174 0.94197999 26.17177174 -1.0859375 27.8203125 C-2.37985726 29.47825375 -2.37985726 29.47825375 -1.9375 32 C-1.27872967 34.58191272 -1.27872967 34.58191272 0.875 36.4375 C3.44416657 36.74349063 5.92258384 36.94837087 8.5 37.0625 C9.55960937 37.12050781 9.55960937 37.12050781 10.640625 37.1796875 C12.38498524 37.27397724 14.12995691 37.35682891 15.875 37.4375 C15.545 42.0575 15.215 46.6775 14.875 51.4375 C12.94333984 51.52837891 12.94333984 51.52837891 10.97265625 51.62109375 C9.29425841 51.70548247 7.61587364 51.7901313 5.9375 51.875 C5.08736328 51.91431641 4.23722656 51.95363281 3.36132812 51.99414062 C2.55244141 52.03603516 1.74355469 52.07792969 0.91015625 52.12109375 C0.1612915 52.15775146 -0.58757324 52.19440918 -1.35913086 52.23217773 C-3.14961326 52.25521063 -3.14961326 52.25521063 -4.125 53.4375 C-4.29166667 56.9375 -4.29166667 56.9375 -4.125 60.4375 C-2.31384044 62.24865956 0.48778227 61.81949448 2.9375 62 C4.59458984 62.12568359 4.59458984 62.12568359 6.28515625 62.25390625 C7.13980469 62.31449219 7.99445313 62.37507813 8.875 62.4375 C6.71504085 68.8730706 2.10293632 72.45107765 -3.5625 75.9375 C-8.83001853 76.96530849 -13.46701901 76.26649049 -18.25 73.875 C-26.74479757 66.67288902 -30.93995609 59.36271956 -33.125 48.4375 C-25.205 47.9425 -25.205 47.9425 -17.125 47.4375 C-17.125 44.7975 -17.125 42.1575 -17.125 39.4375 C-19.97114024 36.59135976 -22.92869142 36.98170924 -26.75 36.8125 C-27.45640625 36.77382812 -28.1628125 36.73515625 -28.890625 36.6953125 C-30.63498524 36.60102276 -32.37995691 36.51817109 -34.125 36.4375 C-34.30746409 31.14604153 -33.95792491 27.47443539 -32.125 22.4375 C-30.30162109 22.34662109 -30.30162109 22.34662109 -28.44140625 22.25390625 C-26.85675772 22.16951668 -25.27212298 22.0848679 -23.6875 22 C-22.48383789 21.94102539 -22.48383789 21.94102539 -21.25585938 21.88085938 C-17.37260439 22.0320704 -17.37260439 22.0320704 -14.125 20.4375 C-13.95833333 16.9375 -13.95833333 16.9375 -14.125 13.4375 C-15.93615956 11.62634044 -18.73778227 12.05550552 -21.1875 11.875 C-22.29222656 11.79121094 -23.39695312 11.70742187 -24.53515625 11.62109375 C-25.81712891 11.53021484 -25.81712891 11.53021484 -27.125 11.4375 C-24.96504085 5.0019294 -20.35293632 1.42392235 -14.6875 -2.0625 C-9.41998147 -3.09030849 -4.78298099 -2.39149049 0 0 Z " fill="#3A569C" transform="translate(292.125,116.5625)"/>
<path d="M0 0 C2.875 0.9375 2.875 0.9375 4.875 3.9375 C5.13226891 5.93529415 5.13226891 5.93529415 5.14242554 8.2575531 C5.15095551 9.13938263 5.15948547 10.02121216 5.16827393 10.92976379 C5.16691437 12.3769001 5.16691437 12.3769001 5.16552734 13.85327148 C5.17560318 15.38047821 5.17560318 15.38047821 5.18588257 16.9385376 C5.20491669 20.31193897 5.20878939 23.68514199 5.2109375 27.05859375 C5.2173612 29.39885033 5.22408923 31.73910609 5.23110962 34.07936096 C5.24309562 38.98790347 5.24678903 43.89637553 5.24560547 48.80493164 C5.2454021 55.10131054 5.27271694 61.39723896 5.30714989 67.69351101 C5.32936231 72.52759383 5.33344476 77.36156723 5.33238602 82.19569588 C5.33475003 84.51738095 5.34361824 86.83906868 5.35905075 89.16070366 C5.37859767 92.40490362 5.37291691 95.64811892 5.36083984 98.89233398 C5.37207886 99.85506729 5.38331787 100.8178006 5.39489746 101.80970764 C5.33354189 108.279885 5.33354189 108.279885 3.03994751 111.56922913 C0.875 112.9375 0.875 112.9375 -2.25 112.875 C-5.125 111.9375 -5.125 111.9375 -7.125 108.9375 C-7.38226891 106.93970585 -7.38226891 106.93970585 -7.39242554 104.6174469 C-7.40095551 103.73561737 -7.40948547 102.85378784 -7.41827393 101.94523621 C-7.41736755 100.98047867 -7.41646118 100.01572113 -7.41552734 99.02172852 C-7.42224457 98.0035907 -7.42896179 96.98545288 -7.43588257 95.9364624 C-7.45491669 92.56306103 -7.45878939 89.18985801 -7.4609375 85.81640625 C-7.4673612 83.47614967 -7.47408923 81.13589391 -7.48110962 78.79563904 C-7.49309562 73.88709653 -7.49678903 68.97862447 -7.49560547 64.07006836 C-7.4954021 57.77368946 -7.52271694 51.47776104 -7.55714989 45.18148899 C-7.57936231 40.34740617 -7.58344476 35.51343277 -7.58238602 30.67930412 C-7.58475003 28.35761905 -7.59361824 26.03593132 -7.60905075 23.71429634 C-7.62859767 20.47009638 -7.62291691 17.22688108 -7.61083984 13.98266602 C-7.62207886 13.01993271 -7.63331787 12.0571994 -7.64489746 11.06529236 C-7.58354189 4.595115 -7.58354189 4.595115 -5.28994751 1.30577087 C-3.125 -0.0625 -3.125 -0.0625 0 0 Z " fill="#010205" transform="translate(32.125,162.0625)"/>
<path d="M0 0 C3 0.4375 3 0.4375 4.67578125 1.640625 C6.46366343 4.06665981 6.30355414 5.64627706 6.1875 8.625 C6.16042969 9.52605469 6.13335937 10.42710937 6.10546875 11.35546875 C6.07066406 12.04253906 6.03585938 12.72960937 6 13.4375 C6.7425 13.664375 7.485 13.89125 8.25 14.125 C12.09146563 15.95842678 14.11488412 18.66726824 16 22.4375 C16.55769904 28.40058973 16.50156448 33.36626868 13 38.4375 C7.71561648 43.20633391 4.15568967 43.96476459 -2.875 43.9140625 C-8.02029344 43.12940525 -10.87170907 40.45608783 -14 36.4375 C-16.66400868 31.53572403 -16.19736809 26.74714046 -15 21.4375 C-13.31666327 17.75019097 -11.46098118 15.55874653 -8 13.4375 C-7.34 13.4375 -6.68 13.4375 -6 13.4375 C-6.03480469 12.83421875 -6.06960937 12.2309375 -6.10546875 11.609375 C-6.32343399 5.17421076 -6.32343399 5.17421076 -4.875 1.875 C-3 0.4375 -3 0.4375 0 0 Z " fill="#030305" transform="translate(195,190.5625)"/>
<path d="M0 0 C4.62 0 9.24 0 14 0 C14 8.91 14 17.82 14 27 C7.39879435 20.39879435 2.69318367 13.9772789 0 5 C0 3.35 0 1.7 0 0 Z " fill="#F5B8A4" transform="translate(152,316)"/>
<path d="M0 0 C4.55555556 0.55555556 4.55555556 0.55555556 6 2 C6.1875 4.4375 6.1875 4.4375 6 7 C5.34 7.66 4.68 8.32 4 9 C-0.55555556 8.44444444 -0.55555556 8.44444444 -2 7 C-2.1875 4.5625 -2.1875 4.5625 -2 2 C-1.34 1.34 -0.68 0.68 0 0 Z " fill="#5C81C0" transform="translate(193,214)"/>
</svg>
