<?xml version="1.0" encoding="UTF-8"?>
<svg version="1.1" xmlns="http://www.w3.org/2000/svg" width="512" height="512">
<path d="M0 0 C1.45108658 0.00273422 1.45108658 0.00273422 2.93148804 0.00552368 C17.26440977 0.05095174 31.21023917 0.55983928 45.3125 3.3125 C46.65803955 3.55395752 46.65803955 3.55395752 48.03076172 3.80029297 C107.84088904 14.62287989 165.35495829 48.68064457 202.3125 97.3125 C202.72918945 97.85277832 203.14587891 98.39305664 203.57519531 98.94970703 C211.2584873 108.9447116 218.00092968 119.40459036 224.3125 130.3125 C224.70679199 130.98974121 225.10108398 131.66698242 225.50732422 132.36474609 C238.68961173 155.2833756 247.29510918 180.85822563 252.625 206.6875 C252.77243652 207.39817627 252.91987305 208.10885254 253.07177734 208.84106445 C256.05713787 224.48358366 256.6873098 240.11919606 256.625 256 C256.62226578 257.45108658 256.62226578 257.45108658 256.61947632 258.93148804 C256.57404826 273.26440977 256.06516072 287.21023917 253.3125 301.3125 C253.15152832 302.20952637 252.99055664 303.10655273 252.82470703 304.03076172 C244.93512494 347.63188156 225.2475709 388.77776903 196.3125 422.3125 C195.66667969 423.06917969 195.02085937 423.82585937 194.35546875 424.60546875 C183.71309817 436.7536432 172.22416267 448.57881337 159.3125 458.3125 C158.77512207 458.72628906 158.23774414 459.14007813 157.68408203 459.56640625 C147.6861221 467.25326589 137.22438153 473.99863145 126.3125 480.3125 C125.63525879 480.70679199 124.95801758 481.10108398 124.26025391 481.50732422 C101.3416244 494.68961173 75.76677437 503.29510918 49.9375 508.625 C49.22682373 508.77243652 48.51614746 508.91987305 47.78393555 509.07177734 C32.14141634 512.05713787 16.50580394 512.6873098 0.625 512.625 C-0.34239105 512.62317719 -1.3097821 512.62135437 -2.30648804 512.61947632 C-16.63940977 512.57404826 -30.58523917 512.06516072 -44.6875 509.3125 C-45.58452637 509.15152832 -46.48155273 508.99055664 -47.40576172 508.82470703 C-107.21588904 498.00212011 -164.72995829 463.94435543 -201.6875 415.3125 C-202.10418945 414.77222168 -202.52087891 414.23194336 -202.95019531 413.67529297 C-210.6334873 403.6802884 -217.37592968 393.22040964 -223.6875 382.3125 C-224.08179199 381.63525879 -224.47608398 380.95801758 -224.88232422 380.26025391 C-238.06461173 357.3416244 -246.67010918 331.76677437 -252 305.9375 C-252.14743652 305.22682373 -252.29487305 304.51614746 -252.44677734 303.78393555 C-255.43213787 288.14141634 -256.0623098 272.50580394 -256 256.625 C-255.99817719 255.65760895 -255.99635437 254.6902179 -255.99447632 253.69351196 C-255.94904826 239.36059023 -255.44016072 225.41476083 -252.6875 211.3125 C-252.44604248 209.96696045 -252.44604248 209.96696045 -252.19970703 208.59423828 C-241.37712011 148.78411096 -207.31935543 91.27004171 -158.6875 54.3125 C-158.14722168 53.89581055 -157.60694336 53.47912109 -157.05029297 53.04980469 C-147.0552884 45.3665127 -136.59540964 38.62407032 -125.6875 32.3125 C-125.01025879 31.91820801 -124.33301758 31.52391602 -123.63525391 31.11767578 C-100.7166244 17.93538827 -75.14177437 9.32989082 -49.3125 4 C-48.60182373 3.85256348 -47.89114746 3.70512695 -47.15893555 3.55322266 C-31.51641634 0.56786213 -15.88080394 -0.0623098 0 0 Z " fill="#F76E51" transform="translate(255.6875,-0.3125)"/>
<path d="M0 0 C1.76605843 -0.00856522 1.76605843 -0.00856522 3.5677948 -0.01730347 C4.85099106 -0.01842133 6.13418732 -0.01953918 7.45626831 -0.02069092 C8.82830437 -0.02532297 10.20033914 -0.03034815 11.57237244 -0.03573608 C15.29377016 -0.04882768 19.01514987 -0.05529908 22.73656702 -0.05974674 C25.06556977 -0.06268363 27.39456767 -0.06678966 29.72356796 -0.07125092 C37.02194416 -0.08491935 44.32030918 -0.09458834 51.61869729 -0.09845281 C60.02180336 -0.10292751 68.42474628 -0.12045073 76.82780278 -0.1494534 C83.33672988 -0.17113249 89.84561129 -0.18116045 96.35457408 -0.18249393 C100.23545101 -0.18353781 104.11617443 -0.18935579 107.99701309 -0.20731354 C111.65293008 -0.22390162 115.30857998 -0.22589828 118.96452141 -0.21717453 C120.92927381 -0.21604801 122.89401778 -0.22968344 124.85871887 -0.243927 C140.00284882 -0.17330773 153.96070702 4.34061926 165.09249878 14.94903564 C173.62721971 24.17442763 180.23425424 35.58480127 180.2535553 48.342453 C180.25995277 50.25356873 180.25995277 50.25356873 180.26647949 52.20329285 C180.26612997 53.61325076 180.26566844 55.02320866 180.2651062 56.4331665 C180.26809895 57.92003463 180.27150174 59.40690198 180.27528381 60.89376831 C180.28412159 64.93353583 180.28646199 68.97328217 180.2870996 73.01305842 C180.28781084 75.54124022 180.2899467 78.06941666 180.29259682 80.59759712 C180.30185327 89.43064846 180.3059318 98.2636847 180.30514526 107.09674072 C180.30454611 115.30700324 180.31506512 123.51719971 180.33088893 131.72744554 C180.3440132 138.7909437 180.34932704 145.85442042 180.34868985 152.91793066 C180.34843607 157.12972271 180.35122012 161.34145619 180.3618679 165.55323601 C180.37163004 169.52345865 180.37157314 173.4935678 180.36435127 177.46379471 C180.36331505 178.91125341 180.36561017 180.35871948 180.37171173 181.8061657 C180.42091262 194.29995176 179.33576441 206.09640131 175.05734253 217.89044189 C174.75497681 218.7346167 174.45261108 219.5787915 174.14108276 220.44854736 C169.40291866 233.22327927 163.24954258 244.95528519 154.11984253 255.14044189 C153.39925659 255.97962158 152.67867065 256.81880127 151.93624878 257.68341064 C134.88294577 277.21934356 112.69508717 290.24442529 87.11984253 295.14044189 C85.46984253 295.14044189 83.81984253 295.14044189 82.11984253 295.14044189 C82.11984253 284.58044189 82.11984253 274.02044189 82.11984253 263.14044189 C70.89984253 263.14044189 59.67984253 263.14044189 48.11984253 263.14044189 C48.11984253 273.70044189 48.11984253 284.26044189 48.11984253 295.14044189 C42.56434601 295.14044189 38.76658632 294.75334436 33.68234253 293.07794189 C32.65125366 292.74403442 32.65125366 292.74403442 31.59933472 292.40338135 C0.94284097 282.18106482 -24.11719828 261.78758117 -38.6892395 232.78082275 C-41.72980654 226.45377289 -44.09988194 219.94163489 -46.25515747 213.26544189 C-46.50612183 212.49305176 -46.75708618 211.72066162 -47.01565552 210.92486572 C-47.24680054 210.17358398 -47.47794556 209.42230225 -47.71609497 208.64825439 C-47.91767212 207.99486084 -48.11924927 207.34146729 -48.32693481 206.66827393 C-50.2319796 197.96358119 -50.04066026 189.11031792 -50.05715942 180.24835205 C-50.06343598 178.75750067 -50.0700838 177.26665082 -50.07707214 175.77580261 C-50.09796263 170.91038065 -50.10845623 166.04495888 -50.11843872 161.17950439 C-50.12249105 159.49667724 -50.12660811 157.81385025 -50.1307888 156.13102341 C-50.14980269 148.22611248 -50.16404501 140.3212107 -50.17240077 132.41628134 C-50.18217741 123.32041049 -50.20852403 114.22478268 -50.24890167 105.12899745 C-50.2791257 98.07647111 -50.29387534 91.02401427 -50.29718179 83.97142446 C-50.2995238 79.76862648 -50.30837415 75.56608933 -50.33364296 71.36336136 C-50.35704138 67.4085835 -50.36111016 63.45423615 -50.35088158 59.49940681 C-50.35038906 58.05592854 -50.35662485 56.61242816 -50.37043762 55.16901588 C-50.50691719 40.05031741 -45.95574779 27.16622188 -35.68875122 15.85919189 C-25.83124873 6.49137095 -13.75632907 0.04008324 0 0 Z " fill="#345065" transform="translate(190.88015747070313,88.85955810546875)"/>
<path d="M0 0 C4.1175946 1.63869806 6.92894926 4.60320398 10.02374268 7.66210938 C10.62335902 8.24731668 11.22297536 8.83252399 11.8407619 9.43546486 C13.85081125 11.40003358 15.85366437 13.37177391 17.85644531 15.34375 C19.29514438 16.75354747 20.73414724 18.16303497 22.1734314 19.57223511 C35.30837986 32.44660691 48.37975956 45.38625834 61.43663406 58.3397522 C71.08441221 67.90974798 80.76045175 77.44913479 90.47615361 86.95017624 C97.3101816 93.63826867 104.10925893 100.36067151 110.88386989 107.10893631 C114.92838525 111.13575591 118.98670667 115.14586584 123.08365631 119.11938477 C126.94199388 122.86278171 130.7550583 126.64706821 134.53856277 130.46603775 C135.92900895 131.85473468 137.33479059 133.22828278 138.75702286 134.58440781 C150.576635 145.88282257 150.576635 145.88282257 150.92079234 155.18976021 C150.83415839 158.83190392 150.47551276 162.39090233 150 166 C149.83736993 167.99328929 149.67652981 169.986728 149.51953125 171.98046875 C149.2993091 173.71817437 149.06363393 175.45399189 148.8125 177.1875 C148.6779541 178.14688477 148.5434082 179.10626953 148.40478516 180.09472656 C141.35762351 228.07174048 121.75231122 273.20018644 90 310 C89.35417969 310.75667969 88.70835937 311.51335937 88.04296875 312.29296875 C77.40059817 324.4411432 65.91166267 336.26631337 53 346 C52.46262207 346.41378906 51.92524414 346.82757813 51.37158203 347.25390625 C41.3736221 354.94076589 30.91188153 361.68613145 20 368 C19.32275879 368.39429199 18.64551758 368.78858398 17.94775391 369.19482422 C-5.8640228 382.8908302 -33.71957937 393.17564197 -61 397 C-62.15141731 397.17123634 -62.15141731 397.17123634 -63.32609558 397.34593201 C-67.19847806 396.84494886 -69.10296228 394.56505747 -71.70825195 391.87524414 C-72.25518204 391.33065048 -72.80211212 390.78605682 -73.36561584 390.22496033 C-75.16874492 388.42344509 -76.95341559 386.6047532 -78.73828125 384.78515625 C-79.98564779 383.53100161 -81.23405008 382.27787633 -82.48344421 381.02574158 C-85.09755434 378.40095421 -87.70343815 375.76836723 -90.30297852 373.12915039 C-93.64319548 369.7379611 -96.99624954 366.35985384 -100.35458088 362.98661137 C-103.54891323 359.77752425 -106.73796841 356.56321821 -109.92578125 353.34765625 C-110.53828547 352.73024126 -111.15078968 352.11282627 -111.78185463 351.47670174 C-113.50369208 349.73866795 -115.22186004 347.99709882 -116.9387207 346.25415039 C-117.45450684 345.73410431 -117.97029297 345.21405823 -118.50170898 344.67825317 C-122 341.11511501 -122 341.11511501 -122 340 C-111.11 340 -100.22 340 -89 340 C-89 317.56 -89 295.12 -89 272 C-82.4 270.35 -75.8 268.7 -69 267 C-65.52809993 265.80534208 -62.31629112 264.66831825 -59 263.1875 C-57.83114258 262.67884399 -57.83114258 262.67884399 -56.63867188 262.15991211 C-30.11331823 250.25152271 -9.29257602 227.12194422 1.10058594 200.14306641 C6.31334483 185.53713947 8.14815362 172.60281322 8.17700195 157.10791016 C8.18327851 155.61705878 8.18992633 154.12620893 8.19691467 152.63536072 C8.21780516 147.76993875 8.22829876 142.90451698 8.23828125 138.0390625 C8.24233358 136.35623535 8.24645064 134.67340835 8.25063133 132.99058151 C8.26964522 125.08567058 8.28388754 117.1807688 8.2922433 109.27583945 C8.30201994 100.17996859 8.32836655 91.08434079 8.36874419 81.98855555 C8.39896823 74.93602921 8.41371787 67.88357238 8.41702431 60.83098257 C8.41936633 56.62818459 8.42821668 52.42564743 8.45348549 48.22291946 C8.47688391 44.2681416 8.48095269 40.31379425 8.47072411 36.35896492 C8.47023159 34.91548664 8.47646738 33.47198626 8.49028015 32.02857399 C8.60130649 19.72948997 5.67987789 10.75119744 0 0 Z " fill="#D04D37" transform="translate(362,112)"/>
<path d="M0 0 C1.10314545 -0.00525696 2.20629089 -0.01051392 3.34286499 -0.01593018 C6.98262772 -0.02911394 10.62195171 -0.02039745 14.26171875 -0.01025391 C16.79467859 -0.0122751 19.32763786 -0.01518691 21.8605957 -0.01895142 C27.16656579 -0.02337259 32.4723792 -0.0172373 37.77832031 -0.00292969 C43.90300586 0.01339551 50.02739175 0.00810646 56.15207005 -0.0084089 C62.05635116 -0.02368959 67.96053959 -0.02203872 73.86483765 -0.0132637 C76.37185712 -0.01126321 78.87888424 -0.01371566 81.38589478 -0.02070236 C84.89028142 -0.02832546 88.39409361 -0.01669969 91.8984375 0 C92.93342377 -0.00607269 93.96841003 -0.01214539 95.03475952 -0.0184021 C100.36460445 0.02862347 104.46279148 0.1749835 108.94921875 3.38818359 C113.08569178 7.88206645 112.37143097 13.45923303 112.33740234 19.21777344 C112.34528778 20.85523277 112.34528778 20.85523277 112.35333252 22.52577209 C112.36653382 26.13370075 112.35779238 29.74118795 112.34765625 33.34912109 C112.34967723 35.8586943 112.35258887 38.36826694 112.35635376 40.87783813 C112.36077754 46.13849382 112.35463191 51.39903491 112.34033203 56.65966797 C112.32402312 62.72921418 112.32928259 68.79845776 112.34581125 74.86799657 C112.3611044 80.71942227 112.35943567 86.5707336 112.35066605 92.42216873 C112.34866684 94.906033 112.35111347 97.38990499 112.35810471 99.87376022 C112.36573896 103.34931509 112.35408565 106.82429271 112.33740234 110.29980469 C112.34347504 111.32341599 112.34954773 112.34702728 112.35580444 113.4016571 C112.30459382 119.1719668 111.73050003 123.2950237 108.94921875 128.38818359 C105.2062507 132.01041074 101.39677293 132.50978235 96.33927917 132.52862549 C95.41833969 132.53433563 94.49740021 132.54004578 93.54855347 132.54592896 C92.54535065 132.54704681 91.54214783 132.54816467 90.50854492 132.54931641 C89.4463121 132.55428131 88.38407928 132.55924622 87.28965759 132.56436157 C83.77382765 132.57897257 80.25804282 132.58578334 76.7421875 132.59130859 C74.29844664 132.59706077 71.8547058 132.60281849 69.41096497 132.60858154 C64.28561187 132.6190884 59.16027446 132.62493319 54.03491211 132.62841797 C47.47103288 132.63390302 40.90736105 132.65793286 34.34354687 132.68638992 C29.29490048 132.70502318 24.24630399 132.71022227 19.19762611 132.71175385 C16.77794574 132.71477916 14.35826622 132.72280357 11.93861961 132.73593903 C8.55161169 132.75301395 5.1651098 132.75111549 1.77807617 132.74462891 C0.78094604 132.75384369 -0.21618408 132.76305847 -1.24353027 132.77255249 C-6.95826537 132.7383086 -11.00298247 132.13289357 -16.05078125 129.38818359 C-19.71147783 125.60546379 -20.17276643 121.75805488 -20.19122314 116.65089417 C-20.19693329 115.7018219 -20.20264343 114.75274963 -20.20852661 113.7749176 C-20.20964447 112.74052048 -20.21076233 111.70612335 -20.21191406 110.64038086 C-20.21687897 109.54567474 -20.22184387 108.45096863 -20.22695923 107.3230896 C-20.24156969 103.70024997 -20.24838021 100.0774541 -20.25390625 96.45458984 C-20.2596576 93.93879698 -20.26541533 91.42300414 -20.2711792 88.9072113 C-20.28034273 84.30632047 -20.28664503 79.70544219 -20.28967595 75.10454327 C-20.29415878 68.33761494 -20.3117217 61.57088839 -20.34067655 54.80402142 C-20.36490725 48.93713456 -20.37262063 43.07031502 -20.3743515 37.20338249 C-20.37738157 34.70948118 -20.38542194 32.21558079 -20.39853668 29.72171211 C-20.41556173 26.23611197 -20.41372559 22.75100553 -20.40722656 19.26538086 C-20.41644135 18.23300797 -20.42565613 17.20063507 -20.43515015 16.13697815 C-20.38167954 6.99766262 -20.38167954 6.99766262 -17.05078125 3.38818359 C-11.73732734 -0.41733683 -6.27495052 -0.03681773 0 0 Z " fill="#EBEFF0" transform="translate(210.05078125,121.61181640625)"/>
<path d="M0 0 C3.82807409 1.2760247 4.24944895 2.5835822 6.29296875 6.00390625 C7.23317871 7.56915039 7.23317871 7.56915039 8.19238281 9.16601562 C8.85077148 10.28685547 9.50916016 11.40769531 10.1875 12.5625 C11.19635254 14.2650293 11.19635254 14.2650293 12.22558594 16.00195312 C17.21276362 24.49148419 21.96000834 33.0186207 26 42 C26.37640625 42.82886719 26.7528125 43.65773437 27.140625 44.51171875 C29.96562294 51.6640999 30.45255117 59.7303799 27.96875 67.03125 C24.25809862 74.53501168 18.96842092 79.95620358 11.1796875 83.16015625 C4.10519575 85.02872594 -4.82332513 85.53218316 -11.5625 82.3125 C-12.73286187 81.57944397 -13.88152646 80.8100216 -15 80 C-16.03125 79.319375 -17.0625 78.63875 -18.125 77.9375 C-23.10245501 73.43864643 -26.38612402 67.46992307 -27.55078125 60.88671875 C-28.48867465 38.94001331 -11.6541018 17.40225645 0 0 Z " fill="#D35502" transform="translate(255,143)"/>
<path d="M0 0 C10.56 0 21.12 0 32 0 C32 32.34 32 64.68 32 98 C21.44 98 10.88 98 0 98 C0 65.66 0 33.32 0 0 Z " fill="#ECF0F1" transform="translate(240,353)"/>
<path d="M0 0 C1.59142319 0.0001133 1.59142319 0.0001133 3.21499634 0.00022888 C4.93847794 0.00797081 4.93847794 0.00797081 6.69677734 0.01586914 C7.87033783 0.01728409 9.04389832 0.01869904 10.25302124 0.02015686 C14.0129447 0.0257685 17.77280929 0.03832301 21.53271484 0.05102539 C24.07698482 0.05603889 26.62125572 0.06060206 29.16552734 0.06469727 C35.41296428 0.07489217 41.66027342 0.0944654 47.90771484 0.11352539 C47.90771484 17.27352539 47.90771484 34.43352539 47.90771484 52.11352539 C43.51458984 52.15477539 39.12146484 52.19602539 34.59521484 52.23852539 C33.23356201 52.2567334 31.87190918 52.27494141 30.46899414 52.29370117 C19.04689938 52.3451259 9.573494 51.50509538 -0.09228516 45.11352539 C-1.42259766 44.24727539 -1.42259766 44.24727539 -2.77978516 43.36352539 C-10.06380205 36.27637382 -15.21103148 26.59136069 -15.52978516 16.36352539 C-15.34278278 11.94403586 -14.69838965 8.79801795 -12.09228516 5.11352539 C-7.92222789 1.35030298 -5.55540349 -0.01316446 0 0 Z " fill="#ADC0CE" transform="translate(205.09228515625,271.886474609375)"/>
<path d="M0 0 C8.45625 -0.061875 16.9125 -0.12375 25.625 -0.1875 C28.2851416 -0.21481201 30.9452832 -0.24212402 33.68603516 -0.27026367 C35.80370632 -0.27902874 37.92138255 -0.28667263 40.0390625 -0.29296875 C41.13114014 -0.30831665 42.22321777 -0.32366455 43.34838867 -0.33947754 C48.96990364 -0.34140933 53.19640559 -0.28247249 58 3 C62.61274756 7.98675412 63.46689276 12.12860733 63.4140625 18.75 C62.21272429 28.17937157 57.51441694 37.72632687 49.96875 43.57421875 C41.25599678 49.73580622 32.74540458 52.14489117 22.0703125 52.09765625 C20.90773926 52.09515869 19.74516602 52.09266113 18.54736328 52.09008789 C17.0879834 52.08098389 15.62860352 52.07187988 14.125 52.0625 C9.46375 52.041875 4.8025 52.02125 0 52 C0 34.84 0 17.68 0 0 Z " fill="#ADC0CE" transform="translate(259,272)"/>
</svg>
