<?xml version="1.0" encoding="UTF-8"?>
<svg version="1.1" xmlns="http://www.w3.org/2000/svg" width="512" height="512">
<path d="M0 0 C0.68336426 0.20367188 1.36672852 0.40734375 2.07080078 0.6171875 C26.47169701 8.23548707 45.88263647 22.8866647 63.8125 40.6875 C64.62158813 41.48945801 64.62158813 41.48945801 65.44702148 42.30761719 C68.84472261 45.71956112 71.96655062 49.26005409 75 53 C75.80824219 52.11957031 76.61648438 51.23914063 77.44921875 50.33203125 C78.52858942 49.15880226 79.60801967 47.98562809 80.6875 46.8125 C81.48317383 45.9452832 81.48317383 45.9452832 82.29492188 45.06054688 C85.45660764 41.62730528 88.6907125 38.29248909 92 35 C92.54140625 34.40058594 93.0828125 33.80117188 93.640625 33.18359375 C109.22829154 16.27173224 132.09809542 5.00693834 154 -1 C155.17433594 -1.33902344 156.34867187 -1.67804687 157.55859375 -2.02734375 C177.67595902 -6.80879859 202.23405967 -5.81169067 222 0 C222.7317041 0.21430664 223.4634082 0.42861328 224.21728516 0.64941406 C262.40274633 12.24941929 293.93492408 39.40184972 312.8125 74.375 C319.78553415 87.7722431 324.71826163 102.27775704 328 117 C328.44859375 118.88912109 328.44859375 118.88912109 328.90625 120.81640625 C334.05911352 145.2715084 332.8563569 173.85255581 327 198 C326.67854004 199.33272949 326.67854004 199.33272949 326.35058594 200.69238281 C313.91817314 250.54871071 285.80383646 293.81857587 251 331 C250.0606366 332.02824869 249.12316145 333.05822531 248.1875 334.08984375 C240.88674291 342.13874835 233.47813124 349.98303037 225.21875 357.0625 C223.01625854 358.9858024 220.86729131 360.96047227 218.72436523 362.94970703 C212.67819515 368.55694149 206.45607807 373.86488099 200 379 C199.49307617 379.40653809 198.98615234 379.81307617 198.46386719 380.23193359 C168.65445026 404.12504728 136.78457196 425.33946342 103.71240234 444.43310547 C101.88410283 445.48927345 100.05895964 446.55092184 98.23681641 447.61767578 C95.56316748 449.17892716 92.87769477 450.71747308 90.1875 452.25 C88.99713135 452.94935669 88.99713135 452.94935669 87.78271484 453.6628418 C82.64396071 456.54283285 77.97215839 458.35166993 72 458 C68.53515625 456.875 68.53515625 456.875 65.0625 455 C64.40266113 454.64824707 63.74282227 454.29649414 63.06298828 453.93408203 C60.69123913 452.65215614 58.34579302 451.32882038 56 450 C55.03787598 449.46213867 54.07575195 448.92427734 53.08447266 448.37011719 C37.72410784 439.7606387 22.73715817 430.63397043 8 421 C7.29842773 420.54286621 6.59685547 420.08573242 5.87402344 419.61474609 C-13.28370987 407.10019119 -31.86665313 393.71188561 -49.4765625 379.08984375 C-51.16617437 377.69055218 -52.86957583 376.30775459 -54.5859375 374.94140625 C-61.57102557 369.35948103 -68.06871333 363.34665685 -74.56640625 357.21484375 C-77.0345881 354.88993717 -79.5380809 352.63063861 -82.125 350.4375 C-90.07477971 343.58364178 -97.55675121 335.93493301 -104.34375 327.93359375 C-106.25985577 325.69663065 -108.25512856 323.54196422 -110.25 321.375 C-115.83347652 315.1690413 -120.96263934 308.65187827 -126 302 C-126.5161084 301.31905273 -127.0322168 300.63810547 -127.56396484 299.93652344 C-156.0996036 262.01061817 -180.72247752 214.26430167 -181.23828125 165.75 C-181.24816574 164.98285675 -181.25805023 164.2157135 -181.26823425 163.42532349 C-181.60254401 130.70421469 -177.12248841 101.00739802 -161 72 C-160.43667969 70.94941406 -159.87335938 69.89882812 -159.29296875 68.81640625 C-141.63699152 37.01910768 -110.80002696 11.74197715 -75.98046875 1.09765625 C-74.65469882 0.72797358 -73.32783503 0.36219515 -72 0 C-71.31115723 -0.19609863 -70.62231445 -0.39219727 -69.91259766 -0.59423828 C-47.97021891 -6.62063155 -21.81242825 -6.50607756 0 0 Z " fill="#FE0059" transform="translate(181,30)"/>
<path d="M0 0 C0.68336426 0.20367188 1.36672852 0.40734375 2.07080078 0.6171875 C26.47246399 8.23572653 45.81679223 22.90099263 63.8125 40.625 C64.62158813 41.41438965 64.62158813 41.41438965 65.44702148 42.21972656 C65.96594971 42.73760742 66.48487793 43.25548828 67.01953125 43.7890625 C67.70172729 44.46509521 67.70172729 44.46509521 68.39770508 45.15478516 C73.87811989 51.46607194 75.74473596 55.01198001 75.56762695 63.33178711 C75.56835709 64.23989136 75.56908722 65.14799561 75.56983948 66.08361816 C75.56637437 69.06548169 75.52756433 72.04575536 75.48828125 75.02734375 C75.47894929 77.1024134 75.47183499 79.17749411 75.46684265 81.25257874 C75.44780312 86.6993379 75.39872809 92.14542449 75.34332275 97.59191895 C75.29206481 103.1555878 75.26931461 108.71936592 75.24414062 114.28320312 C75.19060678 125.18909668 75.10533053 136.09449229 75 147 C75.886875 147.103125 76.77375 147.20625 77.6875 147.3125 C82.04651071 148.21720034 84.85824361 149.51201529 87.59561157 153.07946777 C88.04181854 153.8698645 88.48802551 154.66026123 88.94775391 155.47460938 C89.45268372 156.36494873 89.95761353 157.25528809 90.47784424 158.17260742 C93.01135587 162.87858573 95.45359356 167.6220383 97.8359375 172.40625 C98.62226059 173.976026 98.62226059 173.976026 99.42446899 175.57751465 C100.52045835 177.76814249 101.61446045 179.95976563 102.70654297 182.15234375 C104.38559901 185.52126627 106.07325432 188.88578474 107.76171875 192.25 C108.82863879 194.38516001 109.89506321 196.52056776 110.9609375 198.65625 C111.46708588 199.66449829 111.97323425 200.67274658 112.49472046 201.71154785 C112.95585236 202.64011597 113.41698425 203.56868408 113.89208984 204.52539062 C114.30035004 205.3435022 114.70861023 206.16161377 115.12924194 207.0045166 C116 209 116 209 116 211 C116.81611252 210.99446924 116.81611252 210.99446924 117.64871216 210.98882675 C130.91198313 210.90033376 144.17520209 210.8344773 157.43870544 210.79275131 C163.85296647 210.77189316 170.26701411 210.74360717 176.68115234 210.69824219 C182.87329196 210.65472231 189.06522655 210.63084956 195.25750732 210.62049103 C197.61776964 210.61311078 199.97802096 210.59869888 202.3381958 210.57707977 C205.64888598 210.54796511 208.95873327 210.5440475 212.26953125 210.54589844 C213.24129807 210.53151733 214.21306488 210.51713623 215.21427917 210.50231934 C221.30319829 210.53905855 225.92730672 211.50666994 231 215 C234.46350444 218.64112005 235.8688304 221.26200278 236.25 226.3125 C235.93534408 230.95367488 234.88640961 234.08781977 231.5703125 237.44921875 C227.45508262 241.02189344 224.4647812 242.12227189 219.12394714 242.14044189 C217.61621986 242.14900711 217.61621986 242.14900711 216.07803345 242.15774536 C214.97615692 242.15886322 213.8742804 242.15998108 212.73901367 242.16113281 C211.57778488 242.16609772 210.41655609 242.17106262 209.22013855 242.17617798 C205.36940931 242.19081169 201.51872126 242.1976036 197.66796875 242.203125 C195.67124641 242.2074225 193.67452407 242.21172052 191.67780191 242.2160995 C186.11334933 242.22791031 180.54890673 242.23544774 174.98444289 242.2388947 C167.79359577 242.24337388 160.60293889 242.26091626 153.41214961 242.2898953 C147.85025399 242.31152992 142.28841182 242.32159994 136.72647458 242.32293582 C133.40629664 242.32398265 130.0863381 242.33131463 126.7661953 242.34775543 C123.06037331 242.36479624 119.35501512 242.36294014 115.64916992 242.35644531 C114.00546417 242.37026749 114.00546417 242.37026749 112.32855225 242.3843689 C106.81000539 242.35404796 102.72427154 242.19300983 98 239 C93.91427591 234.79169273 91.35882235 230.28513963 88.79296875 225.046875 C88.42271072 224.3054425 88.0524527 223.56401001 87.67097473 222.80010986 C86.89671333 221.24558463 86.12630905 219.68913278 85.35961914 218.13085938 C84.18196837 215.73876391 82.99141272 213.35342973 81.79882812 210.96875 C81.04611506 209.45350227 80.29413532 207.93788998 79.54296875 206.421875 C79.00871529 205.3500296 79.00871529 205.3500296 78.46366882 204.25653076 C76 199.23223353 76 199.23223353 76 197 C75.34 197 74.68 197 74 197 C73.76327072 197.79615723 73.52654144 198.59231445 73.28263855 199.41259766 C71.67043398 203.92176079 69.60674792 208.11392214 67.4777832 212.3984375 C67.02056381 213.32601868 66.56334442 214.25359985 66.0922699 215.20928955 C64.58313068 218.26687227 63.06766422 221.32125219 61.55078125 224.375 C61.03178946 225.42113464 60.51279766 226.46726929 59.97807884 227.54510498 C57.23211245 233.07868391 54.48095129 238.6096458 51.72583008 244.13867188 C48.88549983 249.84148355 46.06397332 255.5533857 43.24656391 261.26754761 C41.07214293 265.66871941 38.88350376 270.06270773 36.69099998 274.45489502 C35.64466695 276.55728848 34.60373043 278.66237693 33.56838417 280.77020264 C32.1170053 283.72174977 30.64565892 286.66250421 29.16918945 289.6015625 C28.74866302 290.46823547 28.3281366 291.33490845 27.89486694 292.22784424 C24.83461437 298.24484608 21.14391093 302.92804454 15 306 C9.53451785 306.42866527 5.8148076 305.63451736 1 303 C-3.07409538 298.6840812 -5.44069818 293.52114122 -8.04394531 288.25268555 C-8.53220795 287.27659836 -9.02047058 286.30051117 -9.52352905 285.29484558 C-11.13076832 282.07828247 -12.72947247 278.85755695 -14.328125 275.63671875 C-15.44289643 273.4015788 -16.55819917 271.16670376 -17.67401123 268.93208313 C-20.30618128 263.65747162 -22.93299335 258.38021974 -25.55720592 253.10164529 C-28.83994716 246.49927412 -32.13102155 239.90106481 -35.421875 233.30273438 C-41.28792934 221.53847688 -47.14658785 209.77055241 -53 198 C-55.73374168 201.52154526 -57.6929308 205.20935423 -59.6171875 209.21484375 C-60.31345339 210.6375405 -61.0100792 212.06006114 -61.70703125 213.48242188 C-62.79287364 215.70979717 -63.87551822 217.93857487 -64.95166016 220.1706543 C-65.99775093 222.33577999 -67.05655415 224.49431282 -68.1171875 226.65234375 C-68.43195038 227.31395004 -68.74671326 227.97555634 -69.0710144 228.6572113 C-72.33180968 235.25061364 -76.21128801 239.18364226 -83 242 C-85.72712706 242.26442747 -88.2140405 242.38147126 -90.93310547 242.34057617 C-91.7045137 242.34101425 -92.47592194 242.34145233 -93.27070618 242.34190369 C-95.80313024 242.33982505 -98.33488007 242.31653844 -100.8671875 242.29296875 C-102.62980793 242.28736949 -104.39243304 242.28310095 -106.15505981 242.28010559 C-110.78130107 242.26868278 -115.40725718 242.23923781 -120.03338623 242.20599365 C-124.75919742 242.17523736 -129.48505495 242.16158839 -134.2109375 242.14648438 C-143.47408321 242.11436554 -152.73701784 242.06320034 -162 242 C-163.12499828 239.286764 -164.24818787 236.57280257 -165.37036133 233.85839844 C-165.68684883 233.09562592 -166.00333633 232.33285339 -166.32941437 231.54696655 C-168.68189155 225.85090053 -170.83821681 220.1311573 -172.6875 214.25 C-172.97512207 213.34169434 -173.26274414 212.43338867 -173.55908203 211.49755859 C-178.06503383 196.76626943 -181.07420193 181.18260196 -181.23828125 165.75 C-181.24816574 164.98285675 -181.25805023 164.2157135 -181.26823425 163.42532349 C-181.60254401 130.70421469 -177.12248841 101.00739802 -161 72 C-160.43667969 70.94941406 -159.87335938 69.89882812 -159.29296875 68.81640625 C-141.63699152 37.01910768 -110.80002696 11.74197715 -75.98046875 1.09765625 C-74.65469882 0.72797358 -73.32783503 0.36219515 -72 0 C-71.31115723 -0.19609863 -70.62231445 -0.39219727 -69.91259766 -0.59423828 C-47.97021891 -6.62063155 -21.81242825 -6.50607756 0 0 Z " fill="#FE5B5B" transform="translate(181,30)"/>
<path d="M0 0 C2.07467666 2.6439535 3.73926341 5.23855392 5.22531128 8.25048828 C5.64291718 9.0916217 6.06052307 9.93275513 6.49078369 10.79937744 C6.93967957 11.71378601 7.38857544 12.62819458 7.85107422 13.5703125 C8.33115936 14.53982849 8.81124451 15.50934448 9.30587769 16.50823975 C10.3469738 18.61141846 11.38633363 20.71545735 12.42416 22.82025146 C14.06751997 26.15100881 15.71721149 29.47855477 17.368927 32.80517578 C22.06425542 42.26303546 26.75327429 51.72396514 31.42529297 61.19335938 C34.28434155 66.98673417 37.15504703 72.77420291 40.03332901 78.55804443 C41.12778114 80.76306182 42.21778471 82.97029303 43.30324936 85.17974854 C44.82123413 88.26864795 46.35391697 91.34982589 47.89013672 94.4296875 C48.55740784 95.80130035 48.55740784 95.80130035 49.23815918 97.20062256 C51.84693844 102.38515776 54.22052375 106.4882095 59.875 108.75 C64.51030578 109.29533009 67.82753489 109.56278325 72.125 107.5 C78.20619648 102.21200306 81.44105377 94.40390207 84.97387695 87.27929688 C85.67722923 85.8730304 85.67722923 85.8730304 86.39479065 84.43835449 C87.92975843 81.36703569 89.459054 78.29293049 90.98828125 75.21875 C92.05695673 73.07766534 93.12598771 70.93675809 94.19535828 68.79602051 C96.99855357 63.18202157 99.79693404 57.56563618 102.59429932 51.94873047 C105.45382746 46.20915538 108.31792935 40.47186376 111.18164062 34.734375 C116.7922246 23.49180653 122.39787761 12.24678704 128 1 C128.99 1.495 128.99 1.495 130 2 C129.67 87.8 129.34 173.6 129 262 C123.65541403 261.10923567 120.11251773 259.78196378 115.5 257.25 C114.76934326 256.85514404 114.03868652 256.46028809 113.28588867 256.0534668 C75.11907129 235.20946361 38.00726576 210.89248193 4.5234375 183.08984375 C2.83382563 181.69055218 1.13042417 180.30775459 -0.5859375 178.94140625 C-7.57102557 173.35948103 -14.06871333 167.34665685 -20.56640625 161.21484375 C-23.0345881 158.88993717 -25.5380809 156.63063861 -28.125 154.4375 C-36.07477971 147.58364178 -43.55675121 139.93493301 -50.34375 131.93359375 C-52.25985577 129.69663065 -54.25512856 127.54196422 -56.25 125.375 C-61.83347652 119.1690413 -66.96263934 112.65187827 -72 106 C-72.5161084 105.31905273 -73.0322168 104.63810547 -73.56396484 103.93652344 C-84.64414313 89.21017385 -94.08220856 73.69019323 -102.75 57.4375 C-103.18078857 56.6338501 -103.61157715 55.8302002 -104.05541992 55.00219727 C-104.4444751 54.25768311 -104.83353027 53.51316895 -105.234375 52.74609375 C-105.57694336 52.09310303 -105.91951172 51.4401123 -106.27246094 50.76733398 C-107 49 -107 49 -107 46 C-106.04057495 45.99635437 -105.0811499 45.99270874 -104.09265137 45.98895264 C-95.02979792 45.95193453 -85.96728211 45.89408765 -76.90468597 45.81609726 C-72.24601376 45.77666858 -67.58752926 45.74445757 -62.92871094 45.72900391 C-58.42862991 45.71380685 -53.92906511 45.67930755 -49.42921448 45.63169098 C-47.7165629 45.61690853 -46.0038376 45.60896079 -44.29112244 45.60811615 C-31.97553696 45.88212242 -31.97553696 45.88212242 -21 41 C-19.0534488 38.80174727 -19.0534488 38.80174727 -17.91015625 36.2109375 C-17.20487793 34.81016968 -17.20487793 34.81016968 -16.48535156 33.38110352 C-16.01581055 32.38908936 -15.54626953 31.3970752 -15.0625 30.375 C-14.5581543 29.35913818 -14.05380859 28.34327637 -13.53417969 27.29663086 C-12.50445491 25.21782925 -11.48472035 23.13404877 -10.47509766 21.04541016 C-8.67442711 17.32783908 -6.81633105 13.64098068 -4.95483398 9.95361328 C-3.28702695 6.64368379 -1.64258731 3.32250615 0 0 Z " fill="#FE5B5B" transform="translate(127,226)"/>
<path d="M0 0 C1.12535156 0.10054687 1.12535156 0.10054687 2.2734375 0.203125 C6.07768295 1.08783324 8.83300199 2.71783505 11.22061157 5.82946777 C11.66681854 6.6198645 12.11302551 7.41026123 12.57275391 8.22460938 C13.07768372 9.11494873 13.58261353 10.00528809 14.10284424 10.92260742 C16.63635587 15.62858573 19.07859356 20.3720383 21.4609375 25.15625 C21.98515289 26.20276733 22.50936829 27.24928467 23.04946899 28.32751465 C24.14545835 30.51814249 25.23946045 32.70976563 26.33154297 34.90234375 C28.01059901 38.27126627 29.69825432 41.63578474 31.38671875 45 C32.45363879 47.13516001 33.52006321 49.27056776 34.5859375 51.40625 C35.09208588 52.41449829 35.59823425 53.42274658 36.11972046 54.46154785 C36.58085236 55.39011597 37.04198425 56.31868408 37.51708984 57.27539062 C37.92535004 58.0935022 38.33361023 58.91161377 38.75424194 59.7545166 C39.625 61.75 39.625 61.75 39.625 63.75 C40.44111252 63.74446924 40.44111252 63.74446924 41.27371216 63.73882675 C54.53698313 63.65033376 67.80020209 63.5844773 81.06370544 63.54275131 C87.47796647 63.52189316 93.89201411 63.49360717 100.30615234 63.44824219 C106.49829196 63.40472231 112.69022655 63.38084956 118.88250732 63.37049103 C121.24276964 63.36311078 123.60302096 63.34869888 125.9631958 63.32707977 C129.27388598 63.29796511 132.58373327 63.2940475 135.89453125 63.29589844 C136.86629807 63.28151733 137.83806488 63.26713623 138.83927917 63.25231934 C144.92819829 63.28905855 149.55230672 64.25666994 154.625 67.75 C158.08850444 71.39112005 159.4938304 74.01200278 159.875 79.0625 C159.56034408 83.70367488 158.51140961 86.83781977 155.1953125 90.19921875 C151.08008262 93.77189344 148.0897812 94.87227189 142.74894714 94.89044189 C141.24121986 94.89900711 141.24121986 94.89900711 139.70303345 94.90774536 C138.60115692 94.90886322 137.4992804 94.90998108 136.36401367 94.91113281 C135.20278488 94.91609772 134.04155609 94.92106262 132.84513855 94.92617798 C128.99440931 94.94081169 125.14372126 94.9476036 121.29296875 94.953125 C119.29624641 94.9574225 117.29952407 94.96172052 115.30280191 94.9660995 C109.73834933 94.97791031 104.17390673 94.98544774 98.60944289 94.9888947 C91.41859577 94.99337388 84.22793889 95.01091626 77.03714961 95.0398953 C71.47525399 95.06152992 65.91341182 95.07159994 60.35147458 95.07293582 C57.03129664 95.07398265 53.7113381 95.08131463 50.3911953 95.09775543 C46.68537331 95.11479624 42.98001512 95.11294014 39.27416992 95.10644531 C38.17836609 95.1156601 37.08256226 95.12487488 35.95355225 95.1343689 C30.43500539 95.10404796 26.34927154 94.94300983 21.625 91.75 C17.53927591 87.54169273 14.98382235 83.03513963 12.41796875 77.796875 C12.04771072 77.0554425 11.6774527 76.31401001 11.29597473 75.55010986 C10.52171333 73.99558463 9.75130905 72.43913278 8.98461914 70.88085938 C7.80696837 68.48876391 6.61641272 66.10342973 5.42382812 63.71875 C4.67111506 62.20350227 3.91913532 60.68788998 3.16796875 59.171875 C2.81179977 58.4573114 2.4556308 57.7427478 2.08866882 57.00653076 C-0.375 51.98223353 -0.375 51.98223353 -0.375 49.75 C-1.035 49.75 -1.695 49.75 -2.375 49.75 C-2.61172928 50.54615723 -2.84845856 51.34231445 -3.09236145 52.16259766 C-4.70456602 56.67176079 -6.76825208 60.86392214 -8.8972168 65.1484375 C-9.58304588 66.53980927 -9.58304588 66.53980927 -10.2827301 67.95928955 C-11.79186932 71.01687227 -13.30733578 74.07125219 -14.82421875 77.125 C-15.34321054 78.17113464 -15.86220234 79.21726929 -16.39692116 80.29510498 C-19.14288755 85.82868391 -21.89404871 91.3596458 -24.64916992 96.88867188 C-27.48950017 102.59148355 -30.31102668 108.3033857 -33.12843609 114.01754761 C-35.30285707 118.41871941 -37.49149624 122.81270773 -39.68400002 127.20489502 C-40.73033305 129.30728848 -41.77126957 131.41237693 -42.80661583 133.52020264 C-44.2579947 136.47174977 -45.72934108 139.41250421 -47.20581055 142.3515625 C-47.62633698 143.21823547 -48.0468634 144.08490845 -48.48013306 144.97784424 C-51.54038563 150.99484608 -55.23108907 155.67804454 -61.375 158.75 C-66.84048215 159.17866527 -70.5601924 158.38451736 -75.375 155.75 C-79.44909538 151.4340812 -81.81569818 146.27114122 -84.41894531 141.00268555 C-84.90720795 140.02659836 -85.39547058 139.05051117 -85.89852905 138.04484558 C-87.50576832 134.82828247 -89.10447247 131.60755695 -90.703125 128.38671875 C-91.81789643 126.1515788 -92.93319917 123.91670376 -94.04901123 121.68208313 C-96.68118128 116.40747162 -99.30799335 111.13021974 -101.93220592 105.85164529 C-105.21494716 99.24927412 -108.50602155 92.65106481 -111.796875 86.05273438 C-117.66292934 74.28847688 -123.52158785 62.52055241 -129.375 50.75 C-132.10874168 54.27154526 -134.0679308 57.95935423 -135.9921875 61.96484375 C-136.68845339 63.3875405 -137.3850792 64.81006114 -138.08203125 66.23242188 C-139.16787364 68.45979717 -140.25051822 70.68857487 -141.32666016 72.9206543 C-142.37275093 75.08577999 -143.43155415 77.24431282 -144.4921875 79.40234375 C-144.80695038 80.06395004 -145.12171326 80.72555634 -145.4460144 81.4072113 C-148.70680968 88.00061364 -152.58628801 91.93364226 -159.375 94.75 C-162.10212706 95.01442747 -164.5890405 95.13147126 -167.30810547 95.09057617 C-168.0795137 95.09101425 -168.85092194 95.09145233 -169.64570618 95.09190369 C-172.17813024 95.08982505 -174.70988007 95.06653844 -177.2421875 95.04296875 C-179.00480793 95.03736949 -180.76743304 95.03310095 -182.53005981 95.03010559 C-187.15630107 95.01868278 -191.78225718 94.98923781 -196.40838623 94.95599365 C-201.13419742 94.92523736 -205.86005495 94.91158839 -210.5859375 94.89648438 C-219.84908321 94.86436554 -229.11201784 94.81320034 -238.375 94.75 C-239.50264183 92.02789181 -240.62871723 89.30515317 -241.75390625 86.58203125 C-242.07153931 85.81572388 -242.38917236 85.0494165 -242.71643066 84.2598877 C-248.375 70.55341168 -248.375 70.55341168 -248.375 64.75 C-222.965 64.42 -197.555 64.09 -171.375 63.75 C-162.04303973 44.84879892 -162.04303973 44.84879892 -152.73754883 25.93457031 C-151.56166656 23.56528004 -150.38488808 21.19643426 -149.20703125 18.828125 C-148.90818527 18.21475281 -148.60933929 17.60138062 -148.30143738 16.96942139 C-147.41388196 15.15014235 -146.50955592 13.33907495 -145.60473633 11.52832031 C-145.1006575 10.50683899 -144.59657867 9.48535767 -144.07722473 8.43292236 C-141.8190267 4.87371546 -139.13558228 2.63029114 -135.375 0.75 C-132.984375 0.51171875 -132.984375 0.51171875 -130.125 0.4375 C-129.19171875 0.40011719 -128.2584375 0.36273438 -127.296875 0.32421875 C-123.34515942 0.90007035 -121.49702554 2.23947306 -118.375 4.75 C-116.48451816 7.43133006 -115.06894084 10.29318575 -113.63305664 13.23779297 C-113.20824792 14.0767404 -112.7834392 14.91568783 -112.34575748 15.78005791 C-111.00789319 18.42980677 -109.69143686 21.0895538 -108.375 23.75 C-107.54541665 25.39639881 -106.71414245 27.04194686 -105.881073 28.68658447 C-103.76203437 32.87840065 -101.66251037 37.07963215 -99.57003593 41.28476334 C-98.20576055 44.02636473 -96.83878775 46.76660748 -95.47120667 49.50656128 C-92.58266907 55.29489444 -89.69736321 61.08483488 -86.8125 66.875 C-83.43438033 73.65488882 -80.05491895 80.43410248 -76.67213631 87.21166611 C-75.32490736 89.91260678 -73.98008679 92.6147376 -72.63536072 95.31692505 C-71.81879139 96.95369184 -71.00211167 98.59040355 -70.18530273 100.22705078 C-69.81187744 100.97906769 -69.43845215 101.73108459 -69.05371094 102.50588989 C-67.54103585 105.84809297 -67.54103585 105.84809297 -65.375 108.75 C-65.1186122 108.22985006 -64.86222441 107.70970013 -64.59806728 107.17378807 C-58.34689358 94.49445658 -52.07783135 81.82410668 -45.78896236 69.16342735 C-42.74808388 63.04049026 -39.71324134 56.91470098 -36.69262695 50.78173828 C-33.77656649 44.86110169 -30.84365821 38.94901573 -27.90042305 33.04182816 C-26.7812998 30.78882091 -25.66780561 28.53300836 -24.56010246 26.27436447 C-23.0054008 23.10673534 -21.43082727 19.94974956 -19.85131836 16.79443359 C-19.39959763 15.86222992 -18.94787689 14.93002625 -18.48246765 13.96957397 C-14.58016406 6.26277967 -9.49862993 -0.97255597 0 0 Z " fill="#E7EEED" transform="translate(257.375,177.25)"/>
<path d="M0 0 C7.10729474 0 7.10729474 0 11 3 C12.59561157 5.07946777 12.59561157 5.07946777 13.94775391 7.47460938 C14.45268372 8.36494873 14.95761353 9.25528809 15.47784424 10.17260742 C18.01135587 14.87858573 20.45359356 19.6220383 22.8359375 24.40625 C23.62226059 25.976026 23.62226059 25.976026 24.42446899 27.57751465 C25.52045835 29.76814249 26.61446045 31.95976563 27.70654297 34.15234375 C29.38559901 37.52126627 31.07325432 40.88578474 32.76171875 44.25 C33.82863879 46.38516001 34.89506321 48.52056776 35.9609375 50.65625 C36.72016006 52.16862244 36.72016006 52.16862244 37.49472046 53.71154785 C37.95585236 54.64011597 38.41698425 55.56868408 38.89208984 56.52539062 C39.30035004 57.3435022 39.70861023 58.16161377 40.12924194 59.0045166 C41 61 41 61 41 63 C41.81611252 62.99446924 41.81611252 62.99446924 42.64871216 62.98882675 C55.91198313 62.90033376 69.17520209 62.8344773 82.43870544 62.79275131 C88.85296647 62.77189316 95.26701411 62.74360717 101.68115234 62.69824219 C107.87329196 62.65472231 114.06522655 62.63084956 120.25750732 62.62049103 C122.61776964 62.61311078 124.97802096 62.59869888 127.3381958 62.57707977 C130.64888598 62.54796511 133.95873327 62.5440475 137.26953125 62.54589844 C138.24129807 62.53151733 139.21306488 62.51713623 140.21427917 62.50231934 C146.30319829 62.53905855 150.92730672 63.50666994 156 67 C159.46350444 70.64112005 160.8688304 73.26200278 161.25 78.3125 C160.93534408 82.95367488 159.88640961 86.08781977 156.5703125 89.44921875 C152.45508262 93.02189344 149.4647812 94.12227189 144.12394714 94.14044189 C143.11879562 94.14615204 142.1136441 94.15186218 141.07803345 94.15774536 C139.97615692 94.15886322 138.8742804 94.15998108 137.73901367 94.16113281 C136.57778488 94.16609772 135.41655609 94.17106262 134.22013855 94.17617798 C130.36940931 94.19081169 126.51872126 94.1976036 122.66796875 94.203125 C120.67124641 94.2074225 118.67452407 94.21172052 116.67780191 94.2160995 C111.11334933 94.22791031 105.54890673 94.23544774 99.98444289 94.2388947 C92.79359577 94.24337388 85.60293889 94.26091626 78.41214961 94.2898953 C72.85025399 94.31152992 67.28841182 94.32159994 61.72647458 94.32293582 C58.40629664 94.32398265 55.0863381 94.33131463 51.7661953 94.34775543 C48.06037331 94.36479624 44.35501512 94.36294014 40.64916992 94.35644531 C39.55336609 94.3656601 38.45756226 94.37487488 37.32855225 94.3843689 C31.81000539 94.35404796 27.72427154 94.19300983 23 91 C18.91427591 86.79169273 16.35882235 82.28513963 13.79296875 77.046875 C13.42271072 76.3054425 13.0524527 75.56401001 12.67097473 74.80010986 C11.89671333 73.24558463 11.12630905 71.68913278 10.35961914 70.13085938 C9.18196837 67.73876391 7.99141272 65.35342973 6.79882812 62.96875 C6.04611506 61.45350227 5.29413532 59.93788998 4.54296875 58.421875 C4.18679977 57.7073114 3.8306308 56.9927478 3.46366882 56.25653076 C1 51.23223353 1 51.23223353 1 49 C0.34 48.67 -0.32 48.34 -1 48 C-0.67 32.16 -0.34 16.32 0 0 Z " fill="#C6DEE4" transform="translate(256,178)"/>
</svg>
