<?xml version="1.0" encoding="UTF-8"?>
<svg version="1.1" xmlns="http://www.w3.org/2000/svg" width="512" height="512">
<path d="M0 0 C1.31438588 -0.0060911 2.62877177 -0.01218221 3.98298752 -0.01845789 C7.62535743 -0.034852 11.26751082 -0.03254062 14.90990472 -0.02708292 C18.84048634 -0.02441206 22.77101032 -0.03894556 26.7015686 -0.05117798 C34.39974657 -0.07223177 42.09784921 -0.07677286 49.79605256 -0.07499009 C56.0534784 -0.07368245 62.31088074 -0.07748673 68.56830215 -0.08491516 C70.37077494 -0.08701436 72.17324773 -0.08911196 73.97572052 -0.09120798 C75.32143516 -0.09277327 75.32143516 -0.09277327 76.69433595 -0.09437019 C93.66151652 -0.11327233 110.62865385 -0.11222243 127.59584059 -0.10540086 C143.11625252 -0.09982532 158.63649938 -0.12065134 174.15687273 -0.15376133 C190.09481044 -0.18749811 206.03266908 -0.20266668 221.97064316 -0.1980443 C230.91795801 -0.19579961 239.86512029 -0.20104272 248.81240463 -0.22593689 C256.42957247 -0.24694986 264.04650408 -0.25054211 271.66368161 -0.2316373 C275.5493339 -0.22247936 279.43454575 -0.22133769 283.32016373 -0.24199295 C287.53442368 -0.26414727 291.74764566 -0.24748652 295.96191406 -0.22705078 C297.80014891 -0.24582755 297.80014891 -0.24582755 299.67551982 -0.26498365 C305.76997645 -0.20153159 310.27361152 0.27074689 315.42948067 3.63891363 C320.27589729 8.70776412 321.70276819 13.41195801 321.61409855 20.292449 C321.62021191 21.06127404 321.62632527 21.83009908 321.63262388 22.62222186 C321.64821159 25.19580318 321.63536313 27.76844047 321.62260437 30.34202576 C321.62793007 32.20678096 321.63499589 34.07153187 321.64365143 35.93627459 C321.66230248 41.05861774 321.65596523 46.18067226 321.64549839 51.30302751 C321.63851342 56.82801555 321.65449899 62.35294388 321.66749573 67.87791443 C321.68915266 78.70087754 321.68900448 89.52373557 321.68087018 100.34671324 C321.67457373 109.14225542 321.67570397 117.93776693 321.68214226 126.73330879 C321.68304391 127.98451386 321.68394557 129.23571893 321.68487455 130.5248393 C321.68672572 133.06654672 321.68858828 135.60825413 321.6904621 138.14996154 C321.70233478 155.21840333 321.70673783 172.28683465 321.69552708 189.35527706 C321.69487012 190.35636053 321.69487012 190.35636053 321.69419989 191.3776679 C321.69059308 196.79730457 321.6867583 202.21694108 321.68290896 207.63657757 C321.66806098 228.77782649 321.67684151 249.91894622 321.7048645 271.06018066 C321.73629116 294.81463275 321.75119492 318.56901861 321.74106449 342.32349783 C321.74004192 344.85622981 321.73904731 347.3889618 321.73808098 349.9216938 C321.73760459 351.16788103 321.7371282 352.41406826 321.73663737 353.69801874 C321.73447185 362.48335978 321.74428472 371.26864072 321.75885201 380.05396843 C321.77635616 390.75995186 321.77628543 401.4657597 321.75350035 412.17173617 C321.74234085 417.63502735 321.73923454 423.09800895 321.75780106 428.56128693 C321.77457735 433.56209176 321.76829319 438.56231631 321.74358427 443.56308336 C321.73869124 445.37255778 321.74224311 447.18207876 321.75507171 448.99151432 C321.86254188 465.32824366 321.86254188 465.32824366 317.47867817 471.04180723 C312.55192343 475.90337852 308.07485546 477.53522274 301.34231567 477.49206543 C300.45286255 477.48884277 299.56340942 477.48562012 298.64700317 477.4822998 C297.72661255 477.4739209 296.80622192 477.46554199 295.85794067 477.45690918 C294.9220813 477.45239746 293.98622192 477.44788574 293.02200317 477.4432373 C290.71725026 477.43147836 288.41262841 477.41504344 286.10794067 477.39440918 C286.14274536 478.67315918 286.17755005 479.95190918 286.21340942 481.26940918 C286.24156855 482.97772927 286.26886641 484.6860637 286.29544067 486.39440918 C286.33314575 487.65317871 286.33314575 487.65317871 286.37161255 488.93737793 C286.45331527 495.96381155 285.16151686 501.20782544 281.29544067 507.20690918 C276.06590769 512.43644217 271.01845131 512.74818882 263.94300663 512.80496359 C262.09807962 512.7969717 262.09807962 512.7969717 260.21588135 512.78881836 C258.90149547 512.79490946 257.58710958 512.80100057 256.23289382 512.80727625 C252.59052391 512.82367036 248.94837053 512.82135898 245.30597663 512.81590128 C241.37539501 512.81323042 237.44487103 512.82776392 233.51431274 512.83999634 C225.81613478 512.86105013 218.11803214 512.86559122 210.41982879 512.86380845 C204.16240295 512.86250081 197.90500061 512.86630509 191.64757919 512.87373352 C189.8451064 512.87583272 188.04263361 512.87793032 186.24016082 512.88002634 C184.89444619 512.88159163 184.89444619 512.88159163 183.5215454 512.88318855 C166.55436483 512.90209069 149.58722749 512.90104079 132.62004076 512.89421922 C117.09962883 512.88864367 101.57938197 512.9094697 86.05900861 512.94257969 C70.1210709 512.97631647 54.18321227 512.99148504 38.24523818 512.98686266 C29.29792334 512.98461797 20.35076106 512.98986108 11.40347672 513.01475525 C3.78630888 513.03576822 -3.83062273 513.03936047 -11.44780026 513.02045566 C-15.33345255 513.01129772 -19.2186644 513.01015605 -23.10428238 513.03081131 C-27.31854233 513.05296563 -31.53176432 513.03630488 -35.74603271 513.01586914 C-36.97152262 513.02838699 -38.19701252 513.04090484 -39.45963848 513.05380201 C-45.55409511 512.99034995 -50.05773017 512.51807147 -55.21359932 509.14990473 C-60.06152781 504.07947298 -61.48687605 499.37616295 -61.39542389 492.49357605 C-61.40414453 491.33988909 -61.40414453 491.33988909 -61.41304135 490.16289532 C-61.42762741 487.58829718 -61.41376305 485.0146545 -61.3999939 482.44006348 C-61.40460337 480.57459622 -61.41095659 478.70913259 -61.41890287 476.84367657 C-61.43561293 471.71939612 -61.42734213 466.59541337 -61.414958 461.4711318 C-61.40591674 455.94412301 -61.41987266 450.41716581 -61.43087769 444.89016724 C-61.44867733 434.06352381 -61.44481645 423.23699121 -61.43322712 412.41034341 C-61.42419878 403.61241002 -61.42296621 394.81450773 -61.42732239 386.01657104 C-61.42793532 384.76507725 -61.42854825 383.51358346 -61.42917976 382.22416562 C-61.43045864 379.68189247 -61.43175549 377.13961932 -61.43307012 374.59734619 C-61.4441548 351.43051133 -61.43265362 328.26373444 -61.41169973 305.09691291 C-61.39271734 283.94897562 -61.39441585 262.80113468 -61.4135437 241.65319824 C-61.43496288 217.89253138 -61.44338148 194.13191117 -61.43109465 170.37123203 C-61.42982043 167.83823714 -61.42856295 165.30524223 -61.42732239 162.77224731 C-61.42670529 161.52591937 -61.42608818 160.27959143 -61.42545238 158.99549598 C-61.42199664 150.2066908 -61.42783267 141.41791976 -61.4372406 132.62911987 C-61.44845139 121.92056326 -61.44543983 111.21212396 -61.42411762 100.50358081 C-61.4135949 95.03843017 -61.40950632 89.57347521 -61.42271423 84.10832596 C-61.43461847 79.10702544 -61.42810792 74.10610231 -61.40680403 69.10483611 C-61.40232963 67.29403482 -61.40462295 65.48320177 -61.41430718 63.67242086 C-61.42645358 61.21290667 -61.41401468 58.75468867 -61.39542389 56.29524231 C-61.40478855 55.5904682 -61.41415322 54.88569409 -61.42380166 54.15956318 C-61.33389445 48.21748881 -59.38125391 43.82901616 -55.11080933 39.65222168 C-54.54362183 39.27839355 -53.97643433 38.90456543 -53.39205933 38.51940918 C-52.82487183 38.1301123 -52.25768433 37.74081543 -51.67330933 37.33972168 C-48.23372945 35.5143306 -44.97494064 35.27208302 -41.12643433 35.29675293 C-40.2369812 35.29997559 -39.34752808 35.30319824 -38.43112183 35.30651855 C-37.05053589 35.31908691 -37.05053589 35.31908691 -35.64205933 35.33190918 C-34.70619995 35.3364209 -33.77034058 35.34093262 -32.80612183 35.34558105 C-30.50136892 35.35734 -28.19674706 35.37377492 -25.89205933 35.39440918 C-25.92686401 34.11565918 -25.9616687 32.83690918 -25.99752808 31.51940918 C-26.0256872 29.81108909 -26.05298506 28.10275466 -26.07955933 26.39440918 C-26.10469604 25.55522949 -26.12983276 24.7160498 -26.1557312 23.85144043 C-26.23743392 16.82500681 -24.94563551 11.58099292 -21.07955933 5.58190918 C-14.91484488 -0.58280527 -8.20490682 -0.03554217 0 0 Z " fill="#C7EEFD" transform="translate(125.89205932617188,-0.3944091796875)"/>
<path d="M0 0 C1.31438588 -0.0060911 2.62877177 -0.01218221 3.98298752 -0.01845789 C7.62535743 -0.034852 11.26751082 -0.03254062 14.90990472 -0.02708292 C18.84048634 -0.02441206 22.77101032 -0.03894556 26.7015686 -0.05117798 C34.39974657 -0.07223177 42.09784921 -0.07677286 49.79605256 -0.07499009 C56.0534784 -0.07368245 62.31088074 -0.07748673 68.56830215 -0.08491516 C70.37077494 -0.08701436 72.17324773 -0.08911196 73.97572052 -0.09120798 C75.32143516 -0.09277327 75.32143516 -0.09277327 76.69433595 -0.09437019 C93.66151652 -0.11327233 110.62865385 -0.11222243 127.59584059 -0.10540086 C143.11625252 -0.09982532 158.63649938 -0.12065134 174.15687273 -0.15376133 C190.09481044 -0.18749811 206.03266908 -0.20266668 221.97064316 -0.1980443 C230.91795801 -0.19579961 239.86512029 -0.20104272 248.81240463 -0.22593689 C256.42957247 -0.24694986 264.04650408 -0.25054211 271.66368161 -0.2316373 C275.5493339 -0.22247936 279.43454575 -0.22133769 283.32016373 -0.24199295 C287.53442368 -0.26414727 291.74764566 -0.24748652 295.96191406 -0.22705078 C297.80014891 -0.24582755 297.80014891 -0.24582755 299.67551982 -0.26498365 C305.76997645 -0.20153159 310.27361152 0.27074689 315.42948067 3.63891363 C320.27589729 8.70776412 321.70276819 13.41195801 321.61409855 20.292449 C321.62021191 21.06127404 321.62632527 21.83009908 321.63262388 22.62222186 C321.64821159 25.19580318 321.63536313 27.76844047 321.62260437 30.34202576 C321.62793007 32.20678096 321.63499589 34.07153187 321.64365143 35.93627459 C321.66230248 41.05861774 321.65596523 46.18067226 321.64549839 51.30302751 C321.63851342 56.82801555 321.65449899 62.35294388 321.66749573 67.87791443 C321.68915266 78.70087754 321.68900448 89.52373557 321.68087018 100.34671324 C321.67457373 109.14225542 321.67570397 117.93776693 321.68214226 126.73330879 C321.68304391 127.98451386 321.68394557 129.23571893 321.68487455 130.5248393 C321.68672572 133.06654672 321.68858828 135.60825413 321.6904621 138.14996154 C321.70233478 155.21840333 321.70673783 172.28683465 321.69552708 189.35527706 C321.69487012 190.35636053 321.69487012 190.35636053 321.69419989 191.3776679 C321.69059308 196.79730457 321.6867583 202.21694108 321.68290896 207.63657757 C321.66806098 228.77782649 321.67684151 249.91894622 321.7048645 271.06018066 C321.73629116 294.81463275 321.75119492 318.56901861 321.74106449 342.32349783 C321.74004192 344.85622981 321.73904731 347.3889618 321.73808098 349.9216938 C321.73760459 351.16788103 321.7371282 352.41406826 321.73663737 353.69801874 C321.73447185 362.48335978 321.74428472 371.26864072 321.75885201 380.05396843 C321.77635616 390.75995186 321.77628543 401.4657597 321.75350035 412.17173617 C321.74234085 417.63502735 321.73923454 423.09800895 321.75780106 428.56128693 C321.77457735 433.56209176 321.76829319 438.56231631 321.74358427 443.56308336 C321.73869124 445.37255778 321.74224311 447.18207876 321.75507171 448.99151432 C321.86254188 465.32824366 321.86254188 465.32824366 317.47867817 471.04180723 C312.55192343 475.90337852 308.07485546 477.53522274 301.34231567 477.49206543 C300.45286255 477.48884277 299.56340942 477.48562012 298.64700317 477.4822998 C297.72661255 477.4739209 296.80622192 477.46554199 295.85794067 477.45690918 C294.9220813 477.45239746 293.98622192 477.44788574 293.02200317 477.4432373 C290.71725026 477.43147836 288.41262841 477.41504344 286.10794067 477.39440918 C286.14274536 478.67315918 286.17755005 479.95190918 286.21340942 481.26940918 C286.24156855 482.97772927 286.26886641 484.6860637 286.29544067 486.39440918 C286.33314575 487.65317871 286.33314575 487.65317871 286.37161255 488.93737793 C286.45331527 495.96381155 285.16151686 501.20782544 281.29544067 507.20690918 C277.63443619 510.86791367 274.00259252 512.54691226 268.84671021 512.73498535 C267.22798014 512.73451532 265.60919628 512.71786016 263.99075317 512.68737793 C263.13359711 512.68313309 262.27644104 512.67888824 261.39331055 512.67451477 C258.67285903 512.65780804 255.95316585 512.62017137 253.23294067 512.58190918 C251.38138892 512.56685196 249.52982548 512.55316538 247.67825317 512.54089355 C243.15452634 512.50793083 238.6313618 512.45620455 234.10794067 512.39440918 C236.27681153 510.7596976 238.45281612 509.15047289 240.67044067 507.58190918 C244.26595409 504.35516637 245.91056735 501.51532815 246.36657715 496.61517334 C246.45552382 493.11315919 246.4447307 489.62385237 246.40090942 486.12097168 C246.39666458 484.84209076 246.39241974 483.56320984 246.38804626 482.24557495 C246.37413037 478.86206216 246.34722391 475.47916691 246.31393433 472.0958252 C246.28312655 468.63681344 246.26951818 465.17773763 246.25442505 461.71862793 C246.22138821 454.94371891 246.17121218 448.16909967 246.10794067 441.39440918 C245.63932114 441.88074829 245.1707016 442.3670874 244.68788147 442.86816406 C240.82489026 445.15343801 237.24138029 444.8289462 232.82888794 444.81433105 C231.89023895 444.8228006 230.95158997 444.83127014 229.98449707 444.83999634 C226.88097595 444.86339978 223.77794962 444.8643877 220.67434692 444.86315918 C218.51727601 444.87025861 216.36020699 444.87795729 214.20314026 444.88623047 C209.68136343 444.8996829 205.15976122 444.90124053 200.63796997 444.89538574 C194.84265934 444.88948835 189.04818608 444.92007991 183.25303745 444.96050262 C178.79805485 444.98634833 174.34327471 444.98925987 169.88822746 444.98561096 C167.75157504 444.98730507 165.61491355 444.9969754 163.47833443 445.01475525 C160.49044829 445.03688318 157.50426808 445.02727409 154.51638794 445.00964355 C153.63362686 445.0229068 152.75086578 445.03617004 151.84135437 445.04983521 C147.45880492 444.98972852 145.63553966 444.78990285 142.02381897 442.08251953 C140.10794067 439.39440918 140.10794067 439.39440918 140.04544067 435.76940918 C141.25553205 431.92558952 141.60946435 431.22164507 145.10794067 429.39440918 C148.20582159 428.95146355 151.27793186 428.98481575 154.40286255 429.00622559 C155.81324547 428.99834015 155.81324547 428.99834015 157.25212097 428.99029541 C160.3604798 428.97709052 163.46832662 428.98583537 166.57669067 428.99597168 C168.73615619 428.99395109 170.89562105 428.99103978 173.05508423 428.98727417 C177.58106991 428.98285015 182.10687798 428.98928451 186.63284302 429.0032959 C192.43703092 429.02038769 198.24080265 429.01054694 204.04497528 428.99257851 C208.50419251 428.98174287 212.96331093 428.98518603 217.42253113 428.99296188 C219.56278024 428.99496449 221.7030383 428.9925025 223.84327698 428.98552322 C226.83343301 428.97791252 229.82291316 428.98950793 232.8130188 429.00622559 C233.69937515 429.00015289 234.58573151 428.9940802 235.49894714 428.98782349 C236.3148381 428.99628296 237.13072906 429.00474243 237.97134399 429.01345825 C239.03098736 429.01515487 239.03098736 429.01515487 240.11203766 429.01688576 C242.10794067 429.39440918 242.10794067 429.39440918 246.10794067 432.39440918 C246.10794067 423.81440918 246.10794067 415.23440918 246.10794067 406.39440918 C245.11794067 407.05440918 244.12794067 407.71440918 243.10794067 408.39440918 C241.20385075 408.65167809 241.20385075 408.65167809 239.01567078 408.66183472 C237.76865387 408.67462967 237.76865387 408.67462967 236.4964447 408.68768311 C235.5877916 408.68677673 234.67913849 408.68587036 233.74295044 408.68493652 C232.78333405 408.69165375 231.82371765 408.69837097 230.83502197 408.70529175 C227.65641126 408.72432145 224.47801109 408.72819834 221.29934692 408.73034668 C219.09361178 408.73677069 216.8878775 408.74349875 214.68214417 408.7505188 C210.0560712 408.7625037 205.43007299 408.76619833 200.8039856 408.76501465 C194.87080027 408.76481129 188.93809303 408.79212583 183.0050211 408.82655907 C178.44887583 408.84877477 173.89284664 408.85285384 169.33665276 408.8517952 C167.14893888 408.85415872 164.96122217 408.86302426 162.77356148 408.87845993 C159.7161401 408.89801366 156.65976295 408.89232363 153.60232544 408.88024902 C152.69569656 408.89148804 151.78906769 408.90272705 150.85496521 408.91430664 C144.74533336 408.85286364 144.74533336 408.85286364 141.54579163 406.55154419 C139.57374987 403.59298975 139.52696628 401.88025557 140.10794067 398.39440918 C141.55351257 396.23826599 141.55351257 396.23826599 144.10794067 394.39440918 C147.22869851 393.79931733 150.30995625 393.85843674 153.47879028 393.8927002 C154.42719284 393.88729721 155.3755954 393.88189423 156.35273743 393.87632751 C159.48890355 393.8638168 162.6241558 393.88034843 165.76028442 393.89831543 C167.93977405 393.89816048 170.11926396 393.89667224 172.29875183 393.89390564 C176.86767755 393.89252055 181.43628977 393.90509739 186.00515747 393.92785645 C191.86083019 393.95622429 197.71598125 393.95350965 203.57169247 393.94076633 C208.07299755 393.93380954 212.57418217 393.94159879 217.07547188 393.95402336 C219.23442688 393.95853902 221.39339482 393.95887366 223.552351 393.95495796 C226.57106885 393.95204624 229.58906934 393.968552 232.60769653 393.99035645 C233.49980835 393.9858548 234.39192017 393.98135315 235.31106567 393.97671509 C236.13674545 393.98661972 236.96242523 393.99652435 237.81312561 394.00672913 C238.52600707 394.00915902 239.23888853 394.01158892 239.97337246 394.01409245 C242.10794067 394.39440918 242.10794067 394.39440918 247.10794067 397.39440918 C247.10794067 388.48440918 247.10794067 379.57440918 247.10794067 370.39440918 C245.78794067 371.38440918 244.46794067 372.37440918 243.10794067 373.39440918 C241.08080292 373.77472591 241.08080292 373.77472591 238.89541626 373.78208923 C237.64633736 373.79694618 237.64633736 373.79694618 236.37202454 373.81210327 C235.46696671 373.80760162 234.56190887 373.80309998 233.62942505 373.79846191 C232.18978142 373.80875679 232.18978142 373.80875679 230.72105408 373.81925964 C227.54778257 373.83756482 224.37500366 373.83368513 221.20169067 373.82800293 C218.99738402 373.83256261 216.79307879 373.83786753 214.58877563 373.84388733 C209.96864039 373.8528255 205.34867794 373.8503868 200.72854614 373.8404541 C194.80320922 373.82895768 188.87846762 373.84918305 182.95320892 373.87837124 C178.40133873 373.89670153 173.84961207 373.89644719 169.29771423 373.89073372 C167.11279973 373.89058015 164.9278757 373.8966539 162.74299622 373.90902519 C159.69043413 373.92387498 156.63898321 373.91330237 153.5864563 373.89611816 C152.68139847 373.90578613 151.77634064 373.9154541 150.84385681 373.92541504 C144.74548234 373.85339527 144.74548234 373.85339527 141.54678345 371.55055237 C139.57301161 368.59280411 139.52694152 366.88040409 140.10794067 363.39440918 C141.54579163 361.23727417 141.54579163 361.23727417 144.10794067 359.39440918 C147.27029504 358.80278033 150.39330734 358.86878878 153.60232544 358.90856934 C154.56369415 358.90477264 155.52506287 358.90097595 156.51556396 358.89706421 C159.6938233 358.88965372 162.87116882 358.91104713 166.04934692 358.93347168 C168.25604647 358.93585572 170.46274808 358.93676151 172.66944885 358.93624878 C177.29385079 358.93937756 181.91794285 358.95595031 186.54226685 358.98278809 C192.4765306 359.01678774 198.41045406 359.02441614 204.34480381 359.02289772 C208.90091717 359.02344095 213.45695581 359.03440023 218.01304436 359.0489006 C220.20156221 359.05527448 222.39008855 359.05920887 224.57861519 359.06068802 C227.63354108 359.06501359 230.68810256 359.08249819 233.74295044 359.10388184 C234.65160355 359.10297546 235.56025665 359.10206909 236.4964447 359.10113525 C237.74346161 359.11393021 237.74346161 359.11393021 239.01567078 359.12698364 C239.73777017 359.13033533 240.45986956 359.13368702 241.20385075 359.13714027 C243.10794067 359.39440918 243.10794067 359.39440918 246.10794067 361.39440918 C246.10794067 346.87440918 246.10794067 332.35440918 246.10794067 317.39440918 C245.77794067 317.72440918 245.44794067 318.05440918 245.10794067 318.39440918 C243.49301637 318.49478202 241.87369887 318.52516904 240.25566101 318.52812195 C239.20540741 318.53238693 238.15515381 318.53665192 237.07307434 318.54104614 C235.91096939 318.54059296 234.74886444 318.54013977 233.55154419 318.53967285 C232.33541443 318.54303146 231.11928467 318.54639008 229.86630249 318.54985046 C226.52127378 318.55774629 223.17630711 318.56102941 219.83127332 318.56166625 C217.04287059 318.56261374 214.25447387 318.56629019 211.46607345 318.56983835 C204.88958015 318.57799049 198.31310055 318.58042189 191.73660278 318.57971191 C184.94343131 318.57911094 178.15033919 318.58966489 171.35718781 318.60545558 C165.53297696 318.61851355 159.70879211 318.62389655 153.88456672 318.6232565 C150.40245811 318.623001 146.92041997 318.62588098 143.43832588 318.63643456 C139.55676267 318.64787693 135.67530906 318.64337942 131.79373169 318.6373291 C130.63365097 318.64294861 129.47357025 318.64856812 128.27833557 318.65435791 C127.22526215 318.65016342 126.17218872 318.64596893 125.08720398 318.64164734 C124.1685534 318.64219211 123.24990282 318.64273687 122.30341434 318.64329815 C120.10794067 318.39440918 120.10794067 318.39440918 118.10794067 316.39440918 C117.85397339 313.35803223 117.85397339 313.35803223 117.84915161 309.40612793 C117.84389465 308.3278624 117.84389465 308.3278624 117.83853149 307.22781372 C117.82971103 304.84574802 117.83556431 302.46397803 117.84231567 300.08190918 C117.84096911 298.43046003 117.83902865 296.77901127 117.83651733 295.12756348 C117.83356565 291.66406485 117.83786511 288.20066928 117.84719849 284.73718262 C117.85859309 280.29145607 117.85203385 275.84597098 117.84005356 271.4002533 C117.83283613 267.98940197 117.83512234 264.57860816 117.84030914 261.16775513 C117.84164597 259.52824882 117.83999678 257.88873733 117.83535004 256.24923706 C117.83028667 253.96024692 117.83799205 251.6716511 117.84915161 249.38269043 C117.8507428 248.07856201 117.85233398 246.77443359 117.85397339 245.43078613 C118.10794067 242.39440918 118.10794067 242.39440918 120.10794067 240.39440918 C122.30341434 240.14552021 122.30341434 240.14552021 125.08720398 240.14717102 C126.1402774 240.14297653 127.19335083 240.13878204 128.27833557 240.13446045 C129.43841629 240.14007996 130.59849701 240.14569946 131.79373169 240.15148926 C133.01161377 240.14959091 134.22949585 240.14769257 135.48428345 240.14573669 C138.82925841 240.14266073 142.17398761 240.14855183 145.51893353 240.15868974 C149.01384667 240.16745776 152.50875548 240.16571305 156.00367737 240.16532898 C161.87235752 240.16626609 167.74098602 240.17495692 173.60964966 240.18859863 C180.40341 240.20433196 187.19711379 240.20959651 193.99089104 240.20886308 C200.51666525 240.20825362 207.04242096 240.21335105 213.56818962 240.22165489 C216.35007814 240.22519357 219.13196012 240.22701897 221.91385078 240.2275486 C225.79310243 240.22873576 229.67230659 240.23843213 233.55154419 240.24914551 C234.71364914 240.24869232 235.87575409 240.24823914 237.07307434 240.24777222 C238.12332794 240.2520372 239.17358154 240.25630219 240.25566101 240.26069641 C241.17393456 240.26237226 242.09220812 240.2640481 243.03830814 240.26577473 C245.10794067 240.39440918 245.10794067 240.39440918 246.10794067 241.39440918 C246.10794067 222.25440918 246.10794067 203.11440918 246.10794067 183.39440918 C244.78794067 184.38440918 243.46794067 185.37440918 242.10794067 186.39440918 C240.00550938 186.77751923 240.00550938 186.77751923 237.71232605 186.78881836 C236.83898117 186.80016815 235.96563629 186.81151794 235.06582642 186.82321167 C234.11558594 186.82028107 233.16534546 186.81735046 232.18630981 186.81433105 C231.17938583 186.8228006 230.17246185 186.83127014 229.13502502 186.83999634 C225.80425409 186.86340852 222.47394394 186.86438748 219.14309692 186.86315918 C216.82908441 186.87025806 214.51507367 186.87795666 212.20106506 186.88623047 C207.34974271 186.89968491 202.49858312 186.9012396 197.64724731 186.89538574 C191.42822029 186.88948813 185.20997351 186.92008017 178.99109745 186.96050262 C174.21185595 186.98634258 169.43280324 186.98926038 164.65350151 186.98561096 C162.36054968 186.9873056 160.06758945 186.99698095 157.77470589 187.01475525 C154.56892686 187.03687142 151.3647393 187.02727941 148.15896606 187.00964355 C147.21074982 187.0229068 146.26253357 187.03617004 145.2855835 187.04983521 C140.73642567 186.99163769 138.73759068 186.87219831 135.01490784 184.04736328 C133.10794067 181.39440918 133.10794067 181.39440918 132.54544067 178.33190918 C133.26822139 174.55738768 133.9723005 173.63085421 137.10794067 171.39440918 C140.44152387 170.79327626 143.7419547 170.85865229 147.12136841 170.8927002 C148.13804596 170.88729721 149.15472351 170.88189423 150.20220947 170.87632751 C153.56561322 170.86381232 156.92816559 170.88035162 160.29153442 170.89831543 C162.62796575 170.8981605 164.96439733 170.89667244 167.30082703 170.89390564 C172.19929353 170.89252035 177.09746771 170.90510092 181.99588013 170.92785645 C188.27528109 170.9562254 194.55419561 170.95350956 200.83363247 170.94076633 C205.65919652 170.93381106 210.48464814 170.94159705 215.31019783 170.95402336 C217.62545401 170.95854041 219.94072226 170.95887245 222.25597954 170.95495796 C225.49261072 170.95204772 228.72857188 170.96854519 231.96511841 170.99035645 C233.40146889 170.98360397 233.40146889 170.98360397 234.86683655 170.97671509 C235.75141541 170.98661972 236.63599426 170.99652435 237.54737854 171.00672913 C238.69413134 171.01037397 238.69413134 171.01037397 239.86405087 171.01409245 C242.10794067 171.39440918 242.10794067 171.39440918 247.10794067 174.39440918 C247.10794067 166.14440918 247.10794067 157.89440918 247.10794067 149.39440918 C245.45794067 150.38440918 243.80794067 151.37440918 242.10794067 152.39440918 C239.86405087 152.77751923 239.86405087 152.77751923 237.54737854 152.78881836 C236.66279968 152.80016815 235.77822083 152.81151794 234.86683655 152.82321167 C233.43048607 152.81881577 233.43048607 152.81881577 231.96511841 152.81433105 C230.94668854 152.8228006 229.92825867 152.83127014 228.87896729 152.83999634 C225.5163623 152.86337467 222.15421449 152.86438846 218.79153442 152.86315918 C216.4541353 152.87025888 214.11673792 152.8779576 211.77934265 152.88623047 C206.88272249 152.89967624 201.98626358 152.90124294 197.08963013 152.89538574 C190.80888183 152.88948164 184.52890438 152.92011108 178.24830532 152.96050262 C173.42278358 152.98632226 168.59744905 152.98926238 163.77186775 152.98561096 C161.45576091 152.98730676 159.13964584 152.99699319 156.82360649 153.01475525 C153.58899778 153.03683684 150.3559707 153.02729797 147.12136841 153.00964355 C146.16177719 153.0229068 145.20218597 153.03617004 144.21351624 153.04983521 C137.76227168 152.96782786 137.76227168 152.96782786 134.47428894 150.08642578 C132.62671883 146.44629279 133.08094037 144.28233891 134.10794067 140.39440918 C136.5349242 137.96742565 137.11434531 138.14360357 140.43508911 138.14044189 C141.34367676 138.13480225 142.2522644 138.1291626 143.18838501 138.12335205 C144.68770569 138.12942474 144.68770569 138.12942474 146.21731567 138.13562012 C147.26778076 138.13211548 148.31824585 138.12861084 149.40054321 138.125 C152.88640882 138.11616939 156.37207286 138.12203659 159.85794067 138.12878418 C162.27167805 138.12743791 164.68541517 138.12549771 167.09915161 138.12298584 C172.16330542 138.12003277 177.22738879 138.12433812 182.29153442 138.13366699 C188.79539598 138.14506157 195.2990925 138.13850308 201.802948 138.12652206 C206.78878024 138.11930842 211.7745731 138.12158912 216.76040649 138.12677765 C219.15908833 138.12811552 221.5577737 138.12646166 223.95645142 138.12181854 C227.30391972 138.11676148 230.6511176 138.12445212 233.99856567 138.13562012 C234.99811279 138.13157166 235.99765991 138.12752319 237.02749634 138.12335205 C238.39037781 138.13181152 238.39037781 138.13181152 239.78079224 138.14044189 C240.96877411 138.14157297 240.96877411 138.14157297 242.18075562 138.1427269 C244.10794067 138.39440918 244.10794067 138.39440918 246.10794067 140.39440918 C246.10794067 132.47440918 246.10794067 124.55440918 246.10794067 116.39440918 C244.62294067 117.38440918 244.62294067 117.38440918 243.10794067 118.39440918 C241.09452915 118.65167809 241.09452915 118.65167809 238.74992371 118.66183472 C237.85968002 118.67036469 236.96943634 118.67889465 236.05221558 118.68768311 C234.59105316 118.68632355 234.59105316 118.68632355 233.10037231 118.68493652 C232.07248093 118.69165375 231.04458954 118.69837097 229.98554993 118.70529175 C226.57968341 118.72432656 223.17401335 118.7281986 219.76809692 118.73034668 C217.4054201 118.73677033 215.04274409 118.74349836 212.68006897 118.7505188 C207.72444819 118.76250498 202.7688972 118.76619819 197.81326294 118.76501465 C191.45635165 118.76481128 185.09988655 118.79212616 178.74308109 118.82655907 C173.86267533 118.84877097 168.98237795 118.85285395 164.1019268 118.8517952 C161.75791319 118.85415928 159.41389695 118.86302791 157.06993294 118.87845993 C153.79460299 118.8980058 150.52024845 118.89232648 147.24490356 118.88024902 C146.27281952 118.89148804 145.30073547 118.90272705 144.29919434 118.91430664 C137.75528609 118.85283655 137.75528609 118.85283655 134.50563049 116.55154419 C132.5853888 113.58792484 132.53056142 111.85868473 133.10794067 108.39440918 C134.50662231 106.23826599 134.50662231 106.23826599 137.10794067 104.39440918 C140.47736005 103.79287187 143.8142206 103.85868281 147.22903442 103.8927002 C148.25707184 103.88729721 149.28510925 103.88189423 150.34429932 103.87632751 C153.74497197 103.86381281 157.14480257 103.88035017 160.54544067 103.89831543 C162.90668787 103.89816051 165.26793533 103.89667264 167.62918091 103.89390564 C172.57892085 103.89252041 177.52837146 103.90510083 182.47805786 103.92785645 C188.82705782 103.95624107 195.17557689 103.95350522 201.52461243 103.94076633 C206.40074785 103.93381589 211.27677186 103.94159125 216.15289307 103.95402336 C218.49409559 103.95854401 220.83531005 103.95886933 223.17651367 103.95495796 C226.44687474 103.95205204 229.71656993 103.96852384 232.98684692 103.99035645 C233.95735992 103.9858548 234.92787292 103.98135315 235.92779541 103.97671509 C236.81941376 103.98661972 237.7110321 103.99652435 238.62966919 104.00672913 C239.40246719 104.00915902 240.1752652 104.01158892 240.97148132 104.01409245 C243.64700582 104.49036958 245.06876251 105.64489235 247.10794067 107.39440918 C247.04654345 100.08318512 246.96930494 92.77230567 246.87222576 85.46146297 C246.82762996 82.06617069 246.78835094 78.6709954 246.76150513 75.2755127 C246.73035386 71.36566932 246.67556891 67.45632367 246.61965942 63.54675293 C246.61007454 61.7307383 246.61007454 61.7307383 246.60029602 59.8780365 C246.48045232 52.97194792 246.34171816 47.06429406 241.57278442 41.65222168 C237.6903658 38.77267845 235.60506173 37.27142052 230.80412197 37.25853729 C229.89507372 37.25367955 228.98602548 37.2488218 228.04943031 37.24381685 C227.04429156 37.24352087 226.0391528 37.24322488 225.0035553 37.24291992 C223.9408284 37.23868751 222.8781015 37.2344551 221.78317076 37.23009443 C218.19863634 37.21700958 214.61412419 37.21103023 211.02957153 37.20495605 C208.46935387 37.19701841 205.90913756 37.18863084 203.34892273 37.17982483 C197.82465405 37.16173452 192.30038963 37.14662018 186.77610588 37.13404846 C178.78776537 37.11577733 170.79945434 37.09111261 162.81113715 37.06467456 C149.85010394 37.02186067 136.88906262 36.98274957 123.92800903 36.94665527 C123.15184251 36.94449247 122.37567598 36.94232967 121.57598925 36.94010133 C115.27717243 36.92257733 108.97835512 36.90523218 102.67953777 36.88789845 C97.17219202 36.87273597 91.66484648 36.85750342 86.15750122 36.84216309 C85.38197322 36.84000422 84.60644522 36.83784535 83.80741637 36.83562106 C70.89468477 36.79955471 57.98196802 36.75960566 45.06925684 36.71686029 C37.09695571 36.69065924 29.12465917 36.66801127 21.15233553 36.64987671 C15.051154 36.63575204 8.94999909 36.61662809 2.8488369 36.59562492 C0.33850835 36.58783783 -2.17182621 36.58178197 -4.68216324 36.57753181 C-8.09302723 36.57152877 -11.50381675 36.55950241 -14.91465759 36.54589844 C-15.92202707 36.54560245 -16.92939654 36.54530646 -17.96729237 36.54500151 C-19.32695312 36.53771489 -19.32695312 36.53771489 -20.71408176 36.53028107 C-21.50243619 36.5281651 -22.29079061 36.52604913 -23.10303456 36.52386904 C-24.89205933 36.39440918 -24.89205933 36.39440918 -25.89205933 35.39440918 C-26.04715039 32.36118581 -26.12390183 29.36648093 -26.14205933 26.33190918 C-26.17299683 25.07990723 -26.17299683 25.07990723 -26.20455933 23.8026123 C-26.24809889 16.81995481 -24.91880278 11.53935592 -21.07955933 5.58190918 C-14.91484488 -0.58280527 -8.20490682 -0.03554217 0 0 Z " fill="#B3D9FD" transform="translate(125.89205932617188,-0.3944091796875)"/>
<path d="M0 0 C1.31438588 -0.0060911 2.62877177 -0.01218221 3.98298752 -0.01845789 C7.62535743 -0.034852 11.26751082 -0.03254062 14.90990472 -0.02708292 C18.84048634 -0.02441206 22.77101032 -0.03894556 26.7015686 -0.05117798 C34.39974657 -0.07223177 42.09784921 -0.07677286 49.79605256 -0.07499009 C56.0534784 -0.07368245 62.31088074 -0.07748673 68.56830215 -0.08491516 C70.37077494 -0.08701436 72.17324773 -0.08911196 73.97572052 -0.09120798 C75.32143516 -0.09277327 75.32143516 -0.09277327 76.69433595 -0.09437019 C93.66151652 -0.11327233 110.62865385 -0.11222243 127.59584059 -0.10540086 C143.11625252 -0.09982532 158.63649938 -0.12065134 174.15687273 -0.15376133 C190.09481044 -0.18749811 206.03266908 -0.20266668 221.97064316 -0.1980443 C230.91795801 -0.19579961 239.86512029 -0.20104272 248.81240463 -0.22593689 C256.42957247 -0.24694986 264.04650408 -0.25054211 271.66368161 -0.2316373 C275.5493339 -0.22247936 279.43454575 -0.22133769 283.32016373 -0.24199295 C287.53442368 -0.26414727 291.74764566 -0.24748652 295.96191406 -0.22705078 C297.80014891 -0.24582755 297.80014891 -0.24582755 299.67551982 -0.26498365 C305.76997645 -0.20153159 310.27361152 0.27074689 315.42948067 3.63891363 C320.27589729 8.70776412 321.70276819 13.41195801 321.61409855 20.292449 C321.62021191 21.06127404 321.62632527 21.83009908 321.63262388 22.62222186 C321.64821159 25.19580318 321.63536313 27.76844047 321.62260437 30.34202576 C321.62793007 32.20678096 321.63499589 34.07153187 321.64365143 35.93627459 C321.66230248 41.05861774 321.65596523 46.18067226 321.64549839 51.30302751 C321.63851342 56.82801555 321.65449899 62.35294388 321.66749573 67.87791443 C321.68915266 78.70087754 321.68900448 89.52373557 321.68087018 100.34671324 C321.67457373 109.14225542 321.67570397 117.93776693 321.68214226 126.73330879 C321.68304391 127.98451386 321.68394557 129.23571893 321.68487455 130.5248393 C321.68672572 133.06654672 321.68858828 135.60825413 321.6904621 138.14996154 C321.70233478 155.21840333 321.70673783 172.28683465 321.69552708 189.35527706 C321.69487012 190.35636053 321.69487012 190.35636053 321.69419989 191.3776679 C321.69059308 196.79730457 321.6867583 202.21694108 321.68290896 207.63657757 C321.66806098 228.77782649 321.67684151 249.91894622 321.7048645 271.06018066 C321.73629116 294.81463275 321.75119492 318.56901861 321.74106449 342.32349783 C321.74004192 344.85622981 321.73904731 347.3889618 321.73808098 349.9216938 C321.73760459 351.16788103 321.7371282 352.41406826 321.73663737 353.69801874 C321.73447185 362.48335978 321.74428472 371.26864072 321.75885201 380.05396843 C321.77635616 390.75995186 321.77628543 401.4657597 321.75350035 412.17173617 C321.74234085 417.63502735 321.73923454 423.09800895 321.75780106 428.56128693 C321.77457735 433.56209176 321.76829319 438.56231631 321.74358427 443.56308336 C321.73869124 445.37255778 321.74224311 447.18207876 321.75507171 448.99151432 C321.86254188 465.32824366 321.86254188 465.32824366 317.47867817 471.04180723 C312.46345854 475.99067298 307.96171473 477.53376146 301.12356567 477.49206543 C300.18899536 477.48884277 299.25442505 477.48562012 298.29153442 477.4822998 C297.32344849 477.4739209 296.35536255 477.46554199 295.35794067 477.45690918 C294.37438599 477.45239746 293.3908313 477.44788574 292.37747192 477.4432373 C289.95423277 477.43147401 287.53111794 477.41503602 285.10794067 477.39440918 C285.10734359 476.48893652 285.1067465 475.58346386 285.10613132 474.65055263 C285.07025723 421.0152014 285.01364886 367.37990634 284.93001972 313.7446072 C284.92000196 307.3082133 284.91015788 300.87181914 284.90042114 294.4354248 C284.89847977 293.15402493 284.8965384 291.87262506 284.89453819 290.55239488 C284.86349555 269.78920116 284.84653122 249.02601849 284.83474645 228.26280592 C284.82234662 206.96653163 284.79487166 185.6703155 284.75332761 164.37407792 C284.72815876 151.22734923 284.71482587 138.08071697 284.7165111 124.93396385 C284.7165408 115.92545599 284.70196121 106.91704654 284.67577639 97.90857701 C284.66109178 92.70688776 284.65296054 87.5054003 284.66213799 82.30369377 C284.67039385 77.5439365 284.66035585 72.7845856 284.63560405 68.02488877 C284.62989629 66.30071088 284.63097299 64.57649477 284.63942823 62.85232817 C284.64992441 60.51191155 284.63592456 58.17287222 284.61574936 55.83254814 C284.61423048 54.53162629 284.6127116 53.23070444 284.61114669 51.89036071 C283.85012983 46.60330536 281.42517843 43.55483292 277.48294067 40.08190918 C274.07265013 37.658808 272.3484014 37.26822291 268.21066189 37.25853729 C267.16924461 37.25367955 266.12782733 37.2488218 265.05485195 37.24381685 C263.32535976 37.24337287 263.32535976 37.24337287 261.56092834 37.24291992 C260.34302646 37.23868751 259.12512457 37.2344551 257.87031657 37.23009443 C254.47908597 37.2192934 251.08789893 37.21296372 247.69665754 37.20845962 C244.04359589 37.20252154 240.39055225 37.19085132 236.73750305 37.17982483 C230.40456045 37.16145625 224.07161746 37.14661856 217.73866081 37.13404846 C208.58109713 37.11577996 199.42355917 37.09111518 190.26601584 37.06467456 C175.40823801 37.02185754 160.5504531 36.98274722 145.69265747 36.94665527 C144.80284758 36.94449247 143.91303769 36.94232967 142.99626387 36.94010133 C135.77524144 36.92257744 128.55421858 36.90523249 121.33319569 36.88789845 C115.01974785 36.87273613 108.70630019 36.85750354 102.39285278 36.84216309 C101.50381895 36.84000422 100.61478512 36.83784535 99.69881087 36.83562106 C84.89670003 36.79955592 70.09460215 36.75960682 55.29250914 36.71686029 C46.15324756 36.69065733 37.01399 36.66800983 27.87470878 36.64987671 C21.61773475 36.6372419 15.3607761 36.62112804 9.10381787 36.60222757 C5.48857884 36.59143503 1.87335479 36.58232907 -1.74189758 36.57753181 C-5.65196407 36.57231368 -9.56198382 36.55950393 -13.47203064 36.54589844 C-14.62725615 36.54560245 -15.78248166 36.54530646 -16.97271401 36.54500151 C-18.53092831 36.53771489 -18.53092831 36.53771489 -20.12062168 36.53028107 C-21.02441108 36.5281651 -21.92820048 36.52604913 -22.85937744 36.52386904 C-24.89205933 36.39440918 -24.89205933 36.39440918 -25.89205933 35.39440918 C-26.04715039 32.36118581 -26.12390183 29.36648093 -26.14205933 26.33190918 C-26.17299683 25.07990723 -26.17299683 25.07990723 -26.20455933 23.8026123 C-26.24809889 16.81995481 -24.91880278 11.53935592 -21.07955933 5.58190918 C-14.91484488 -0.58280527 -8.20490682 -0.03554217 0 0 Z " fill="#3C87D0" transform="translate(125.89205932617188,-0.3944091796875)"/>
<path d="M0 0 C14.65106571 11.36330903 24.10894716 27.80011713 26.78515625 46.16015625 C28.21271395 64.87485105 22.47099458 83.77375089 10.2265625 98.16796875 C-0.69142817 110.02508142 -15.91893456 119.20951206 -32.33325195 120.30102539 C-52.8060388 121.11960861 -69.57028835 117.36870276 -85.52734375 103.97265625 C-99.18189858 90.9020133 -106.91065474 73.30769695 -107.43505859 54.49755859 C-107.67433689 37.72846478 -102.16599802 21.92812087 -90.65234375 9.53515625 C-88.87222987 7.70500382 -87.05414099 5.93236666 -85.21484375 4.16015625 C-84.37566406 3.27457031 -84.37566406 3.27457031 -83.51953125 2.37109375 C-61.29131705 -19.39160811 -23.8583265 -16.81713396 0 0 Z " fill="#FDA95D" transform="translate(210.21484375,87.83984375)"/>
<path d="M0 0 C1.05162827 -0.00563965 2.10325653 -0.0112793 3.18675232 -0.01708984 C4.34526199 -0.01304138 5.50377167 -0.00899292 6.6973877 -0.00482178 C7.91366348 -0.00832642 9.12993927 -0.01183105 10.3830719 -0.01544189 C13.72397711 -0.02275094 17.06463557 -0.0210169 20.40552711 -0.01468372 C23.89730798 -0.00962981 27.38907811 -0.01431348 30.88085938 -0.01745605 C36.74533996 -0.02109748 42.60977022 -0.01629199 48.47424316 -0.0067749 C55.2600589 0.00411001 62.04575447 0.00058456 68.83156729 -0.01042771 C74.65155871 -0.01949558 80.4715139 -0.02078833 86.29151011 -0.01555037 C89.77024207 -0.0124279 93.24891751 -0.01202888 96.72764587 -0.01862335 C100.60432631 -0.02545851 104.48087149 -0.01599222 108.35754395 -0.00482178 C109.51605362 -0.00887024 110.67456329 -0.0129187 111.86817932 -0.01708984 C112.91980759 -0.0114502 113.97143585 -0.00581055 115.05493164 0 C115.9722834 0.00075405 116.88963516 0.0015081 117.83478546 0.002285 C120.02746582 0.25396729 120.02746582 0.25396729 122.02746582 2.25396729 C122.28143311 5.29034424 122.28143311 5.29034424 122.28625488 9.24224854 C122.29151184 10.32051407 122.29151184 10.32051407 122.296875 11.42056274 C122.30569547 13.80262844 122.29984218 16.18439844 122.29309082 18.56646729 C122.29443738 20.21791643 122.29637784 21.8693652 122.29888916 23.52081299 C122.30184085 26.98431161 122.29754139 30.44770718 122.28820801 33.91119385 C122.2768134 38.3569204 122.28337265 42.80240548 122.29535294 47.24812317 C122.30257036 50.65897449 122.30028416 54.06976831 122.29509735 57.48062134 C122.29376053 59.12012765 122.29540972 60.75963913 122.30005646 62.3991394 C122.30511982 64.68812954 122.29741444 66.97672536 122.28625488 69.26568604 C122.2846637 70.56981445 122.28307251 71.87394287 122.28143311 73.21759033 C122.02746582 76.25396729 122.02746582 76.25396729 120.02746582 78.25396729 C117.83478546 78.50564957 117.83478546 78.50564957 115.05493164 78.50793457 C113.47748924 78.51639404 113.47748924 78.51639404 111.86817932 78.52502441 C110.70966965 78.52097595 109.55115997 78.51692749 108.35754395 78.51275635 C106.53313026 78.51801331 106.53313026 78.51801331 104.67185974 78.52337646 C101.33095453 78.53068551 97.99029607 78.52895147 94.64940453 78.52261829 C91.15762366 78.51756438 87.66585353 78.52224805 84.17407227 78.52539062 C78.30959168 78.52903205 72.44516142 78.52422656 66.58068848 78.51470947 C59.79487274 78.50382456 53.00917718 78.50735001 46.22336435 78.51836228 C40.40337293 78.52743015 34.58341774 78.5287229 28.76342154 78.52348495 C25.28468957 78.52036247 21.80601413 78.51996345 18.32728577 78.52655792 C14.45060533 78.53339308 10.57406015 78.52392679 6.6973877 78.51275635 C5.53887802 78.51680481 4.38036835 78.52085327 3.18675232 78.52502441 C2.13512405 78.51938477 1.08349579 78.51374512 0 78.50793457 C-0.91735176 78.50718052 -1.83470352 78.50642647 -2.77985382 78.50564957 C-4.97253418 78.25396729 -4.97253418 78.25396729 -6.97253418 76.25396729 C-7.22650146 73.21759033 -7.22650146 73.21759033 -7.23132324 69.26568604 C-7.23482788 68.54684235 -7.23833252 67.82799866 -7.24194336 67.08737183 C-7.25076383 64.70530613 -7.24491054 62.32353613 -7.23815918 59.94146729 C-7.23950574 58.29001814 -7.2414462 56.63856937 -7.24395752 54.98712158 C-7.24690921 51.52362296 -7.24260975 48.06022739 -7.23327637 44.59674072 C-7.22188176 40.15101417 -7.228441 35.70552909 -7.2404213 31.2598114 C-7.24763872 27.84896008 -7.24535252 24.43816626 -7.24016571 21.02731323 C-7.23882889 19.38780692 -7.24047808 17.74829544 -7.24512482 16.10879517 C-7.25018818 13.81980503 -7.2424828 11.53120921 -7.23132324 9.24224854 C-7.22973206 7.93812012 -7.22814087 6.6339917 -7.22650146 5.29034424 C-6.79421973 0.12207903 -4.61879989 0.00379659 0 0 Z " fill="#ED6161" transform="translate(250.9725341796875,239.74603271484375)"/>
<path d="M0 0 C1.10472656 -0.00386719 2.20945312 -0.00773437 3.34765625 -0.01171875 C4.50136719 -0.00011719 5.65507813 0.01148438 6.84375 0.0234375 C8.57431641 0.00603516 8.57431641 0.00603516 10.33984375 -0.01171875 C11.44457031 -0.00785156 12.54929687 -0.00398438 13.6875 0 C14.70005859 0.00338379 15.71261719 0.00676758 16.75585938 0.01025391 C19.80229915 0.46721987 20.48651647 1.00453171 22.34375 3.3984375 C22.72127342 5.46149445 22.72127342 5.46149445 22.72470093 7.8770752 C22.7331604 8.7940065 22.74161987 9.71093781 22.75033569 10.65565491 C22.744263 11.65938644 22.73819031 12.66311798 22.73193359 13.69726562 C22.73719055 14.75602402 22.74244751 15.81478241 22.74786377 16.90562439 C22.76109359 20.41379443 22.75231487 23.92151265 22.7421875 27.4296875 C22.74420737 29.86202075 22.74711808 32.2943534 22.75088501 34.72668457 C22.75531242 39.82777667 22.74886375 44.92871133 22.73486328 50.02978516 C22.71777137 56.57730898 22.7276103 63.12446391 22.74558067 69.67197418 C22.75640714 74.6956054 22.75297736 79.71914877 22.7451973 84.74278259 C22.74319215 87.15738468 22.74566553 89.57199467 22.75263596 91.98658752 C22.76023156 95.35781058 22.7486722 98.72843133 22.73193359 102.09960938 C22.74104263 103.60520668 22.74104263 103.60520668 22.75033569 105.14122009 C22.74187622 106.0581514 22.73341675 106.9750827 22.72470093 107.9197998 C22.72356985 108.71694145 22.72243877 109.5140831 22.72127342 110.33538055 C22.24633751 112.93076876 21.42409681 113.81798741 19.34375 115.3984375 C16.75585938 115.78662109 16.75585938 115.78662109 13.6875 115.796875 C12.58277344 115.80074219 11.47804688 115.80460937 10.33984375 115.80859375 C9.18613281 115.79699219 8.03242187 115.78539062 6.84375 115.7734375 C5.69003906 115.78503906 4.53632812 115.79664063 3.34765625 115.80859375 C2.24292969 115.80472656 1.13820313 115.80085938 0 115.796875 C-1.01255859 115.79349121 -2.02511719 115.79010742 -3.06835938 115.78662109 C-6.11479915 115.32965513 -6.79901647 114.79234329 -8.65625 112.3984375 C-9.03377342 110.33538055 -9.03377342 110.33538055 -9.03720093 107.9197998 C-9.0456604 107.0028685 -9.05411987 106.08593719 -9.06283569 105.14122009 C-9.056763 104.13748856 -9.05069031 103.13375702 -9.04443359 102.09960938 C-9.04969055 101.04085098 -9.05494751 99.98209259 -9.06036377 98.89125061 C-9.07359359 95.38308057 -9.06481487 91.87536235 -9.0546875 88.3671875 C-9.05670737 85.93485425 -9.05961808 83.5025216 -9.06338501 81.07019043 C-9.06781242 75.96909833 -9.06136375 70.86816367 -9.04736328 65.76708984 C-9.03027137 59.21956602 -9.0401103 52.67241109 -9.05808067 46.12490082 C-9.06890714 41.1012696 -9.06547736 36.07772623 -9.0576973 31.05409241 C-9.05569215 28.63949032 -9.05816553 26.22488033 -9.06513596 23.81028748 C-9.07273156 20.43906442 -9.0611722 17.06844367 -9.04443359 13.69726562 C-9.05050629 12.69353409 -9.05657898 11.68980255 -9.06283569 10.65565491 C-9.05437622 9.7387236 -9.04591675 8.8217923 -9.03720093 7.8770752 C-9.03606985 7.07993355 -9.03493877 6.2827919 -9.03377342 5.46149445 C-8.0960728 0.33723017 -4.59898378 0.01536898 0 0 Z " fill="#FD7905" transform="translate(111.65625,345.6015625)"/>
<path d="M0 0 C20.38569724 1.35904648 35.70455383 6.54770322 49.97265625 21.58984375 C61.25066662 34.99742063 66 48.61607179 66 66 C44.22 66 22.44 66 0 66 C0 44.22 0 22.44 0 0 Z " fill="#ED6161" transform="translate(170,75)"/>
<path d="M0 0 C1.20978516 0.00322266 2.41957031 0.00644531 3.66601562 0.00976562 C5.47489258 -0.0144043 5.47489258 -0.0144043 7.3203125 -0.0390625 C9.0518457 -0.0400293 9.0518457 -0.0400293 10.81835938 -0.04101562 C11.87917725 -0.04399658 12.93999512 -0.04697754 14.03295898 -0.05004883 C16.72851562 0.32226562 16.72851562 0.32226562 18.37272644 1.36250305 C20.46187065 4.3823137 20.14570327 7.50730912 20.11669922 11.05078125 C20.12195618 11.83643967 20.12721313 12.62209808 20.13262939 13.43156433 C20.14584229 16.03074983 20.13708697 18.6293238 20.12695312 21.22851562 C20.12897349 23.03308225 20.13188462 24.83764809 20.13565063 26.64221191 C20.14007573 30.42512787 20.13363701 34.20783138 20.11962891 37.99072266 C20.10253687 42.84333454 20.11237707 47.69544868 20.1303463 52.5480423 C20.14117916 56.27463542 20.1377401 60.00111025 20.12996292 63.72770691 C20.12795953 65.5171057 20.13042504 67.30651518 20.13740158 69.09590149 C20.14500795 71.59547435 20.13342383 74.09423755 20.11669922 76.59375 C20.12580826 77.70661629 20.12580826 77.70661629 20.13510132 78.84196472 C20.07321036 83.82672882 20.07321036 83.82672882 18.36599731 86.28103638 C15.92977036 87.83016561 13.93864292 87.71112421 11.07226562 87.72070312 C9.96753906 87.72457031 8.8628125 87.7284375 7.72460938 87.73242188 C6.57089844 87.72082031 5.4171875 87.70921875 4.22851562 87.69726562 C3.07480469 87.70886719 1.92109375 87.72046875 0.73242188 87.73242188 C-0.37230469 87.72855469 -1.47703125 87.7246875 -2.61523438 87.72070312 C-3.62779297 87.71731934 -4.64035156 87.71393555 -5.68359375 87.71044922 C-8.27148438 87.32226562 -8.27148438 87.32226562 -9.90995789 86.2877655 C-12.02115757 83.24003727 -11.68011527 80.06289497 -11.64379883 76.48608398 C-11.64744949 75.6890657 -11.65110016 74.89204742 -11.65486145 74.07087708 C-11.6629726 71.43440495 -11.64935359 68.7985463 -11.63476562 66.16210938 C-11.63424714 64.33272807 -11.6347644 62.50334621 -11.63627625 60.67396545 C-11.6361865 56.83976934 -11.62575143 53.00578339 -11.60766602 49.17163086 C-11.58496274 44.24950064 -11.58443737 39.32767718 -11.59118366 34.405509 C-11.59451989 30.62835448 -11.58790036 26.8512703 -11.57805443 23.0741291 C-11.57419736 21.25878835 -11.5730563 19.44343979 -11.57464027 17.62809563 C-11.57500984 15.09492872 -11.56242208 12.56216 -11.54614258 10.02905273 C-11.54862 9.27419586 -11.55109741 8.51933899 -11.5536499 7.74160767 C-11.46495789 -0.87588949 -7.42263163 0.04563943 0 0 Z " fill="#FC983B" transform="translate(171.271484375,373.677734375)"/>
<path d="M0 0 C1.01667755 -0.00700928 2.0333551 -0.01401855 3.08084106 -0.02124023 C6.4442266 -0.03885647 9.8067718 -0.02718322 13.17016602 -0.01367188 C15.50659853 -0.01636594 17.84302995 -0.02024765 20.17945862 -0.02526855 C25.07791816 -0.03116872 29.97608606 -0.02258441 34.87451172 -0.00390625 C41.15399899 0.01887057 47.43280197 0.00577092 53.71226406 -0.01819611 C58.53783828 -0.03265059 63.36325031 -0.02804938 68.18882942 -0.01768494 C70.50409081 -0.01501605 72.81936692 -0.01829306 75.13461113 -0.02760315 C78.37138739 -0.03776114 81.60705622 -0.02227633 84.84375 0 C86.28010048 -0.01214539 86.28010048 -0.01214539 87.74546814 -0.02453613 C91.98776509 0.02955755 94.37553336 0.15256655 98.08143616 2.36633301 C99.98657227 4.51757812 99.98657227 4.51757812 100.61157227 7.45507812 C99.75181176 11.66790462 98.40704343 12.91575262 94.98657227 15.51757812 C91.64270255 16.25355145 88.36448737 16.20104199 84.95141602 16.16455078 C83.94434601 16.17331238 82.937276 16.18207397 81.89968872 16.19110107 C78.5740437 16.21309001 75.24973058 16.19854321 71.92407227 16.18164062 C69.61148829 16.18500888 67.29890604 16.18986157 64.98632812 16.19613647 C60.14086036 16.20350716 55.29585361 16.19279534 50.45043945 16.16943359 C44.23922531 16.14094645 38.02909138 16.15734927 31.81791687 16.18729591 C27.04292663 16.20536313 22.26819253 16.19961333 17.49319458 16.18665695 C15.20305249 16.18332138 12.91288715 16.18741526 10.62277222 16.19905472 C7.42179771 16.21175323 4.22257269 16.1923984 1.02172852 16.16455078 C0.07508331 16.17467194 -0.87156189 16.18479309 -1.84689331 16.19522095 C-6.38937052 16.12200327 -8.3899633 15.99122526 -12.10546875 13.16854858 C-14.01342773 10.51757812 -14.01342773 10.51757812 -14.57592773 7.45507812 C-13.02508404 -0.64377227 -6.8402227 -0.05771704 0 0 Z " fill="#435F5F" transform="translate(273.013427734375,170.482421875)"/>
<path d="M0 0 C1.10472656 -0.00386719 2.20945313 -0.00773437 3.34765625 -0.01171875 C4.50136719 -0.00011719 5.65507812 0.01148438 6.84375 0.0234375 C8.57431641 0.00603516 8.57431641 0.00603516 10.33984375 -0.01171875 C11.44457031 -0.00785156 12.54929688 -0.00398438 13.6875 0 C14.70005859 0.00338379 15.71261719 0.00676758 16.75585938 0.01025391 C19.8049088 0.46761132 20.48911727 0.99772101 22.34375 3.3984375 C22.72470093 5.52331543 22.72470093 5.52331543 22.73193359 8.00585938 C22.74611832 9.40245789 22.74611832 9.40245789 22.7605896 10.82727051 C22.75451691 11.83044312 22.74844421 12.83361572 22.7421875 13.8671875 C22.74505768 14.89904175 22.74792786 15.930896 22.75088501 16.99401855 C22.75292701 19.17619373 22.74738771 21.35838715 22.73486328 23.54052734 C22.71881205 26.8855065 22.73470791 30.22927729 22.75390625 33.57421875 C22.75192384 35.69271101 22.74808022 37.81120251 22.7421875 39.9296875 C22.75129654 41.43444641 22.75129654 41.43444641 22.7605896 42.96960449 C22.75113312 43.90067017 22.74167664 44.83173584 22.73193359 45.79101562 C22.72954681 46.61025513 22.72716003 47.42949463 22.72470093 48.27355957 C22.25174157 50.91164452 21.46211126 51.79907613 19.34375 53.3984375 C16.75585937 53.78662109 16.75585937 53.78662109 13.6875 53.796875 C12.58277344 53.80074219 11.47804687 53.80460937 10.33984375 53.80859375 C9.18613281 53.79699219 8.03242188 53.78539062 6.84375 53.7734375 C5.69003906 53.78503906 4.53632813 53.79664063 3.34765625 53.80859375 C2.24292969 53.80472656 1.13820312 53.80085938 0 53.796875 C-1.01255859 53.79349121 -2.02511719 53.79010742 -3.06835938 53.78662109 C-6.1174088 53.32926368 -6.80161727 52.79915399 -8.65625 50.3984375 C-9.03720093 48.27355957 -9.03720093 48.27355957 -9.04443359 45.79101562 C-9.05389008 44.85994995 -9.06334656 43.92888428 -9.0730896 42.96960449 C-9.06701691 41.96643188 -9.06094421 40.96325928 -9.0546875 39.9296875 C-9.05755768 38.89783325 -9.06042786 37.865979 -9.06338501 36.80285645 C-9.06542701 34.62068127 -9.05988771 32.43848785 -9.04736328 30.25634766 C-9.03131205 26.9113685 -9.04720791 23.56759771 -9.06640625 20.22265625 C-9.06442384 18.10416399 -9.06058022 15.98567249 -9.0546875 13.8671875 C-9.06076019 12.86401489 -9.06683289 11.86084229 -9.0730896 10.82727051 C-9.06363312 9.89620483 -9.05417664 8.96513916 -9.04443359 8.00585938 C-9.04204681 7.18661987 -9.03966003 6.36738037 -9.03720093 5.52331543 C-8.11038789 0.35371371 -4.6522112 0.01554685 0 0 Z " fill="#FCAA5F" transform="translate(225.65625,407.6015625)"/>
<path d="M0 0 C1.02803741 -0.00540298 2.05607483 -0.01080597 3.11526489 -0.01637268 C6.51593754 -0.02888738 9.91576814 -0.01235003 13.31640625 0.00561523 C15.67765345 0.00546031 18.0389009 0.00397244 20.40014648 0.00120544 C25.34988642 -0.00017978 30.29933703 0.01240064 35.24902344 0.03515625 C41.59802339 0.06354088 47.94654247 0.06080503 54.295578 0.04806614 C59.17171343 0.0411157 64.04773744 0.04889105 68.92385864 0.06132317 C71.26506117 0.06584382 73.60627563 0.06616913 75.94747925 0.06225777 C79.21784031 0.05935185 82.4875355 0.07582365 85.7578125 0.09765625 C86.7283255 0.0931546 87.6988385 0.08865295 88.69876099 0.08401489 C90.03618851 0.09887184 90.03618851 0.09887184 91.40063477 0.11402893 C92.17343277 0.11645883 92.94623077 0.11888872 93.7424469 0.12139225 C96.49789393 0.61189661 97.875081 1.56738462 99.87890625 3.50170898 C100.42111316 7.2293815 100.53659699 9.47224475 98.48022461 12.69102478 C94.44448065 15.50016108 90.56504711 15.06748084 85.7578125 15.03515625 C84.72977509 15.04377182 83.70173767 15.05238739 82.64254761 15.06126404 C79.24191159 15.08398036 75.84209579 15.07717478 72.44140625 15.06811523 C70.080157 15.07334806 67.71890985 15.07962328 65.35766602 15.0868988 C60.40794033 15.09731336 55.45850195 15.09272582 50.50878906 15.078125 C44.15960243 15.06093094 37.8113202 15.08443567 31.4622345 15.1196146 C26.58607972 15.14155307 21.71014254 15.14015573 16.83395386 15.13184929 C14.4927369 15.13102792 12.15150425 15.13792648 9.81033325 15.15262032 C6.539653 15.17000098 3.27061359 15.15557649 0 15.1328125 C-0.970513 15.1445047 -1.941026 15.1561969 -2.94094849 15.16824341 C-9.49404071 15.07524109 -9.49404071 15.07524109 -12.72241211 12.12242126 C-14.29550316 9.17491776 -14.79287904 7.77666229 -14.12109375 4.50170898 C-10.59649547 -0.84305761 -5.79281781 -0.05770637 0 0 Z " fill="#3E5959" transform="translate(117.12109375,288.498291015625)"/>
<path d="M0 0 C1.01828384 -0.00379669 2.03656769 -0.00759338 3.08570862 -0.01150513 C6.4539361 -0.01891858 9.82130221 0.00248377 13.18945312 0.02490234 C15.52827859 0.02728639 17.86710599 0.02819217 20.20593262 0.02767944 C25.1086017 0.03080883 30.01097863 0.04738522 34.91357422 0.07421875 C41.20197162 0.10819854 47.49004785 0.11584738 53.77852631 0.11432838 C58.60832797 0.11487192 63.43805925 0.12583653 68.26783752 0.14033127 C70.58671028 0.14670135 72.90559102 0.15063865 75.22447205 0.15211868 C78.46358864 0.15644936 81.70236304 0.17394579 84.94140625 0.1953125 C85.90256851 0.19440613 86.86373077 0.19349976 87.85401917 0.19256592 C89.17882545 0.20536087 89.17882545 0.20536087 90.53039551 0.21841431 C91.29581917 0.221766 92.06124283 0.22511768 92.84986115 0.22857094 C95.28709657 0.52421998 96.89044062 1.19421495 98.97070312 2.48583984 C100.37528049 5.29499458 100.2196547 7.37394519 99.97070312 10.48583984 C98.72982693 12.64940643 98.72982693 12.64940643 96.97070312 14.48583984 C94.94167423 14.98920441 94.94167423 14.98920441 92.57472229 14.99377441 C91.22673553 15.01069336 91.22673553 15.01069336 89.85151672 15.0279541 C88.3763282 15.01580872 88.3763282 15.01580872 86.87133789 15.00341797 C85.83369293 15.01042725 84.79604797 15.01743652 83.72695923 15.0246582 C80.28840568 15.04229889 76.85067166 15.03059255 73.41210938 15.01708984 C71.02701153 15.0197832 68.64191476 15.02366431 66.25682068 15.02868652 C61.25403405 15.03459 56.2515328 15.02599173 51.2487793 15.00732422 C44.83128646 14.98454696 38.41446317 14.99764528 31.99699497 15.02161407 C27.07023564 15.0360594 22.14363535 15.03147156 17.21687126 15.02110291 C14.85054381 15.0184315 12.48420199 15.02171985 10.11789131 15.03102112 C6.81135883 15.04116407 3.50591422 15.02571535 0.19946289 15.00341797 C-1.27268929 15.01556335 -1.27268929 15.01556335 -2.77458191 15.0279541 C-9.37974736 14.94531021 -9.37974736 14.94531021 -12.63734436 12.64099121 C-14.55106454 9.67799024 -14.60603764 7.94628443 -14.02929688 4.48583984 C-10.55425146 -0.85170003 -5.75447951 -0.06728799 0 0 Z " fill="#3E5959" transform="translate(117.029296875,254.51416015625)"/>
<path d="M0 0 C1.54205612 -0.01051392 1.54205612 -0.01051392 3.11526489 -0.02124023 C6.51591952 -0.03885577 9.91574305 -0.02718431 13.31640625 -0.01367188 C15.67765462 -0.01636575 18.03890191 -0.0202473 20.40014648 -0.02526855 C25.34987953 -0.03116845 30.29932393 -0.02258447 35.24902344 -0.00390625 C41.59810867 0.01888315 47.94651759 0.00576276 54.295578 -0.01819611 C59.17172352 -0.03264055 64.04770832 -0.02805422 68.92385864 -0.01768494 C71.26506632 -0.01501392 73.60628853 -0.0183005 75.94747925 -0.02760315 C79.2179843 -0.03774604 82.48738951 -0.02229812 85.7578125 0 C86.7283255 -0.00809692 87.6988385 -0.01619385 88.69876099 -0.02453613 C95.23102078 0.05809933 95.23102078 0.05809933 98.48022461 2.36242676 C100.40265269 5.32459011 100.4562445 7.05354864 99.87890625 10.51757812 C98.48022461 12.67272949 98.48022461 12.67272949 95.87890625 14.51757812 C92.51011589 15.12369748 89.17289325 15.06364804 85.7578125 15.03515625 C84.21575638 15.04567017 84.21575638 15.04567017 82.64254761 15.05639648 C79.24189298 15.07401202 75.84206945 15.06234056 72.44140625 15.04882812 C70.08015788 15.051522 67.71891059 15.05540355 65.35766602 15.0604248 C60.40793297 15.0663247 55.45848857 15.05774072 50.50878906 15.0390625 C44.15970383 15.0162731 37.81129491 15.02939349 31.4622345 15.05335236 C26.58608898 15.0677968 21.71010418 15.06321047 16.83395386 15.05284119 C14.49274618 15.05017017 12.15152397 15.05345675 9.81033325 15.0627594 C6.5398282 15.07290229 3.27042299 15.05745437 0 15.03515625 C-0.970513 15.04325317 -1.941026 15.0513501 -2.94094849 15.05969238 C-9.47320828 14.97705692 -9.47320828 14.97705692 -12.72241211 12.67272949 C-14.64484019 9.71056614 -14.698432 7.98160761 -14.12109375 4.51757812 C-10.64497458 -0.83858211 -5.76726087 -0.04811586 0 0 Z " fill="#3E5959" transform="translate(273.12109375,103.482421875)"/>
<path d="M0 0 C1.36071373 -0.01279495 1.36071373 -0.01279495 2.74891663 -0.02584839 C3.7468927 -0.02494202 4.74486877 -0.02403564 5.77308655 -0.02310181 C6.82194534 -0.02981903 7.87080414 -0.03653625 8.95144653 -0.04345703 C12.43248682 -0.06251747 15.91333516 -0.06636521 19.39442444 -0.06851196 C21.80576661 -0.07493398 24.21710799 -0.08166188 26.62844849 -0.08868408 C31.68839831 -0.10067679 36.74827976 -0.10436282 41.8082428 -0.10317993 C48.30316083 -0.10297656 54.79764218 -0.13028896 61.29245663 -0.16472435 C66.27404813 -0.18692262 71.25553335 -0.19101966 76.23716927 -0.18996048 C78.63224863 -0.19232673 81.02733047 -0.20120733 83.42236137 -0.21662521 C86.76744871 -0.23614312 90.11157871 -0.23050281 93.4566803 -0.21841431 C94.95060806 -0.23527283 94.95060806 -0.23527283 96.47471619 -0.25247192 C97.3846785 -0.24408295 98.29464081 -0.23569397 99.23217773 -0.22705078 C100.41877692 -0.22868508 100.41877692 -0.22868508 101.6293478 -0.2303524 C103.67958069 0.26742554 103.67958069 0.26742554 105.46144962 2.07567406 C107.32278814 5.42473193 106.66399164 7.65791872 105.67958069 11.26742554 C102.91859803 13.88752592 101.01059534 14.64346295 97.23927307 14.66183472 C96.35606888 14.67318451 95.47286469 14.6845343 94.56289673 14.69622803 C93.60173447 14.69329742 92.6405722 14.69036682 91.65028381 14.68734741 C90.63199997 14.69581696 89.61371613 14.7042865 88.5645752 14.7130127 C85.19653356 14.73642398 81.82894756 14.73740394 78.46083069 14.73617554 C76.12200232 14.74327391 73.7831757 14.75097243 71.4443512 14.75924683 C66.54175474 14.77270066 61.63931936 14.77425598 56.73670959 14.7684021 C50.44808559 14.76250121 44.16023233 14.79311042 37.87175751 14.83351898 C33.0419446 14.85934081 28.21231872 14.86227846 23.38244629 14.85862732 C21.06354839 14.86032332 18.74464228 14.87001165 16.42581177 14.88777161 C13.1863052 14.90985454 9.94837776 14.90031317 6.70887756 14.88265991 C5.26713417 14.90255478 5.26713417 14.90255478 3.79626465 14.92285156 C-2.66584613 14.8408405 -2.66584613 14.8408405 -5.95506287 11.95944214 C-7.8012863 8.31932006 -7.34728106 6.15483073 -6.32041931 2.26742554 C-3.89692026 -0.15607352 -3.31587892 0.01405583 0 0 Z " fill="#3F5A5A" transform="translate(266.32041931152344,137.73257446289063)"/>
<path d="M0 0 C0.93864899 -0.00846954 1.87729797 -0.01693909 2.84439087 -0.02566528 C5.94791199 -0.04906872 9.05093832 -0.05005665 12.15454102 -0.04882812 C14.31161193 -0.05592756 16.46868095 -0.06362623 18.62574768 -0.07189941 C23.14752451 -0.08535185 27.66912672 -0.08690947 32.19091797 -0.08105469 C37.9862286 -0.07515729 43.78070186 -0.10574886 49.57585049 -0.14617157 C54.03083309 -0.17201728 58.48561323 -0.17492881 62.94066048 -0.17127991 C65.0773129 -0.17297401 67.21397439 -0.18264435 69.35055351 -0.20042419 C72.33843965 -0.22255212 75.32461985 -0.21294304 78.3125 -0.1953125 C79.19526108 -0.20857574 80.07802216 -0.22183899 80.98753357 -0.23550415 C85.37008301 -0.17539747 87.19334828 0.0244282 90.80506897 2.73181152 C92.72094727 5.41992188 92.72094727 5.41992188 92.78344727 9.04492188 C91.57329036 12.8889497 91.21776736 13.59007071 87.72094727 15.41992188 C84.62935964 15.87192291 81.56198837 15.85017819 78.44189453 15.83984375 C77.03392105 15.85254807 77.03392105 15.85254807 75.59750366 15.86550903 C72.49398254 15.88891247 69.39095621 15.8899004 66.28735352 15.88867188 C64.1302826 15.89577131 61.97321358 15.90346998 59.81614685 15.91174316 C55.29437002 15.9251956 50.77276781 15.92675322 46.25097656 15.92089844 C40.45566593 15.91500104 34.66119267 15.94559261 28.86604404 15.98601532 C24.41106144 16.01186103 19.9562813 16.01477256 15.50123405 16.01112366 C13.36458163 16.01281776 11.22792014 16.0224881 9.09134102 16.04026794 C6.10345488 16.06239587 3.11727468 16.05278679 0.12939453 16.03515625 C-1.19474709 16.05505112 -1.19474709 16.05505112 -2.54563904 16.0753479 C-6.92818848 16.01524122 -8.75145375 15.81541555 -12.36317444 13.10803223 C-14.27905273 10.41992188 -14.27905273 10.41992188 -14.34155273 6.79492188 C-12.01216351 -0.60431448 -6.75954225 -0.02238909 0 0 Z " fill="#445F60" transform="translate(280.279052734375,428.580078125)"/>
<path d="M0 0 C0.95976242 -0.00700928 1.91952484 -0.01401855 2.90837097 -0.02124023 C6.08178617 -0.03884947 9.25431006 -0.02718677 12.42773438 -0.01367188 C14.63204113 -0.01636594 16.83634673 -0.02024764 19.04064941 -0.02526855 C23.66084099 -0.03116759 28.28072327 -0.02258735 32.90087891 -0.00390625 C38.82624174 0.01888322 44.75087989 0.00576235 50.67621613 -0.01819611 C55.22810334 -0.03264295 59.77981845 -0.02805314 64.33171082 -0.01768494 C66.51661769 -0.01501458 68.70154014 -0.0182982 70.88642883 -0.02760315 C73.93903049 -0.03775012 76.99045489 -0.02229293 80.04296875 0 C80.94802658 -0.00809692 81.85308441 -0.01619385 82.78556824 -0.02453613 C88.88354943 0.05806186 88.88354943 0.05806186 92.0826416 2.36242676 C94.0568682 5.31949561 94.10241882 7.03197146 93.52148438 10.51757812 C92.0826416 12.67272949 92.0826416 12.67272949 89.52148438 14.51757812 C86.36572378 15.11814628 83.24733818 15.06382352 80.04296875 15.03515625 C79.08320633 15.04216553 78.12344391 15.0491748 77.13459778 15.05639648 C73.96118258 15.07400572 70.78865869 15.06234302 67.61523438 15.04882812 C65.41092762 15.05152219 63.20662202 15.05540389 61.00231934 15.0604248 C56.38212776 15.06632384 51.76224548 15.0577436 47.14208984 15.0390625 C41.21672701 15.01627303 35.29208886 15.0293939 29.36675262 15.05335236 C24.81486541 15.0677992 20.2631503 15.06320939 15.71125793 15.05284119 C13.52635106 15.05017083 11.34142861 15.05345445 9.15653992 15.0627594 C6.10393826 15.07290637 3.05251386 15.05744918 0 15.03515625 C-0.90505783 15.04325317 -1.81011566 15.0513501 -2.74259949 15.05969238 C-8.84058068 14.97709439 -8.84058068 14.97709439 -12.03967285 12.67272949 C-14.01389945 9.71566064 -14.05945007 8.00318479 -13.47851562 4.51757812 C-10.02380161 -0.65701897 -5.65998043 -0.05063591 0 0 Z " fill="#3E5959" transform="translate(279.478515625,358.482421875)"/>
<path d="M0 0 C1.42260384 -0.01051392 1.42260384 -0.01051392 2.87394714 -0.02124023 C6.01009371 -0.03885014 9.14533833 -0.02718563 12.28149414 -0.01367188 C14.46098504 -0.01636614 16.64047477 -0.02024802 18.81996155 -0.02526855 C23.38887979 -0.03116786 27.95748529 -0.02258731 32.52636719 -0.00390625 C38.38213247 0.01886973 44.2371639 0.0057711 50.09290218 -0.01819611 C54.59421817 -0.03265375 59.09536035 -0.02804794 63.59668159 -0.01768494 C65.75564218 -0.01501687 67.91461856 -0.01829019 70.07356071 -0.02760315 C73.09243396 -0.03776637 76.11012128 -0.02226953 79.12890625 0 C80.02101807 -0.00809692 80.91312988 -0.01619385 81.83227539 -0.02453613 C85.92647387 0.03139315 88.11157683 0.2053954 91.6877594 2.36242676 C93.62915039 4.51757812 93.62915039 4.51757812 94.19165039 7.51757812 C93.4789343 11.31873058 92.7648734 12.25540896 89.62915039 14.51757812 C86.47341574 15.11821704 83.35498683 15.06382336 80.15063477 15.03515625 C79.19087234 15.04216553 78.23110992 15.0491748 77.24226379 15.05639648 C74.06884859 15.07400572 70.89632471 15.06234302 67.72290039 15.04882812 C65.51859363 15.05152219 63.31428804 15.05540389 61.10998535 15.0604248 C56.48979378 15.06632384 51.86991149 15.0577436 47.24975586 15.0390625 C41.32439303 15.01627303 35.39975488 15.0293939 29.47441864 15.05335236 C24.92253143 15.0677992 20.37081632 15.06320939 15.81892395 15.05284119 C13.63401707 15.05017083 11.44909463 15.05345445 9.26420593 15.0627594 C6.21160428 15.07290637 3.16017987 15.05744918 0.10766602 15.03515625 C-0.79739182 15.04325317 -1.70244965 15.0513501 -2.63493347 15.05969238 C-8.73291467 14.97709439 -8.73291467 14.97709439 -11.93200684 12.67272949 C-13.90623343 9.71566064 -13.95178405 8.00318479 -13.37084961 4.51757812 C-9.92089889 -0.62582984 -5.64046894 -0.05107774 0 0 Z " fill="#3F5A5A" transform="translate(279.370849609375,393.482421875)"/>
</svg>
