<?xml version="1.0" encoding="UTF-8"?>
<svg version="1.1" xmlns="http://www.w3.org/2000/svg" width="512" height="512">
<path d="M0 0 C1.95726956 -0.00913666 1.95726956 -0.00913666 3.95407993 -0.01845789 C7.54690653 -0.03474967 11.13951216 -0.03256166 14.73236263 -0.02708292 C18.61870076 -0.02439928 22.50498176 -0.03896952 26.39129639 -0.05117798 C33.99455154 -0.07217912 41.59773035 -0.07677585 49.20101108 -0.07499009 C55.38578489 -0.07367962 61.57053499 -0.07750115 67.75530434 -0.08491516 C69.54061041 -0.08701449 71.32591649 -0.08911209 73.11122257 -0.09120798 C74.44436667 -0.09277327 74.44436667 -0.09277327 75.80444298 -0.09437019 C92.594484 -0.11325161 109.38448128 -0.11222899 126.17452852 -0.10540086 C141.5081562 -0.09982873 156.84161664 -0.1206405 172.17520525 -0.15376133 C187.94609819 -0.1875604 203.71691115 -0.20265881 219.48784095 -0.1980443 C228.33137933 -0.19580566 237.1747632 -0.20095363 246.01827049 -0.22593689 C253.54871841 -0.24703068 261.07892714 -0.25046255 268.60938516 -0.2316373 C272.44543371 -0.22252834 276.28103726 -0.22118574 280.11705017 -0.24199295 C304.94892691 -0.36774106 325.21373461 2.00314447 343.80830383 20.30847168 C356.07810204 33.16928459 362.78667606 49.97955342 362.74824524 67.62353516 C362.74619552 68.81013033 362.74619552 68.81013033 362.74410439 70.02069712 C362.68856043 78.40857284 362.14833719 86.74096192 361.53486633 95.10339355 C361.41609717 96.78747291 361.29788948 98.47159194 361.18019104 100.15574646 C360.86348928 104.6654131 360.53912892 109.1744981 360.21327972 113.68351173 C359.87229255 118.42140912 359.5386949 123.15982697 359.20429993 127.89819336 C358.57181671 136.84518711 357.93304834 145.79171988 357.29183769 154.73809195 C356.41898378 166.92069233 355.55518924 179.1039344 354.69105911 191.28715611 C354.48358906 194.21211013 354.27608629 197.13706184 354.06855774 200.06201172 C354.0013257 201.00965661 353.93409367 201.95730149 353.8648243 202.93366289 C353.4648769 208.5681379 353.06342436 214.20250323 352.66056824 219.83677101 C352.41113962 223.32543371 352.1621816 226.81412992 351.91324615 230.30282784 C351.79739893 231.92425404 351.68129922 233.54566222 351.56493378 235.16705132 C351.40666578 237.37239133 351.24923613 239.57778968 351.09199524 241.78320312 C351.00350311 243.01899361 350.91501099 244.25478409 350.82383728 245.52802277 C350.71792769 247.14789543 350.63642883 248.77107795 350.63642883 250.39440918 C351.41244446 250.67413574 352.18846008 250.9538623 352.98799133 251.24206543 C387.66502347 264.11146519 415.15110506 287.97546237 430.92549133 321.59753418 C445.64100652 353.95540735 447.40127186 391.74086628 435.38642883 425.26940918 C429.75354351 440.01556321 421.70989838 456.81765073 409.63642883 467.39440918 C404.5836348 468.76287423 404.5836348 468.76287423 401.71846008 467.64831543 C401.03138977 467.56452637 400.34431946 467.4807373 399.63642883 467.39440918 C397.40011622 469.09673383 397.40011622 469.09673383 395.32392883 471.51940918 C392.56673123 474.4816876 390.13233392 476.8617386 386.63642883 478.89440918 C383.47845815 480.98004871 383.47845815 480.98004871 383.26533508 483.48425293 C383.23246399 484.64634277 383.23246399 484.64634277 383.19892883 485.83190918 C382.98966524 489.92267494 382.98966524 489.92267494 381.41377258 492.02722168 C371.8361976 499.73138089 358.93631884 504.25344781 347.32392883 507.76940918 C346.14395325 508.12712402 346.14395325 508.12712402 344.94013977 508.49206543 C333.2476415 511.84802097 321.75643395 512.80217907 309.63642883 512.76940918 C308.91231812 512.76919769 308.1882074 512.76898621 307.44215393 512.76876831 C295.46472323 512.73395499 284.18306225 511.70705719 272.63642883 508.39440918 C271.97095032 508.21249023 271.3054718 508.03057129 270.61982727 507.84313965 C252.09702061 502.67945737 235.22792879 492.77575922 220.63642883 480.39440918 C219.7508429 479.65577637 218.86525696 478.91714355 217.95283508 478.15612793 C206.74493867 468.4426177 197.6344025 456.46798748 190.63642883 443.39440918 C190.63642883 442.73440918 190.63642883 442.07440918 190.63642883 441.39440918 C189.73804511 441.39717456 188.83966139 441.39993994 187.91405392 441.40278912 C166.00265953 441.46919006 144.09128262 441.51875824 122.17980862 441.5498457 C111.58336194 441.56528091 100.98698264 441.58630613 90.39057922 441.62072754 C81.14924877 441.65073268 71.90796714 441.67000846 62.66658932 441.67667466 C57.77835069 441.68056817 52.89025168 441.68964791 48.00205803 441.71159935 C43.39002048 441.73214054 38.7781785 441.73820779 34.16609955 441.73373222 C32.4840418 441.73454961 30.80197671 441.74040931 29.11995888 441.7520256 C5.80297439 441.90499724 -12.65256649 436.56552926 -30.05107117 420.26940918 C-41.10076337 408.84087039 -46.76906606 394.97433749 -48.3361969 379.20506287 C-48.4193052 378.38945985 -48.5024135 377.57385683 -48.58804023 376.73353857 C-49.77223836 364.71271114 -50.5750637 352.65932017 -51.42655945 340.6114502 C-51.62330099 337.85604148 -51.82097956 335.10070013 -52.01856995 332.34535217 C-52.55094896 324.91120348 -53.07850449 317.47671752 -53.60494089 310.04214597 C-53.93491919 305.38215784 -54.26586236 300.72223854 -54.59696579 296.06233025 C-55.51726171 283.10760086 -56.43633482 270.15278605 -57.3508625 257.19764805 C-57.40914449 256.37205749 -57.46742647 255.54646693 -57.52747457 254.69585847 C-57.58587733 253.86854001 -57.64428009 253.04122154 -57.70445263 252.18883282 C-57.82275705 250.51297336 -57.94106349 248.83711405 -58.05937195 247.16125488 C-58.11805324 246.33000951 -58.17673453 245.49876413 -58.23719405 244.64232951 C-59.18693772 231.19216256 -60.14552533 217.74264183 -61.10795034 204.29337693 C-62.10083721 190.41661185 -63.08620187 176.53932871 -64.06425273 162.66150993 C-64.61161692 154.89723901 -65.16202145 147.13321266 -65.72078323 139.36975288 C-66.19670122 132.75684535 -66.66559887 126.14348339 -67.12599339 119.52947629 C-67.36006659 116.16961382 -67.59813118 112.81017626 -67.84297943 109.45107269 C-68.82218779 95.9898591 -69.52777933 82.58141578 -69.57398987 69.08128357 C-69.58030619 67.92368422 -69.58662251 66.76608487 -69.59313023 65.57340676 C-69.55883931 57.22612858 -68.79524694 50.10546635 -65.36357117 42.39440918 C-64.88919617 41.30772949 -64.41482117 40.2210498 -63.92607117 39.10144043 C-55.87305443 22.58888448 -41.54724977 9.77476739 -24.36357117 3.39440918 C-16.15187397 0.62077004 -8.63137056 -0.03825427 0 0 Z " fill="#E2F1FE" transform="translate(69.36357116699219,-0.3944091796875)"/>
<path d="M0 0 C1.95726956 -0.00913666 1.95726956 -0.00913666 3.95407993 -0.01845789 C7.54690653 -0.03474967 11.13951216 -0.03256166 14.73236263 -0.02708292 C18.61870076 -0.02439928 22.50498176 -0.03896952 26.39129639 -0.05117798 C33.99455154 -0.07217912 41.59773035 -0.07677585 49.20101108 -0.07499009 C55.38578489 -0.07367962 61.57053499 -0.07750115 67.75530434 -0.08491516 C69.54061041 -0.08701449 71.32591649 -0.08911209 73.11122257 -0.09120798 C74.44436667 -0.09277327 74.44436667 -0.09277327 75.80444298 -0.09437019 C92.594484 -0.11325161 109.38448128 -0.11222899 126.17452852 -0.10540086 C141.5081562 -0.09982873 156.84161664 -0.1206405 172.17520525 -0.15376133 C187.94609819 -0.1875604 203.71691115 -0.20265881 219.48784095 -0.1980443 C228.33137933 -0.19580566 237.1747632 -0.20095363 246.01827049 -0.22593689 C253.54871841 -0.24703068 261.07892714 -0.25046255 268.60938516 -0.2316373 C272.44543371 -0.22252834 276.28103726 -0.22118574 280.11705017 -0.24199295 C304.94892691 -0.36774106 325.21373461 2.00314447 343.80830383 20.30847168 C356.07810204 33.16928459 362.78667606 49.97955342 362.74824524 67.62353516 C362.74619552 68.81013033 362.74619552 68.81013033 362.74410439 70.02069712 C362.68856043 78.40857284 362.14833719 86.74096192 361.53486633 95.10339355 C361.41609717 96.78747291 361.29788948 98.47159194 361.18019104 100.15574646 C360.86348928 104.6654131 360.53912892 109.1744981 360.21327972 113.68351173 C359.87229255 118.42140912 359.5386949 123.15982697 359.20429993 127.89819336 C358.57181671 136.84518711 357.93304834 145.79171988 357.29183769 154.73809195 C356.41898378 166.92069233 355.55518924 179.1039344 354.69105911 191.28715611 C354.48358906 194.21211013 354.27608629 197.13706184 354.06855774 200.06201172 C354.0013257 201.00965661 353.93409367 201.95730149 353.8648243 202.93366289 C353.4648769 208.5681379 353.06342436 214.20250323 352.66056824 219.83677101 C352.41113962 223.32543371 352.1621816 226.81412992 351.91324615 230.30282784 C351.79739893 231.92425404 351.68129922 233.54566222 351.56493378 235.16705132 C351.40666578 237.37239133 351.24923613 239.57778968 351.09199524 241.78320312 C351.00350311 243.01899361 350.91501099 244.25478409 350.82383728 245.52802277 C350.71792769 247.14789543 350.63642883 248.77107795 350.63642883 250.39440918 C351.41244446 250.67413574 352.18846008 250.9538623 352.98799133 251.24206543 C387.66502347 264.11146519 415.15110506 287.97546237 430.92549133 321.59753418 C445.64100652 353.95540735 447.40127186 391.74086628 435.38642883 425.26940918 C429.75354351 440.01556321 421.70989838 456.81765073 409.63642883 467.39440918 C404.5836348 468.76287423 404.5836348 468.76287423 401.71846008 467.64831543 C401.03138977 467.56452637 400.34431946 467.4807373 399.63642883 467.39440918 C397.40011622 469.09673383 397.40011622 469.09673383 395.32392883 471.51940918 C392.56673123 474.4816876 390.13233392 476.8617386 386.63642883 478.89440918 C383.47845815 480.98004871 383.47845815 480.98004871 383.26533508 483.48425293 C383.23246399 484.64634277 383.23246399 484.64634277 383.19892883 485.83190918 C382.98966524 489.92267494 382.98966524 489.92267494 381.41377258 492.02722168 C371.8361976 499.73138089 358.93631884 504.25344781 347.32392883 507.76940918 C346.14395325 508.12712402 346.14395325 508.12712402 344.94013977 508.49206543 C333.2476415 511.84802097 321.75643395 512.80217907 309.63642883 512.76940918 C308.91231812 512.76919769 308.1882074 512.76898621 307.44215393 512.76876831 C295.46472323 512.73395499 284.18306225 511.70705719 272.63642883 508.39440918 C271.97095032 508.21249023 271.3054718 508.03057129 270.61982727 507.84313965 C252.09702061 502.67945737 235.22792879 492.77575922 220.63642883 480.39440918 C219.7508429 479.65577637 218.86525696 478.91714355 217.95283508 478.15612793 C206.74493867 468.4426177 197.6344025 456.46798748 190.63642883 443.39440918 C190.63642883 442.73440918 190.63642883 442.07440918 190.63642883 441.39440918 C189.73804511 441.39717456 188.83966139 441.39993994 187.91405392 441.40278912 C166.00265953 441.46919006 144.09128262 441.51875824 122.17980862 441.5498457 C111.58336194 441.56528091 100.98698264 441.58630613 90.39057922 441.62072754 C81.14924877 441.65073268 71.90796714 441.67000846 62.66658932 441.67667466 C57.77835069 441.68056817 52.89025168 441.68964791 48.00205803 441.71159935 C43.39002048 441.73214054 38.7781785 441.73820779 34.16609955 441.73373222 C32.4840418 441.73454961 30.80197671 441.74040931 29.11995888 441.7520256 C5.80297439 441.90499724 -12.65256649 436.56552926 -30.05107117 420.26940918 C-41.10076337 408.84087039 -46.76906606 394.97433749 -48.3361969 379.20506287 C-48.4193052 378.38945985 -48.5024135 377.57385683 -48.58804023 376.73353857 C-49.77223836 364.71271114 -50.5750637 352.65932017 -51.42655945 340.6114502 C-51.62330099 337.85604148 -51.82097956 335.10070013 -52.01856995 332.34535217 C-52.55094896 324.91120348 -53.07850449 317.47671752 -53.60494089 310.04214597 C-53.93491919 305.38215784 -54.26586236 300.72223854 -54.59696579 296.06233025 C-55.51726171 283.10760086 -56.43633482 270.15278605 -57.3508625 257.19764805 C-57.40914449 256.37205749 -57.46742647 255.54646693 -57.52747457 254.69585847 C-57.58587733 253.86854001 -57.64428009 253.04122154 -57.70445263 252.18883282 C-57.82275705 250.51297336 -57.94106349 248.83711405 -58.05937195 247.16125488 C-58.11805324 246.33000951 -58.17673453 245.49876413 -58.23719405 244.64232951 C-59.18693772 231.19216256 -60.14552533 217.74264183 -61.10795034 204.29337693 C-62.10083721 190.41661185 -63.08620187 176.53932871 -64.06425273 162.66150993 C-64.61161692 154.89723901 -65.16202145 147.13321266 -65.72078323 139.36975288 C-66.19670122 132.75684535 -66.66559887 126.14348339 -67.12599339 119.52947629 C-67.36006659 116.16961382 -67.59813118 112.81017626 -67.84297943 109.45107269 C-68.82218779 95.9898591 -69.52777933 82.58141578 -69.57398987 69.08128357 C-69.58030619 67.92368422 -69.58662251 66.76608487 -69.59313023 65.57340676 C-69.55883931 57.22612858 -68.79524694 50.10546635 -65.36357117 42.39440918 C-64.88919617 41.30772949 -64.41482117 40.2210498 -63.92607117 39.10144043 C-55.87305443 22.58888448 -41.54724977 9.77476739 -24.36357117 3.39440918 C-16.15187397 0.62077004 -8.63137056 -0.03825427 0 0 Z M-44.36357117 36.39440918 C-57.10307372 53.27082547 -54.7388887 72.81117966 -53.1960907 92.60476685 C-52.83565478 97.23292308 -52.49463518 101.86251625 -52.15263367 106.49206543 C-52.0836084 107.42139389 -52.01458313 108.35072235 -51.94346619 109.30821228 C-51.32150179 117.76965534 -50.82928908 126.23569783 -50.36357117 134.70690918 C-49.68584642 146.9228304 -48.76612652 159.10502803 -47.73320007 171.29568481 C-46.57906713 184.98447917 -45.68883317 198.68217663 -44.86357117 212.39440918 C-44.00954651 226.57581223 -43.070201 240.73850448 -41.86357117 254.89440918 C-40.56944224 270.07683314 -39.59268842 285.26932601 -38.67808533 300.47900391 C-37.75714351 315.74544401 -36.65453428 330.98482116 -35.3457489 346.22277832 C-34.6750945 354.09173547 -34.17775548 361.93705102 -33.92607117 369.83190918 C-33.24889114 387.90391457 -26.40815021 402.12874259 -13.20341492 414.40222168 C-4.60321926 421.61327502 5.52560015 425.52275036 16.68519592 425.5146637 C17.39506818 425.51551812 18.10494044 425.51637255 18.83632398 425.51725286 C21.21470492 425.51889983 23.59301532 425.5133991 25.97138977 425.50793457 C27.67639158 425.5076525 29.38139352 425.50781081 31.08639526 425.50837708 C35.71618665 425.50866429 40.3459522 425.50277978 44.97573757 425.49580312 C49.81374417 425.48955699 54.65175134 425.48896478 59.48976135 425.48777771 C68.6517446 425.48466812 77.81371594 425.47645972 86.97569394 425.46642822 C97.40605821 425.45525556 107.83642305 425.44975372 118.26679182 425.44473279 C139.72334414 425.43427682 161.17988574 425.41668455 182.63642883 425.39440918 C182.07879338 421.31828157 181.48459098 417.4921873 180.19892883 413.58190918 C179.0728367 410.15646661 178.28148348 406.74580187 177.58540344 403.21203613 C177.40714523 402.31024124 177.22888702 401.40844635 177.04522705 400.47932434 C176.91032364 399.79130234 176.77542023 399.10328033 176.63642883 398.39440918 C175.69109598 398.39220934 175.69109598 398.39220934 174.7266655 398.38996506 C159.39497618 398.35292026 144.06355221 398.29393682 128.73205185 398.21050644 C121.31784958 398.17068969 113.90375385 398.13831069 106.48945618 398.12341309 C100.02746087 398.11041011 93.56569973 398.0834805 87.1038363 398.03979611 C83.68197087 398.01715033 80.26039459 398.00150033 76.83844757 398.00252533 C73.01912003 398.00016971 69.2007153 397.97320124 65.38154602 397.94030762 C64.24578629 397.94533798 63.11002655 397.95036835 61.93984985 397.95555115 C60.89941025 397.94163834 59.85897064 397.92772552 58.78700256 397.91339111 C57.88364544 397.90970394 56.98028831 397.90601677 56.04955673 397.90221786 C52.86057003 397.23114065 51.64305854 395.90942722 49.63642883 393.39440918 C49.25060654 390.23066635 49.62214055 388.43727402 50.63642883 385.39440918 C53.58163523 384.41267371 55.51939159 384.25847059 58.59082031 384.2361908 C60.12417526 384.22150757 60.12417526 384.22150757 61.68850708 384.20652771 C62.80916061 384.20077225 63.92981415 384.19501678 65.08442688 384.18908691 C66.85535706 384.17423752 66.85535706 384.17423752 68.6620636 384.15908813 C71.89937328 384.13289684 75.13667775 384.11103621 78.37403083 384.09108615 C81.75732561 384.06921765 85.14057559 384.04183319 88.52383423 384.01502991 C94.93045829 383.9651147 101.33710724 383.92017153 107.74377996 383.87700754 C115.03757341 383.82762515 122.33132191 383.77271074 129.62507188 383.71732795 C144.62881564 383.6035259 159.63260173 383.49668299 174.63642883 383.39440918 C174.69014145 382.80735199 174.74385406 382.2202948 174.79919434 381.615448 C175.04864003 378.90353156 175.30150195 376.19194349 175.55439758 373.48034668 C175.63879089 372.55729736 175.7231842 371.63424805 175.81013489 370.68322754 C178.2180274 345.00280009 185.18098192 321.38933311 200.63642883 300.39440918 C201.2152179 299.5926123 201.79400696 298.79081543 202.39033508 297.96472168 C224.48010588 268.86156793 255.92384284 251.7907493 291.69892883 246.20690918 C297.68762432 245.47145535 303.60407245 245.18767462 309.63642883 245.14440918 C310.40607971 245.13514404 311.17573059 245.12587891 311.96870422 245.11633301 C319.60632655 245.1567102 327.09327672 246.29059459 334.63642883 247.39440918 C337.04693772 225.17218322 338.4991189 202.89828632 339.89356995 180.59393311 C340.88347794 164.76547644 341.91574787 148.94721928 343.26142883 133.14440918 C350.91222106 79.98105658 350.91222106 79.98105658 333.63642883 32.39440918 C325.08427676 22.97777964 312.43558079 16.32083813 299.67699754 15.11461937 C296.32762139 15.00680457 292.98975685 14.98965931 289.63867188 15.00672913 C287.7223862 14.99865082 287.7223862 14.99865082 285.76738769 14.99040931 C282.24631225 14.97603003 278.72547237 14.98017567 275.20438445 14.98757613 C271.3971647 14.99232431 267.58999471 14.97978334 263.78279114 14.96955872 C256.33346967 14.95239697 248.88423265 14.95152533 241.43489655 14.95677162 C235.37688537 14.96081984 229.31889906 14.95936202 223.26088905 14.95402336 C222.39730928 14.95327494 221.53372951 14.95252652 220.64398066 14.95175542 C218.8893695 14.95022387 217.13475834 14.94868552 215.3801472 14.94714045 C198.93976033 14.93342463 182.49942111 14.93884639 166.05903534 14.95032566 C151.03696528 14.96025467 136.01501845 14.94732149 120.99296739 14.92339147 C105.54869574 14.89897525 90.10448143 14.88939894 74.66019088 14.89604419 C65.99728774 14.89953112 57.3344793 14.89733933 48.67159081 14.87979317 C41.29622909 14.8650395 33.92102877 14.86447682 26.54567011 14.88186408 C22.78701947 14.89035097 19.02865674 14.89258083 15.27002144 14.87721252 C11.18482872 14.86071665 7.10032471 14.87557077 3.01513672 14.89320374 C1.84195804 14.88359873 0.66877936 14.87399372 -0.53995019 14.86409765 C-18.6460126 15.02418328 -32.70016129 22.78368131 -44.36357117 36.39440918 Z " fill="#FE4B2F" transform="translate(69.36357116699219,-0.3944091796875)"/>
<path d="M0 0 C1.95726956 -0.00913666 1.95726956 -0.00913666 3.95407993 -0.01845789 C7.54690653 -0.03474967 11.13951216 -0.03256166 14.73236263 -0.02708292 C18.61870076 -0.02439928 22.50498176 -0.03896952 26.39129639 -0.05117798 C33.99455154 -0.07217912 41.59773035 -0.07677585 49.20101108 -0.07499009 C55.38578489 -0.07367962 61.57053499 -0.07750115 67.75530434 -0.08491516 C69.54061041 -0.08701449 71.32591649 -0.08911209 73.11122257 -0.09120798 C74.44436667 -0.09277327 74.44436667 -0.09277327 75.80444298 -0.09437019 C92.594484 -0.11325161 109.38448128 -0.11222899 126.17452852 -0.10540086 C141.5081562 -0.09982873 156.84161664 -0.1206405 172.17520525 -0.15376133 C187.94609819 -0.1875604 203.71691115 -0.20265881 219.48784095 -0.1980443 C228.33137933 -0.19580566 237.1747632 -0.20095363 246.01827049 -0.22593689 C253.54871841 -0.24703068 261.07892714 -0.25046255 268.60938516 -0.2316373 C272.44543371 -0.22252834 276.28103726 -0.22118574 280.11705017 -0.24199295 C304.94892691 -0.36774106 325.21373461 2.00314447 343.80830383 20.30847168 C356.07810204 33.16928459 362.78667606 49.97955342 362.74824524 67.62353516 C362.74619552 68.81013033 362.74619552 68.81013033 362.74410439 70.02069712 C362.68856043 78.40857284 362.14833719 86.74096192 361.53486633 95.10339355 C361.41609717 96.78747291 361.29788948 98.47159194 361.18019104 100.15574646 C360.86348928 104.6654131 360.53912892 109.1744981 360.21327972 113.68351173 C359.87229255 118.42140912 359.5386949 123.15982697 359.20429993 127.89819336 C358.57181671 136.84518711 357.93304834 145.79171988 357.29183769 154.73809195 C356.41898378 166.92069233 355.55518924 179.1039344 354.69105911 191.28715611 C354.48358906 194.21211013 354.27608629 197.13706184 354.06855774 200.06201172 C354.0013257 201.00965661 353.93409367 201.95730149 353.8648243 202.93366289 C353.4648769 208.5681379 353.06342436 214.20250323 352.66056824 219.83677101 C352.41113962 223.32543371 352.1621816 226.81412992 351.91324615 230.30282784 C351.79739893 231.92425404 351.68129922 233.54566222 351.56493378 235.16705132 C351.40666578 237.37239133 351.24923613 239.57778968 351.09199524 241.78320312 C351.00350311 243.01899361 350.91501099 244.25478409 350.82383728 245.52802277 C350.71792769 247.14789543 350.63642883 248.77107795 350.63642883 250.39440918 C351.41244446 250.67413574 352.18846008 250.9538623 352.98799133 251.24206543 C387.66502347 264.11146519 415.15110506 287.97546237 430.92549133 321.59753418 C445.64100652 353.95540735 447.40127186 391.74086628 435.38642883 425.26940918 C429.75766818 440.00476538 421.71362726 456.83619859 409.63642883 467.39440918 C406.00549175 468.35771902 404.22079031 468.58919634 400.63642883 467.39440918 C398.32833056 464.59171842 397.6628631 462.84379172 397.44892883 459.20690918 C398.89167265 454.5749422 401.22850176 452.03537711 404.32002258 448.36315918 C423.00149658 424.42062927 429.77540001 391.41791963 426.32295227 361.69567871 C422.91871103 338.98477516 412.91255654 317.50367221 397.63642883 300.39440918 C396.7781514 299.31432971 395.92325253 298.23154351 395.07392883 297.14440918 C384.53012226 285.24883253 370.68596539 276.76168508 356.36689758 270.19030762 C354.9362955 269.53232754 353.51879595 268.84594119 352.10517883 268.15222168 C326.46051885 256.50376697 293.13318392 257.90844877 267.15205383 267.53894043 C253.82218537 272.83408756 241.37519057 279.85301255 230.63642883 289.39440918 C230.09824524 289.87216797 229.56006165 290.34992676 229.00556946 290.84216309 C205.80048179 311.86412264 192.34382095 341.3274353 190.51533508 372.45593262 C189.07112569 403.31868739 199.67967108 432.99378616 219.63642883 456.39440918 C220.29385071 457.23358887 220.29385071 457.23358887 220.96455383 458.08972168 C237.21192576 478.77804193 266.19196817 492.29249283 291.83418274 496.08093262 C319.00372142 499.12028509 346.47057815 494.19569934 369.77705383 479.58190918 C373.49027102 478.03980805 375.77747729 478.42967129 379.63642883 479.39440918 C382.6044049 481.99138824 383.55134195 483.39463827 383.88642883 487.33190918 C380.33545409 496.0317973 368.22423391 499.97261833 360.07051086 503.43054199 C355.88555855 505.08773274 351.6304716 506.46548828 347.32392883 507.76940918 C346.14395325 508.12712402 346.14395325 508.12712402 344.94013977 508.49206543 C333.2476415 511.84802097 321.75643395 512.80217907 309.63642883 512.76940918 C308.91231812 512.76919769 308.1882074 512.76898621 307.44215393 512.76876831 C295.46472323 512.73395499 284.18306225 511.70705719 272.63642883 508.39440918 C271.97095032 508.21249023 271.3054718 508.03057129 270.61982727 507.84313965 C252.09702061 502.67945737 235.22792879 492.77575922 220.63642883 480.39440918 C219.7508429 479.65577637 218.86525696 478.91714355 217.95283508 478.15612793 C206.74493867 468.4426177 197.6344025 456.46798748 190.63642883 443.39440918 C190.63642883 442.73440918 190.63642883 442.07440918 190.63642883 441.39440918 C189.73804511 441.39717456 188.83966139 441.39993994 187.91405392 441.40278912 C166.00265953 441.46919006 144.09128262 441.51875824 122.17980862 441.5498457 C111.58336194 441.56528091 100.98698264 441.58630613 90.39057922 441.62072754 C81.14924877 441.65073268 71.90796714 441.67000846 62.66658932 441.67667466 C57.77835069 441.68056817 52.89025168 441.68964791 48.00205803 441.71159935 C43.39002048 441.73214054 38.7781785 441.73820779 34.16609955 441.73373222 C32.4840418 441.73454961 30.80197671 441.74040931 29.11995888 441.7520256 C5.80297439 441.90499724 -12.65256649 436.56552926 -30.05107117 420.26940918 C-41.10076337 408.84087039 -46.76906606 394.97433749 -48.3361969 379.20506287 C-48.4193052 378.38945985 -48.5024135 377.57385683 -48.58804023 376.73353857 C-49.77223836 364.71271114 -50.5750637 352.65932017 -51.42655945 340.6114502 C-51.62330099 337.85604148 -51.82097956 335.10070013 -52.01856995 332.34535217 C-52.55094896 324.91120348 -53.07850449 317.47671752 -53.60494089 310.04214597 C-53.93491919 305.38215784 -54.26586236 300.72223854 -54.59696579 296.06233025 C-55.51726171 283.10760086 -56.43633482 270.15278605 -57.3508625 257.19764805 C-57.40914449 256.37205749 -57.46742647 255.54646693 -57.52747457 254.69585847 C-57.58587733 253.86854001 -57.64428009 253.04122154 -57.70445263 252.18883282 C-57.82275705 250.51297336 -57.94106349 248.83711405 -58.05937195 247.16125488 C-58.11805324 246.33000951 -58.17673453 245.49876413 -58.23719405 244.64232951 C-59.18693772 231.19216256 -60.14552533 217.74264183 -61.10795034 204.29337693 C-62.10083721 190.41661185 -63.08620187 176.53932871 -64.06425273 162.66150993 C-64.61161692 154.89723901 -65.16202145 147.13321266 -65.72078323 139.36975288 C-66.19670122 132.75684535 -66.66559887 126.14348339 -67.12599339 119.52947629 C-67.36006659 116.16961382 -67.59813118 112.81017626 -67.84297943 109.45107269 C-68.82218779 95.9898591 -69.52777933 82.58141578 -69.57398987 69.08128357 C-69.58030619 67.92368422 -69.58662251 66.76608487 -69.59313023 65.57340676 C-69.55883931 57.22612858 -68.79524694 50.10546635 -65.36357117 42.39440918 C-64.88919617 41.30772949 -64.41482117 40.2210498 -63.92607117 39.10144043 C-55.87305443 22.58888448 -41.54724977 9.77476739 -24.36357117 3.39440918 C-16.15187397 0.62077004 -8.63137056 -0.03825427 0 0 Z M-44.36357117 36.39440918 C-57.10307372 53.27082547 -54.7388887 72.81117966 -53.1960907 92.60476685 C-52.83565478 97.23292308 -52.49463518 101.86251625 -52.15263367 106.49206543 C-52.0836084 107.42139389 -52.01458313 108.35072235 -51.94346619 109.30821228 C-51.32150179 117.76965534 -50.82928908 126.23569783 -50.36357117 134.70690918 C-49.68584642 146.9228304 -48.76612652 159.10502803 -47.73320007 171.29568481 C-46.57906713 184.98447917 -45.68883317 198.68217663 -44.86357117 212.39440918 C-44.00954651 226.57581223 -43.070201 240.73850448 -41.86357117 254.89440918 C-40.56944224 270.07683314 -39.59268842 285.26932601 -38.67808533 300.47900391 C-37.75714351 315.74544401 -36.65453428 330.98482116 -35.3457489 346.22277832 C-34.6750945 354.09173547 -34.17775548 361.93705102 -33.92607117 369.83190918 C-33.24889114 387.90391457 -26.40815021 402.12874259 -13.20341492 414.40222168 C-4.60321926 421.61327502 5.52560015 425.52275036 16.68519592 425.5146637 C17.39506818 425.51551812 18.10494044 425.51637255 18.83632398 425.51725286 C21.21470492 425.51889983 23.59301532 425.5133991 25.97138977 425.50793457 C27.67639158 425.5076525 29.38139352 425.50781081 31.08639526 425.50837708 C35.71618665 425.50866429 40.3459522 425.50277978 44.97573757 425.49580312 C49.81374417 425.48955699 54.65175134 425.48896478 59.48976135 425.48777771 C68.6517446 425.48466812 77.81371594 425.47645972 86.97569394 425.46642822 C97.40605821 425.45525556 107.83642305 425.44975372 118.26679182 425.44473279 C139.72334414 425.43427682 161.17988574 425.41668455 182.63642883 425.39440918 C182.07879338 421.31828157 181.48459098 417.4921873 180.19892883 413.58190918 C179.0728367 410.15646661 178.28148348 406.74580187 177.58540344 403.21203613 C177.40714523 402.31024124 177.22888702 401.40844635 177.04522705 400.47932434 C176.91032364 399.79130234 176.77542023 399.10328033 176.63642883 398.39440918 C175.69109598 398.39220934 175.69109598 398.39220934 174.7266655 398.38996506 C159.39497618 398.35292026 144.06355221 398.29393682 128.73205185 398.21050644 C121.31784958 398.17068969 113.90375385 398.13831069 106.48945618 398.12341309 C100.02746087 398.11041011 93.56569973 398.0834805 87.1038363 398.03979611 C83.68197087 398.01715033 80.26039459 398.00150033 76.83844757 398.00252533 C73.01912003 398.00016971 69.2007153 397.97320124 65.38154602 397.94030762 C64.24578629 397.94533798 63.11002655 397.95036835 61.93984985 397.95555115 C60.89941025 397.94163834 59.85897064 397.92772552 58.78700256 397.91339111 C57.88364544 397.90970394 56.98028831 397.90601677 56.04955673 397.90221786 C52.86057003 397.23114065 51.64305854 395.90942722 49.63642883 393.39440918 C49.25060654 390.23066635 49.62214055 388.43727402 50.63642883 385.39440918 C53.58163523 384.41267371 55.51939159 384.25847059 58.59082031 384.2361908 C60.12417526 384.22150757 60.12417526 384.22150757 61.68850708 384.20652771 C62.80916061 384.20077225 63.92981415 384.19501678 65.08442688 384.18908691 C66.85535706 384.17423752 66.85535706 384.17423752 68.6620636 384.15908813 C71.89937328 384.13289684 75.13667775 384.11103621 78.37403083 384.09108615 C81.75732561 384.06921765 85.14057559 384.04183319 88.52383423 384.01502991 C94.93045829 383.9651147 101.33710724 383.92017153 107.74377996 383.87700754 C115.03757341 383.82762515 122.33132191 383.77271074 129.62507188 383.71732795 C144.62881564 383.6035259 159.63260173 383.49668299 174.63642883 383.39440918 C174.69014145 382.80735199 174.74385406 382.2202948 174.79919434 381.615448 C175.04864003 378.90353156 175.30150195 376.19194349 175.55439758 373.48034668 C175.63879089 372.55729736 175.7231842 371.63424805 175.81013489 370.68322754 C178.2180274 345.00280009 185.18098192 321.38933311 200.63642883 300.39440918 C201.2152179 299.5926123 201.79400696 298.79081543 202.39033508 297.96472168 C224.48010588 268.86156793 255.92384284 251.7907493 291.69892883 246.20690918 C297.68762432 245.47145535 303.60407245 245.18767462 309.63642883 245.14440918 C310.40607971 245.13514404 311.17573059 245.12587891 311.96870422 245.11633301 C319.60632655 245.1567102 327.09327672 246.29059459 334.63642883 247.39440918 C337.04693772 225.17218322 338.4991189 202.89828632 339.89356995 180.59393311 C340.88347794 164.76547644 341.91574787 148.94721928 343.26142883 133.14440918 C350.91222106 79.98105658 350.91222106 79.98105658 333.63642883 32.39440918 C325.08427676 22.97777964 312.43558079 16.32083813 299.67699754 15.11461937 C296.32762139 15.00680457 292.98975685 14.98965931 289.63867188 15.00672913 C287.7223862 14.99865082 287.7223862 14.99865082 285.76738769 14.99040931 C282.24631225 14.97603003 278.72547237 14.98017567 275.20438445 14.98757613 C271.3971647 14.99232431 267.58999471 14.97978334 263.78279114 14.96955872 C256.33346967 14.95239697 248.88423265 14.95152533 241.43489655 14.95677162 C235.37688537 14.96081984 229.31889906 14.95936202 223.26088905 14.95402336 C222.39730928 14.95327494 221.53372951 14.95252652 220.64398066 14.95175542 C218.8893695 14.95022387 217.13475834 14.94868552 215.3801472 14.94714045 C198.93976033 14.93342463 182.49942111 14.93884639 166.05903534 14.95032566 C151.03696528 14.96025467 136.01501845 14.94732149 120.99296739 14.92339147 C105.54869574 14.89897525 90.10448143 14.88939894 74.66019088 14.89604419 C65.99728774 14.89953112 57.3344793 14.89733933 48.67159081 14.87979317 C41.29622909 14.8650395 33.92102877 14.86447682 26.54567011 14.88186408 C22.78701947 14.89035097 19.02865674 14.89258083 15.27002144 14.87721252 C11.18482872 14.86071665 7.10032471 14.87557077 3.01513672 14.89320374 C1.84195804 14.88359873 0.66877936 14.87399372 -0.53995019 14.86409765 C-18.6460126 15.02418328 -32.70016129 22.78368131 -44.36357117 36.39440918 Z " fill="#020101" transform="translate(69.36357116699219,-0.3944091796875)"/>
<path d="M0 0 C1.81467773 -0.0299707 1.81467773 -0.0299707 3.66601562 -0.06054688 C4.83197266 -0.05990234 5.99792969 -0.05925781 7.19921875 -0.05859375 C8.25326904 -0.06044678 9.30731934 -0.0622998 10.39331055 -0.06420898 C14.06449621 0.56674247 15.7186003 1.79771113 18.3125 4.4375 C18.8075 6.4175 18.8075 6.4175 19.3125 8.4375 C27.2325 8.4375 35.1525 8.4375 43.3125 8.4375 C43.9725 6.7875 44.6325 5.1375 45.3125 3.4375 C47.71550859 0.86616858 49.06672529 0.46598919 52.59347153 0.05718327 C53.9067757 0.05475337 55.22007988 0.05232347 56.57318115 0.04981995 C57.30599375 0.04443441 58.03880635 0.03904887 58.79382539 0.03350013 C61.25041619 0.01918795 63.70647061 0.0263322 66.16308594 0.03344727 C67.92407668 0.02774524 69.68506372 0.02078163 71.44604492 0.01264954 C76.23136969 -0.00531956 81.01651146 -0.00410596 85.80185986 0.00159192 C89.79772778 0.00467964 93.79356033 -0.00140432 97.78942323 -0.00744683 C107.21934583 -0.02150396 116.64917788 -0.01992205 126.07910156 -0.00854492 C135.8016553 0.00292623 145.52393286 -0.01111979 155.24645019 -0.0379414 C163.59650036 -0.06011284 171.94646394 -0.06673218 180.29654145 -0.06086498 C185.28231301 -0.0574963 190.26790771 -0.05990411 195.25365448 -0.07711601 C199.94542838 -0.09260508 204.63679435 -0.0886078 209.32855225 -0.06981087 C211.04740573 -0.06612982 212.76628956 -0.06921932 214.48511505 -0.07969666 C224.5736921 -0.13648069 231.9771034 -0.04908351 240.0625 6.75 C245.75285359 13.54681124 246.92568538 18.16899052 246.6875 26.875 C246.66707642 28.37703979 246.66707642 28.37703979 246.64624023 29.90942383 C246.45623603 39.1936218 245.67561055 48.41416102 244.81640625 57.65625 C244.32979859 62.97625829 244.0380563 68.2884226 243.8125 73.625 C243.48762714 80.65516349 243.07247317 87.67285305 242.5 94.6875 C242.44199219 95.54496826 242.38398438 96.40243652 242.32421875 97.28588867 C241.73825687 103.92831595 239.9925641 109.39304122 235.53125 114.4609375 C234.9640625 114.90695313 234.396875 115.35296875 233.8125 115.8125 C233.2453125 116.27398437 232.678125 116.73546875 232.09375 117.2109375 C228.76847733 119.50070859 226.18976553 120.68706417 222.12013435 120.69197559 C221.28682221 120.69780779 220.45351006 120.70363998 219.59494603 120.70964891 C218.68464442 120.70586958 217.77434281 120.70209026 216.8364563 120.69819641 C215.86538653 120.70202196 214.89431677 120.70584751 213.89382064 120.70978898 C210.6311448 120.72012997 207.36864458 120.7161247 204.10595703 120.7121582 C201.7703027 120.71650408 199.4346498 120.72168681 197.09899902 120.72764587 C190.7477799 120.74106089 184.39662019 120.74161172 178.04538965 120.73908257 C172.07720065 120.73787946 166.10902172 120.74408676 160.14083575 120.74951603 C147.59738802 120.76039477 135.05396718 120.75822761 122.51051794 120.75213119 C111.03670727 120.74696279 99.56298151 120.7582148 88.08918764 120.77722941 C76.3075147 120.79660451 64.52588194 120.80486432 52.74419296 120.80110615 C46.12984815 120.79929103 39.5155811 120.80195235 32.90124893 120.81582069 C26.68128036 120.82837357 20.461482 120.8264789 14.24151611 120.81340981 C11.95742613 120.81103889 9.67332426 120.81379706 7.38924789 120.82203293 C4.2734701 120.83245835 1.15826784 120.82443317 -1.95748901 120.8117218 C-2.86332918 120.81909609 -3.76916935 120.82647037 -4.70245922 120.83406812 C-11.24032974 120.77787982 -15.41381419 119.49968015 -20.375 115 C-26.00803752 108.75798545 -27.8314012 103.65280592 -28.28515625 95.16796875 C-28.34394203 94.14731071 -28.34394203 94.14731071 -28.40391541 93.10603333 C-28.52701908 90.94603623 -28.63905476 88.78565259 -28.75 86.625 C-28.90395736 83.78495083 -29.06239696 80.94516877 -29.22265625 78.10546875 C-29.26085983 77.41884659 -29.29906342 76.73222443 -29.33842468 76.02479553 C-29.57347676 71.94601284 -29.93534951 67.912695 -30.4309082 63.85913086 C-30.99840995 58.50323192 -31.28372197 53.120626 -31.61743164 47.74584961 C-31.74909303 45.63950988 -31.88706046 43.53364533 -32.02539062 41.42773438 C-33.65422875 15.98654942 -33.65422875 15.98654942 -28.6875 9.4375 C-20.66226758 0.51831764 -11.40823701 -0.06750436 0 0 Z " fill="#97C8F4" transform="translate(108.6875,38.5625)"/>
<path d="M0 0 C1.20269531 -0.02578125 2.40539062 -0.0515625 3.64453125 -0.078125 C10.09551589 0.5193201 13.98627994 3.49598783 18.1875 8.25 C22.45627202 14.17885002 23.33391245 18.22158266 23.30102539 25.39331055 C23.30117142 26.22280212 23.30131744 27.0522937 23.3014679 27.90692139 C23.30077092 30.65021372 23.29298853 33.39343827 23.28515625 36.13671875 C23.28329131 38.03815168 23.28186776 39.93958509 23.28086853 41.84101868 C23.27704936 46.84694748 23.26722416 51.8528473 23.25616455 56.85876465 C23.24593756 61.96638598 23.24136815 67.074012 23.23632812 72.18164062 C23.22560138 82.20443982 23.20853212 92.2272175 23.1875 102.25 C23.73463654 101.9678212 24.28177307 101.6856424 24.8454895 101.39491272 C25.56437347 101.02877365 26.28325745 100.66263458 27.02392578 100.28540039 C28.09213058 99.73838219 28.09213058 99.73838219 29.18191528 99.18031311 C34.00206021 96.94443448 38.85271673 97.49267867 43.80078125 99.09765625 C50.92966899 102.28888824 55.68047916 106.99896466 59.625 113.6875 C61.16813923 120.71735647 60.54397041 126.28693951 57.0546875 132.64453125 C51.28576986 140.69446445 42.62995174 146.7774955 34.98046875 152.92578125 C31.88795631 155.49927062 28.94269841 158.19597617 26 160.9375 C10.67744863 175.13924641 10.67744863 175.13924641 0.375 175.75 C-10.41580061 175.29496624 -17.22282992 168.37947003 -24.58203125 161.3046875 C-27.41662476 158.58718418 -30.37229031 156.0824149 -33.4375 153.625 C-57.67439407 134.13626939 -57.67439407 134.13626939 -59.19921875 123.5703125 C-59.45095545 117.30293671 -58.64342796 112.30810545 -54.8125 107.25 C-49.45679651 101.59240926 -44.89147938 98.24979599 -37 97.9375 C-33.50618177 97.86340598 -30.86249524 98.52745732 -27.63793945 99.77270508 C-26.92064163 100.04786453 -26.20334381 100.32302399 -25.46430969 100.60652161 C-24.91921249 100.81886948 -24.3741153 101.03121735 -23.8125 101.25 C-23.81107498 100.23237579 -23.80964996 99.21475159 -23.80818176 98.16629028 C-23.79146394 88.54483019 -23.74854468 78.92379044 -23.68040943 69.30255318 C-23.64621588 64.35691468 -23.62104135 59.41158258 -23.61694336 54.46582031 C-23.61264401 49.68687115 -23.58404617 44.90861229 -23.53906822 40.129879 C-23.52614537 38.31281439 -23.52176694 36.49566695 -23.52634621 34.67856216 C-23.54794462 23.49897884 -23.32803401 14.64438284 -15.6796875 5.77734375 C-15.02226562 5.25269531 -14.36484375 4.72804688 -13.6875 4.1875 C-13.02492188 3.63964844 -12.36234375 3.09179688 -11.6796875 2.52734375 C-7.92784327 -0.03929446 -4.42134546 0.05650282 0 0 Z " fill="#040101" transform="translate(377.8125,290.75)"/>
<path d="M0 0 C1.81467773 -0.0299707 1.81467773 -0.0299707 3.66601562 -0.06054688 C4.83197266 -0.05990234 5.99792969 -0.05925781 7.19921875 -0.05859375 C8.25326904 -0.06044678 9.30731934 -0.0622998 10.39331055 -0.06420898 C14.05129666 0.56447392 15.72719087 1.81056325 18.3125 4.4375 C18.875 7.9375 18.875 7.9375 18.3125 11.4375 C16.16261121 14.28960099 15.00144995 15.32165886 11.44335938 15.91992188 C10.35861328 15.91541016 9.27386719 15.91089844 8.15625 15.90625 C6.96902344 15.92042969 5.78179687 15.93460938 4.55859375 15.94921875 C2.06119792 15.94140625 -0.43619792 15.93359375 -2.93359375 15.92578125 C-4.12082031 15.93996094 -5.30804688 15.95414063 -6.53125 15.96875 C-7.61599609 15.96423828 -8.70074219 15.95972656 -9.81835938 15.95507812 C-12.76764575 16.23857939 -12.76764575 16.23857939 -15.05932617 18.10668945 C-17.12635781 21.06574644 -17.09445318 22.62030244 -16.89453125 26.19921875 C-16.84103516 27.31876953 -16.78753906 28.43832031 -16.73242188 29.59179688 C-16.65572266 30.75775391 -16.57902344 31.92371094 -16.5 33.125 C-16.44263672 34.27162109 -16.38527344 35.41824219 -16.32617188 36.59960938 C-16.0275774 42.20869054 -15.57454478 47.77066336 -14.90844727 53.34692383 C-14.51867485 57.03490301 -14.40063921 60.73345781 -14.25 64.4375 C-13.86462623 72.61056981 -13.38948493 80.77567829 -12.8125 88.9375 C-12.71304077 90.55785156 -12.71304077 90.55785156 -12.61157227 92.2109375 C-12.53608154 93.22414063 -12.46059082 94.23734375 -12.3828125 95.28125 C-12.32109863 96.18037109 -12.25938477 97.07949219 -12.19580078 98.00585938 C-11.54932312 101.0985191 -11.03349381 102.27373191 -8.6875 104.4375 C-5.53579831 104.83505587 -2.73173217 104.97282459 0.42272949 104.93870544 C1.36647666 104.94423984 2.31022384 104.94977424 3.28256941 104.95547634 C6.45882625 104.96913737 9.63430471 104.95408389 12.81054688 104.93920898 C15.08195837 104.94299017 17.35336756 104.94848855 19.62477112 104.95558167 C25.80444735 104.96957959 31.98384652 104.95833596 38.16350746 104.94187045 C44.62035991 104.92805323 51.07719573 104.93447622 57.53405762 104.93800354 C68.37871427 104.9407083 79.22324338 104.92729443 90.06787109 104.90405273 C101.23099876 104.88013106 112.39398021 104.87304807 123.55712891 104.88354492 C137.00166994 104.8961643 150.44609624 104.89366974 163.89064026 104.87788582 C169.02935871 104.87211635 174.16802824 104.87221624 179.30674744 104.87695122 C185.35435349 104.88171174 191.40175629 104.87165762 197.44932365 104.84999657 C199.67338818 104.84441591 201.8974722 104.84397504 204.12153816 104.84894943 C207.14867708 104.85487256 210.17518829 104.84245424 213.20227051 104.82518005 C214.53430677 104.83419512 214.53430677 104.83419512 215.89325285 104.84339231 C220.27069063 104.95301738 220.27069063 104.95301738 224.01865339 103.03306919 C226.44161074 100.04508277 226.44516764 96.7143 226.59375 92.98828125 C226.63113281 92.13943359 226.66851562 91.29058594 226.70703125 90.41601562 C226.75923828 89.09633789 226.75923828 89.09633789 226.8125 87.75 C227.2058741 78.02491797 227.2058741 78.02491797 227.77734375 73.3671875 C228.55781414 66.79400508 228.86826007 60.18015825 229.24243164 53.57397461 C229.37372664 51.27232243 229.51183968 48.97114721 229.65039062 46.66992188 C229.90971507 42.26057718 230.12013507 37.85021192 230.3125 33.4375 C230.34688171 32.74654236 230.38126343 32.05558472 230.41668701 31.34368896 C230.50702102 29.40060389 230.56485472 27.45608935 230.62109375 25.51171875 C230.65904053 24.40787842 230.6969873 23.30403809 230.73608398 22.16674805 C230.57217194 19.39530071 230.57217194 19.39530071 228.73954868 17.79016018 C225.40155327 15.92980463 222.87155659 16.06398459 219.05613708 16.06568909 C218.32388021 16.06186452 217.59162334 16.05803996 216.83717686 16.0540995 C214.3827126 16.0448112 211.92881194 16.05680755 209.47436523 16.06860352 C207.71511603 16.06613577 205.95586828 16.06229763 204.19662476 16.05718994 C200.40810185 16.04884883 196.61972923 16.04966204 192.83120537 16.05737495 C186.84411009 16.0689437 180.8572088 16.05680803 174.87013245 16.04075623 C160.00107999 16.00454057 145.13203198 15.99833541 130.26293945 16.00085449 C118.70488656 16.00256365 107.14699164 15.99550799 95.58898312 15.96087593 C89.63363658 15.94404085 83.67867467 15.94591143 77.72332942 15.96169865 C74.02364992 15.96747909 70.32415444 15.9567856 66.6245079 15.94145203 C64.90516691 15.93771318 63.18579545 15.94087007 61.46648216 15.95132256 C59.12447898 15.96461536 56.78382689 15.95355252 54.44187927 15.93629456 C53.12983237 15.93650384 51.81778547 15.93671312 50.46597958 15.93692875 C47.3125 15.4375 47.3125 15.4375 45.3981638 13.62507534 C43.77011187 10.34460651 43.79797688 8.03916185 44.3125 4.4375 C47.05925139 1.53541003 48.73836571 0.5223993 52.71651936 -0.06586456 C54.02890174 -0.06737267 55.34128412 -0.06888077 56.69343567 -0.07043457 C57.42710269 -0.07667453 58.16076971 -0.0829145 58.91666907 -0.08934355 C61.37031197 -0.10527352 63.8229614 -0.09266982 66.27661133 -0.08007812 C68.03775105 -0.08549941 69.79888623 -0.0926221 71.56001282 -0.10131836 C76.34120618 -0.11955796 81.12205437 -0.11248049 85.90325379 -0.09980202 C90.90968902 -0.08967289 95.91609474 -0.0990679 100.92253113 -0.10534668 C109.33325502 -0.11262535 117.74383845 -0.10303171 126.15454102 -0.08398438 C135.8697417 -0.06223645 145.58460632 -0.06925101 155.29979879 -0.09129 C163.64563231 -0.10946306 171.99136486 -0.11199235 180.33721179 -0.10153532 C185.31960375 -0.09530814 190.30183799 -0.09444299 195.28421974 -0.10768127 C199.97192097 -0.11926611 204.65919083 -0.11116599 209.34684563 -0.08810425 C211.06408091 -0.08283029 212.78135271 -0.08430839 214.4985733 -0.09315491 C224.57944568 -0.14028539 231.98391316 -0.04335711 240.0625 6.75 C245.75285359 13.54681124 246.92568538 18.16899052 246.6875 26.875 C246.66707642 28.37703979 246.66707642 28.37703979 246.64624023 29.90942383 C246.45623603 39.1936218 245.67561055 48.41416102 244.81640625 57.65625 C244.32979859 62.97625829 244.0380563 68.2884226 243.8125 73.625 C243.48762714 80.65516349 243.07247317 87.67285305 242.5 94.6875 C242.44199219 95.54496826 242.38398438 96.40243652 242.32421875 97.28588867 C241.73825687 103.92831595 239.9925641 109.39304122 235.53125 114.4609375 C234.9640625 114.90695313 234.396875 115.35296875 233.8125 115.8125 C233.2453125 116.27398437 232.678125 116.73546875 232.09375 117.2109375 C228.76847733 119.50070859 226.18976553 120.68706417 222.12013435 120.69197559 C221.28682221 120.69780779 220.45351006 120.70363998 219.59494603 120.70964891 C218.68464442 120.70586958 217.77434281 120.70209026 216.8364563 120.69819641 C215.86538653 120.70202196 214.89431677 120.70584751 213.89382064 120.70978898 C210.6311448 120.72012997 207.36864458 120.7161247 204.10595703 120.7121582 C201.7703027 120.71650408 199.4346498 120.72168681 197.09899902 120.72764587 C190.7477799 120.74106089 184.39662019 120.74161172 178.04538965 120.73908257 C172.07720065 120.73787946 166.10902172 120.74408676 160.14083575 120.74951603 C147.59738802 120.76039477 135.05396718 120.75822761 122.51051794 120.75213119 C111.03670727 120.74696279 99.56298151 120.7582148 88.08918764 120.77722941 C76.3075147 120.79660451 64.52588194 120.80486432 52.74419296 120.80110615 C46.12984815 120.79929103 39.5155811 120.80195235 32.90124893 120.81582069 C26.68128036 120.82837357 20.461482 120.8264789 14.24151611 120.81340981 C11.95742613 120.81103889 9.67332426 120.81379706 7.38924789 120.82203293 C4.2734701 120.83245835 1.15826784 120.82443317 -1.95748901 120.8117218 C-2.86332918 120.81909609 -3.76916935 120.82647037 -4.70245922 120.83406812 C-11.24032974 120.77787982 -15.41381419 119.49968015 -20.375 115 C-26.00803752 108.75798545 -27.8314012 103.65280592 -28.28515625 95.16796875 C-28.34394203 94.14731071 -28.34394203 94.14731071 -28.40391541 93.10603333 C-28.52701908 90.94603623 -28.63905476 88.78565259 -28.75 86.625 C-28.90395736 83.78495083 -29.06239696 80.94516877 -29.22265625 78.10546875 C-29.26085983 77.41884659 -29.29906342 76.73222443 -29.33842468 76.02479553 C-29.57347676 71.94601284 -29.93534951 67.912695 -30.4309082 63.85913086 C-30.99840995 58.50323192 -31.28372197 53.120626 -31.61743164 47.74584961 C-31.74909303 45.63950988 -31.88706046 43.53364533 -32.02539062 41.42773438 C-33.65422875 15.98654942 -33.65422875 15.98654942 -28.6875 9.4375 C-20.66226758 0.51831764 -11.40823701 -0.06750436 0 0 Z " fill="#040505" transform="translate(108.6875,38.5625)"/>
<path d="M0 0 C17.81242267 -0.71969385 31.51541782 2.01950749 45.625 13.625 C54.58640968 21.9836954 61.36310462 32.9287363 62.14863586 45.35038757 C62.21489968 48.09088489 62.22327591 50.82513711 62.20703125 53.56640625 C62.20335037 54.60622147 62.19966949 55.64603668 62.19587708 56.71736145 C62.0744305 69.56283582 61.20849259 82.3634806 60.32526779 95.17510223 C60.13736944 97.91976563 59.95568409 100.6648288 59.77375126 103.40989304 C58.7318595 119.10940654 57.60198766 134.80008562 56.25720215 150.47680664 C54.92188937 166.04610098 53.98487089 181.63759127 53.08959961 197.23779297 C52.40799162 208.87751367 51.42821127 220.42743385 50 232 C49.02224609 231.85667236 48.04449219 231.71334473 47.03710938 231.56567383 C37.37021838 230.16576782 27.75384767 229.45366733 18 229 C17.73173368 221.23518039 18.14880909 213.66414631 18.8828125 205.94140625 C20.21169432 191.31355748 21.09312448 176.65879254 22 162 C22.94287325 146.75933781 23.89514298 131.52949106 25.2749939 116.32116699 C26.16455048 106.4187754 26.81659336 96.50377694 27.43261719 86.58105469 C27.62669004 83.47293356 27.82881406 80.36539887 28.03125 77.2578125 C29.61146177 52.46460573 30.6403946 31.58022717 13.625 11.625 C9.99758035 7.74784406 6.19110973 4.79737048 1.65234375 2.05859375 C1.10707031 1.70925781 0.56179688 1.35992188 0 1 C0 0.67 0 0.34 0 0 Z " fill="#CDE7FD" transform="translate(354,15)"/>
<path d="M0 0 C31.88674294 -1.08980008 61.64023645 8.11384076 86 29 C86.63292969 29.51175781 87.26585937 30.02351563 87.91796875 30.55078125 C109.48626259 48.21488062 123.80700408 77.51138872 127 105 C129.41362581 136.2372902 121.82853361 167.95261796 101.875 192.5625 C101.10929687 193.45066406 100.34359375 194.33882812 99.5546875 195.25390625 C97.4861783 198.90757953 98.10928607 200.9824114 99 205 C99 208 99 208 97.34765625 210.05078125 C92.26064875 215.08561431 87.13375304 219.30234746 81 223 C80.484375 222.484375 79.96875 221.96875 79.4375 221.4375 C75.90157373 219.35221015 73.93407749 220.02683346 70 221 C67.45841526 222.16004794 65.06626846 223.35139205 62.625 224.6875 C46.83510279 232.9061637 29.04739477 239.17134533 11 238 C13.50451897 236.70232178 16.033671 235.54455965 18.6171875 234.40625 C32.95979764 228.04172733 44.65759162 219.85934158 56 209 C56.74636719 208.31679688 57.49273437 207.63359375 58.26171875 206.9296875 C72.58140944 193.38470957 82.14391223 175.65582247 88 157 C88.3815625 155.78828125 88.763125 154.5765625 89.15625 153.328125 C95.9726948 130.63910159 95.73881932 102.46879286 88 80 C87.74831055 79.25943359 87.49662109 78.51886719 87.23730469 77.75585938 C81.31343429 60.90077151 72.10817074 46.06913667 60 33 C59.19949219 32.11828125 58.39898437 31.2365625 57.57421875 30.328125 C43.42170148 15.41123282 23.51070114 1.87867526 2.640625 1.04296875 C1.76921875 1.02878906 0.8978125 1.01460938 0 1 C0 0.67 0 0.34 0 0 Z " fill="#FD2D0D" transform="translate(370,259)"/>
<path d="M0 0 C2.16416931 1.43443298 2.16416931 1.43443298 4 4 C4.59703637 7.28341076 4.5326532 10.53227655 4.49829102 13.86157227 C4.50380981 14.86195526 4.50932861 15.86233826 4.51501465 16.89303589 C4.52433831 19.06413879 4.52443683 21.23529638 4.51642036 23.4064045 C4.50382065 26.83973242 4.51505188 30.2722529 4.53245544 33.70555115 C4.55918743 39.75264213 4.56474977 45.799536 4.56335449 51.84667969 C4.5611277 61.53002478 4.57512504 71.21312642 4.61894035 80.89637566 C4.62881169 84.28395638 4.62004487 87.67115792 4.61024475 91.05873108 C4.61638647 93.12843071 4.62329737 95.19812825 4.63110352 97.26782227 C4.62338425 98.21387833 4.61566498 99.15993439 4.60771179 100.13465881 C4.6144693 100.99966003 4.62122681 101.86466125 4.62818909 102.75587463 C4.62760278 103.5074714 4.62701647 104.25906816 4.62641239 105.03344059 C5.1101744 107.57995636 5.94329987 108.45802869 8 110 C12.23273902 110.58057499 14.30928794 110.43638365 17.94921875 108.13671875 C18.85285156 107.32847656 19.75648438 106.52023437 20.6875 105.6875 C21.59886719 104.88699219 22.51023437 104.08648437 23.44921875 103.26171875 C24.29097656 102.51535156 25.13273437 101.76898438 26 101 C29.53328216 97.98362394 29.53328216 97.98362394 33.5625 98.125 C37 99 37 99 38.9375 100.125 C40.69937187 103.23418565 40.48159369 105.50844577 40 109 C37.8203125 111.3984375 37.8203125 111.3984375 35 114 C33.65035156 115.27617187 33.65035156 115.27617187 32.2734375 116.578125 C26.57577407 121.83041852 20.79297496 126.86543945 14.75 131.72265625 C10.77139874 135.01743542 6.99736433 138.5146455 3.21484375 142.03125 C0.70549677 144.26178065 -0.39470122 144.90990495 -3.703125 145.40234375 C-8.31543746 144.83946676 -10.42436015 142.65102418 -13.75 139.5625 C-14.36270752 139.01553467 -14.97541504 138.46856934 -15.60668945 137.9050293 C-17.41749962 136.28375833 -19.21027229 134.64447593 -21 133 C-22.72823814 131.43647304 -24.45728846 129.87384289 -26.1875 128.3125 C-26.96996094 127.59964844 -27.75242187 126.88679688 -28.55859375 126.15234375 C-31.22304852 123.80336043 -33.97393222 121.59062341 -36.75 119.375 C-45.96921228 111.83200814 -45.96921228 111.83200814 -48 108 C-48.13156684 104.05299487 -47.87232815 102.07363464 -45.375 99 C-41.85953433 97.51980393 -39.68698414 98.1060694 -36 99 C-33.00628412 101.01784913 -30.53070721 103.59668638 -27.98242188 106.13867188 C-24.94701123 108.95964425 -22.94555299 110.35695159 -18.71484375 110.46484375 C-14.97345601 110.38268165 -14.97345601 110.38268165 -13 108 C-12.6984297 106.09295914 -12.6984297 106.09295914 -12.7484436 103.88285828 C-12.74306076 103.02067688 -12.73767792 102.15849548 -12.73213196 101.27018738 C-12.73625595 100.32210709 -12.74037994 99.37402679 -12.74462891 98.3972168 C-12.74100845 97.40033844 -12.737388 96.40346008 -12.73365784 95.37637329 C-12.72675138 93.20632024 -12.72426073 91.03624977 -12.72560501 88.86618614 C-12.72656715 85.43262788 -12.71366471 81.99938538 -12.69662476 78.56587219 C-12.65025896 68.80183376 -12.62574455 59.03782628 -12.61914062 49.27368164 C-12.61413036 43.3060601 -12.58990208 37.33876645 -12.55381393 31.37125587 C-12.54400203 29.09509053 -12.54169152 26.81888015 -12.54698563 24.54269981 C-12.55404313 21.35843179 -12.53679936 18.17514233 -12.51416016 14.9909668 C-12.52233261 14.0489592 -12.53050507 13.1069516 -12.53892517 12.13639832 C-12.48522944 7.89509778 -12.37899753 5.60848653 -10.09286499 1.93806458 C-6.51138173 -1.37851144 -4.68214377 -1.21735738 0 0 Z " fill="#F8F8F8" transform="translate(382,306)"/>
<path d="M0 0 C2.29372831 1.45124516 3.91752934 2.51865244 5.1484375 4.98046875 C5.53347126 8.52277936 5.56779709 10.34304217 3.5859375 13.35546875 C0.19366108 15.61698637 -1.8304796 15.45754638 -5.8515625 14.98046875 C-6.9859375 14.48546875 -8.1203125 13.99046875 -9.2890625 13.48046875 C-13.30388201 11.79001843 -16.59440795 11.11446963 -20.8515625 11.98046875 C-26.03046662 14.23579796 -29.3697229 16.82242863 -31.8515625 21.98046875 C-32.6762198 27.50047213 -32.59981306 32.42854165 -30.1640625 37.48046875 C-29.4009375 38.30546875 -28.6378125 39.13046875 -27.8515625 39.98046875 C-27.1915625 40.76421875 -26.5315625 41.54796875 -25.8515625 42.35546875 C-21.03893435 44.962309 -16.19791569 44.72096088 -10.8515625 43.98046875 C-7.18192839 41.92547365 -5.38515139 39.88414957 -3.8515625 35.98046875 C-5.676875 36.13515625 -5.676875 36.13515625 -7.5390625 36.29296875 C-11.07549658 36.28668734 -11.79009822 36.02400594 -14.8515625 33.85546875 C-16.8515625 30.98046875 -16.8515625 30.98046875 -17.4140625 27.91796875 C-16.68824232 24.12757449 -16.01276756 23.21690337 -12.8515625 20.98046875 C-9.36591207 20.3526139 -5.94756258 20.37702158 -2.4140625 20.41796875 C-1.47240234 20.39412109 -0.53074219 20.37027344 0.43945312 20.34570312 C5.13765796 20.35564992 7.42831121 20.43947388 11.2734375 23.328125 C13.15213996 25.98570618 13.82990322 27.51108138 13.56640625 30.765625 C11.60870599 41.13960674 8.56495557 49.69239194 0.1484375 56.35546875 C-7.6969286 60.60504205 -16.1193647 61.10362383 -24.8515625 59.98046875 C-28.60656927 58.81843341 -31.62891103 57.21106117 -34.8515625 54.98046875 C-35.72361328 54.40425781 -35.72361328 54.40425781 -36.61328125 53.81640625 C-42.09569564 49.75638149 -45.77645699 43.39691341 -47.8515625 36.98046875 C-49.00956425 26.19101015 -48.47264894 17.03156218 -41.8515625 7.98046875 C-30.98869046 -4.57908044 -14.76683255 -8.131104 0 0 Z " fill="#030404" transform="translate(257.8515625,71.01953125)"/>
<path d="M0 0 C3.04606876 2.43685501 3.25095092 5.04806381 3.6875 8.75 C3.79592486 10.16634713 3.90076639 11.58297924 4 13 C5.37285156 11.71802734 5.37285156 11.71802734 6.7734375 10.41015625 C7.97384674 9.29415079 9.17437368 8.17827192 10.375 7.0625 C10.97828125 6.49853516 11.5815625 5.93457031 12.203125 5.35351562 C12.78320312 4.81533203 13.36328125 4.27714844 13.9609375 3.72265625 C14.49509277 3.22515869 15.02924805 2.72766113 15.57958984 2.21508789 C17.76072806 0.34923624 18.96791453 0.00279004 21.875 -0.25 C25 0 25 0 27.375 1 C29.4636019 3.57058695 29.46951727 5.66274672 29.39697266 8.90966797 C28.70095349 12.574684 26.17717048 14.69822482 23.5 17.0625 C22.95698242 17.57200195 22.41396484 18.08150391 21.85449219 18.60644531 C20.25632753 20.09497833 18.63401193 21.5510189 17 23 C16.14921875 23.76699219 15.2984375 24.53398438 14.421875 25.32421875 C12.63434473 26.90920512 10.82684132 28.46096106 9 30 C13.28564323 35.19209344 17.83286132 39.78953062 22.8125 44.3125 C24.15473396 45.53514155 25.49469793 46.76028127 26.83203125 47.98828125 C27.41702393 48.51977783 28.0020166 49.05127441 28.60473633 49.59887695 C30.68763334 51.69052103 30.98998677 52.90787832 31.3125 55.875 C31 59 31 59 29.4375 61.375 C26.01439482 63.65707012 24.06738186 63.50157351 20 63 C17.41339289 61.38868289 15.37657727 59.35660882 13.25 57.1875 C12.68667969 56.64029297 12.12335938 56.09308594 11.54296875 55.52929688 C10.0112853 54.03563393 8.50253183 52.52289902 7 51 C6.0005083 49.99949196 5.00064788 48.9993517 4 48 C3.95101562 48.67546875 3.90203125 49.3509375 3.8515625 50.046875 C3.77679688 50.93890625 3.70203125 51.8309375 3.625 52.75 C3.55539063 53.63171875 3.48578125 54.5134375 3.4140625 55.421875 C2.99616748 58.02386288 2.39354867 59.77433233 1 62 C-2.09173752 63.54586876 -4.59429552 63.29359521 -8 63 C-10.67708628 60.95689528 -11.84950782 59.7544375 -12.5146637 56.41992188 C-12.52086227 55.44603516 -12.52706085 54.47214844 -12.53344727 53.46875 C-12.5492836 52.36080078 -12.56511993 51.25285156 -12.58143616 50.11132812 C-12.57399635 48.3237207 -12.57399635 48.3237207 -12.56640625 46.5 C-12.57260483 45.27216797 -12.57880341 44.04433594 -12.58518982 42.77929688 C-12.59229309 40.18360182 -12.58910526 37.58786126 -12.57641602 34.9921875 C-12.5625515 31.01477479 -12.59661784 27.03971391 -12.63476562 23.0625 C-12.63571678 20.54166609 -12.63385817 18.02082923 -12.62890625 15.5 C-12.64216446 14.30826172 -12.65542267 13.11652344 -12.66908264 11.88867188 C-12.57637479 3.69313435 -12.57637479 3.69313435 -9.68725586 0.21875 C-5.99245815 -1.45695003 -3.85603645 -1.14252932 0 0 Z " fill="#010203" transform="translate(173,68)"/>
</svg>
